<?xml version="1.0" encoding="utf-8"?>
<!-- Generator: Adobe Illustrator 27.2.0, SVG Export Plug-In . SVG Version: 6.00 Build 0)  -->
<svg version="1.1" id="Layer_1" xmlns="http://www.w3.org/2000/svg" xmlns:xlink="http://www.w3.org/1999/xlink" x="0px" y="0px"
	 viewBox="0 0 750 459.1" style="enable-background:new 0 0 750 459.1;" xml:space="preserve">
<style type="text/css">
	.st0{fill:none;stroke:#CCCCCC;stroke-miterlimit:10;}
	.st1{fill:none;stroke:#333333;stroke-miterlimit:10;}
	.st2{clip-path:url(#SVGID_00000121960766638453421670000005362881877803241892_);fill:#4285F4;}
	.st3{clip-path:url(#SVGID_00000045604321957288433770000012026000740463386022_);fill:#2A5E0E;}
	.st4{fill:none;stroke:#068E37;stroke-width:3;stroke-linecap:round;stroke-linejoin:round;stroke-miterlimit:10;}
	.st5{clip-path:url(#SVGID_00000178884973617769172960000001071821226671835569_);fill-opacity:0;}
	.st6{clip-path:url(#SVGID_00000100341712397156612380000010606117209618917263_);fill-opacity:0;}
	.st7{clip-path:url(#SVGID_00000027597316258194823410000005691356638677220021_);fill-opacity:0;}
	.st8{clip-path:url(#SVGID_00000041265376078876926760000012710306691622750617_);fill-opacity:0;}
	.st9{clip-path:url(#SVGID_00000180356443475720445200000014947380444438237065_);fill-opacity:0;}
	.st10{clip-path:url(#SVGID_00000061473847819642627770000002167830080966144178_);fill-opacity:0;}
	.st11{clip-path:url(#SVGID_00000117648522130589777170000005497360820071379642_);fill-opacity:0;}
	.st12{clip-path:url(#SVGID_00000051349921939949280750000006429217490639334074_);fill-opacity:0;}
	.st13{clip-path:url(#SVGID_00000092416714133478406070000013767634923361500292_);fill-opacity:0;}
	.st14{clip-path:url(#SVGID_00000085935750073017981350000001519872197219525800_);fill-opacity:0;}
	.st15{clip-path:url(#SVGID_00000058571338569021216050000009491169691630898597_);fill-opacity:0;}
	.st16{clip-path:url(#SVGID_00000183229706453622757970000004365458411288180631_);fill-opacity:0;}
	.st17{clip-path:url(#SVGID_00000066489166033284104940000003620667810393039247_);fill-opacity:0;}
	.st18{clip-path:url(#SVGID_00000064320528646337580930000000536514168479541890_);fill-opacity:0;}
	.st19{clip-path:url(#SVGID_00000059310915163811779080000003793466185678987414_);fill-opacity:0;}
	.st20{clip-path:url(#SVGID_00000048501796592866051080000017450370488649075844_);fill-opacity:0;}
	.st21{clip-path:url(#SVGID_00000016059790217197028420000015583006668069966487_);fill-opacity:0;}
	.st22{clip-path:url(#SVGID_00000099631035274427772090000005501864078283100046_);fill-opacity:0;}
	.st23{clip-path:url(#SVGID_00000131337136890704817030000013963685007976179874_);fill-opacity:0;}
	.st24{clip-path:url(#SVGID_00000027592491515180880840000016934248439750092429_);fill-opacity:0;}
	.st25{clip-path:url(#SVGID_00000035516237171314254800000017676690542275497900_);fill-opacity:0;}
	.st26{clip-path:url(#SVGID_00000088852750287646750890000008080529436363879817_);fill-opacity:0;}
	.st27{clip-path:url(#SVGID_00000057843219323649752100000009646058251054757044_);fill-opacity:0;}
	.st28{clip-path:url(#SVGID_00000103943858566110085180000018013604672387816607_);fill-opacity:0;}
	.st29{clip-path:url(#SVGID_00000056390482251881412050000013372878115409134261_);fill-opacity:0;}
	.st30{clip-path:url(#SVGID_00000142141977833345810300000000485066881840686766_);fill-opacity:0;}
	.st31{clip-path:url(#SVGID_00000049905412699134711510000016587906718187497868_);fill-opacity:0;}
	.st32{clip-path:url(#SVGID_00000039834464435122545790000011809364256586389143_);fill-opacity:0;}
	.st33{clip-path:url(#SVGID_00000072975486367705316550000007982550156165688471_);fill-opacity:0;}
	.st34{clip-path:url(#SVGID_00000145059135515322147350000010905298723322625460_);fill-opacity:0;}
	.st35{clip-path:url(#SVGID_00000086682814593611859140000013661720112430266789_);fill-opacity:0;}
	.st36{clip-path:url(#SVGID_00000043416261723289872380000002694678513326561155_);fill-opacity:0;}
	.st37{clip-path:url(#SVGID_00000138541633225061443470000006965200539014829997_);fill-opacity:0;}
	.st38{clip-path:url(#SVGID_00000111150023501550098970000010184134735089455536_);fill-opacity:0;}
	.st39{clip-path:url(#SVGID_00000115490214303117930970000001713826898622476962_);fill-opacity:0;}
	.st40{clip-path:url(#SVGID_00000091714319543745154130000000001534944181265068_);fill-opacity:0;}
	.st41{clip-path:url(#SVGID_00000001654563707976825730000005320596705914308272_);fill-opacity:0;}
	.st42{clip-path:url(#SVGID_00000085223926227848009400000001313277615634626971_);fill-opacity:0;}
	.st43{display:none;}
	.st44{display:inline;}
	.st45{display:inline;clip-path:url(#SVGID_00000047776532482931302410000013164610918876452779_);fill-opacity:0;}
	.st46{clip-path:url(#SVGID_00000169530679046697317350000012877218331529028501_);fill-opacity:0;}
	.st47{clip-path:url(#SVGID_00000059283858755596060810000017846057868673361572_);fill-opacity:0;}
	.st48{clip-path:url(#SVGID_00000170262405334935669360000009212942233050226076_);fill-opacity:0;}
	.st49{clip-path:url(#SVGID_00000158007249127718741720000013942275284746578104_);fill-opacity:0;}
	.st50{clip-path:url(#SVGID_00000009563519259130254300000005212156160824956602_);fill-opacity:0;}
	.st51{clip-path:url(#SVGID_00000129922403939442591200000010184540492375597450_);fill-opacity:0;}
	.st52{clip-path:url(#SVGID_00000171696904936738814910000012829754463080966821_);fill-opacity:0;}
	.st53{clip-path:url(#SVGID_00000084510911541894229940000005918957954694198405_);fill-opacity:0;}
	.st54{clip-path:url(#SVGID_00000002367649943507719080000000863407686360920755_);fill-opacity:0;}
	.st55{clip-path:url(#SVGID_00000102534919091743795610000010851073596824846230_);fill-opacity:0;}
	.st56{clip-path:url(#SVGID_00000053523857155848359780000010034162841397848712_);fill-opacity:0;}
	.st57{clip-path:url(#SVGID_00000114055107573375392410000011202820439773245868_);fill-opacity:0;}
	.st58{clip-path:url(#SVGID_00000026153271584337549520000017825198142566651298_);fill:#2A8434;}
	.st59{display:inline;clip-path:url(#SVGID_00000137835759351793136900000004427957735712857740_);fill:#3D700D;fill-opacity:0;}
	.st60{font-family:'MyriadPro-Regular';}
	.st61{font-size:15.8657px;}
</style>
<path class="st0" d="M126.6,97.3v331.3"/>
<path class="st0" d="M322.6,97.3v331.3"/>
<path class="st0" d="M519.5,97.3v331.3"/>
<path class="st0" d="M715.5,97.3v331.3"/>
<path class="st1" d="M67.8,428.6h647.7"/>
<path class="st0" d="M67.8,362.4h647.7"/>
<path class="st0" d="M67.8,296.1h647.7"/>
<path class="st0" d="M67.8,229.9h647.7"/>
<path class="st0" d="M67.8,163.6h647.7"/>
<path class="st0" d="M67.8,97.3h647.7"/>
<g>
	<defs>
		<rect id="SVGID_1_" x="67.6" y="97" width="648.1" height="331.8"/>
	</defs>
	<clipPath id="SVGID_00000137104396222029944090000005399660828566914437_">
		<use xlink:href="#SVGID_1_"  style="overflow:visible;"/>
	</clipPath>
	<path style="clip-path:url(#SVGID_00000137104396222029944090000005399660828566914437_);fill:#4285F4;" d="M668.4,223.3
		c0,1-0.8,1.9-1.9,1.9c-1,0-1.9-0.8-1.9-1.9s0.8-1.9,1.9-1.9C667.6,221.4,668.4,222.3,668.4,223.3z"/>
</g>
<g>
	<defs>
		<rect id="SVGID_00000016073091070051137420000002942003786078778773_" x="67.6" y="97" width="648.1" height="331.8"/>
	</defs>
	<clipPath id="SVGID_00000171694481808080746490000008598431200257839530_">
		<use xlink:href="#SVGID_00000016073091070051137420000002942003786078778773_"  style="overflow:visible;"/>
	</clipPath>
	<path style="clip-path:url(#SVGID_00000171694481808080746490000008598431200257839530_);fill:#2A5E0E;" d="M716,223
		c2.3,3.1-1.1,6.5-4.2,4.2C709.5,224.1,712.9,220.7,716,223z"/>
</g>
<g>
	<path class="st4" d="M67.6,299.1l9.8,3.9l9.8-0.2 M116.7,301.9l9.8,0.2l9.8,3.2l9.8-191.6h9.8l9.8,38.5l9.8,0.4 M195.2,158l9.8,1.5
		l9.8,2.6l9.8,5.2l9.8,4.7l9.8,0.7l9.8-1.7 M283.6,189.6l9.8,0.8l9.8,12.4l9.8,0.2 M332.7,207.9l9.8,1.2l9.8,1l9.8,0.5l9.8,0.4
		l9.8,1.8l9.8,0.6l9.8,1.5l9.8,2.5l9.8-2.4l9.8,0l9.8,1.5l9.8,0.3l9.8,0.4l9.8-0.5l9.8,0.1l9.8,2.4l9.8,0.3l9.8,0.2l9.8,0.1l9.8,0
		l9.8-0.4l9.8-0.1l9.8,0.5l9.8,0.1h9.8l9.8,0.1l9.8,0l9.8,0l9.8,0.2"/>
</g>
<g>
	<defs>
		<rect id="SVGID_00000053533616174059462710000001884472828712795304_" x="67.6" y="97" width="648.1" height="331.8"/>
	</defs>
	<clipPath id="SVGID_00000120528352589385986080000016236067308412193415_">
		<use xlink:href="#SVGID_00000053533616174059462710000001884472828712795304_"  style="overflow:visible;"/>
	</clipPath>
	<path style="clip-path:url(#SVGID_00000120528352589385986080000016236067308412193415_);fill-opacity:0;" d="M70.4,299.1
		c0,1.5-1.3,2.8-2.8,2.8c-1.5,0-2.8-1.3-2.8-2.8c0-1.5,1.3-2.8,2.8-2.8C69.1,296.3,70.4,297.6,70.4,299.1z"/>
</g>
<g>
	<defs>
		<rect id="SVGID_00000098197873751166337630000014185878197189463998_" x="67.6" y="97" width="648.1" height="331.8"/>
	</defs>
	<clipPath id="SVGID_00000019642067014580045770000016842781839106540173_">
		<use xlink:href="#SVGID_00000098197873751166337630000014185878197189463998_"  style="overflow:visible;"/>
	</clipPath>
	<path style="clip-path:url(#SVGID_00000019642067014580045770000016842781839106540173_);fill-opacity:0;" d="M80.2,303
		c0,1.5-1.3,2.8-2.8,2.8s-2.8-1.3-2.8-2.8c0-1.5,1.3-2.8,2.8-2.8S80.2,301.5,80.2,303z"/>
</g>
<g>
	<defs>
		<rect id="SVGID_00000181798330659297216840000011287127182728527807_" x="67.6" y="97" width="648.1" height="331.8"/>
	</defs>
	<clipPath id="SVGID_00000083793195716086417790000012134045495714646695_">
		<use xlink:href="#SVGID_00000181798330659297216840000011287127182728527807_"  style="overflow:visible;"/>
	</clipPath>
	<path style="clip-path:url(#SVGID_00000083793195716086417790000012134045495714646695_);fill-opacity:0;" d="M90,302.8
		c0,1.5-1.3,2.8-2.8,2.8s-2.8-1.3-2.8-2.8c0-1.5,1.3-2.8,2.8-2.8S90,301.3,90,302.8z"/>
</g>
<g>
	<defs>
		<rect id="SVGID_00000088093261803205891010000017768421630590407826_" x="67.6" y="97" width="648.1" height="331.8"/>
	</defs>
	<clipPath id="SVGID_00000090279004099303157740000015346161702269655727_">
		<use xlink:href="#SVGID_00000088093261803205891010000017768421630590407826_"  style="overflow:visible;"/>
	</clipPath>
	<path style="clip-path:url(#SVGID_00000090279004099303157740000015346161702269655727_);fill-opacity:0;" d="M119.5,301.9
		c0,1.5-1.3,2.8-2.8,2.8c-1.5,0-2.8-1.3-2.8-2.8c0-1.5,1.3-2.8,2.8-2.8C118.2,299.1,119.5,300.4,119.5,301.9z"/>
</g>
<g>
	<defs>
		<rect id="SVGID_00000133522236179443653120000018412169948507894940_" x="67.6" y="97" width="648.1" height="331.8"/>
	</defs>
	<clipPath id="SVGID_00000070802150301428744320000012271078257330045351_">
		<use xlink:href="#SVGID_00000133522236179443653120000018412169948507894940_"  style="overflow:visible;"/>
	</clipPath>
	<path style="clip-path:url(#SVGID_00000070802150301428744320000012271078257330045351_);fill-opacity:0;" d="M129.3,302.1
		c0,1.5-1.3,2.8-2.8,2.8c-1.5,0-2.8-1.3-2.8-2.8c0-1.5,1.3-2.8,2.8-2.8C128,299.3,129.3,300.6,129.3,302.1z"/>
</g>
<g>
	<defs>
		<rect id="SVGID_00000072249092132552302330000006767010891116353953_" x="67.6" y="97" width="648.1" height="331.8"/>
	</defs>
	<clipPath id="SVGID_00000070810345364280896620000005910599690748111242_">
		<use xlink:href="#SVGID_00000072249092132552302330000006767010891116353953_"  style="overflow:visible;"/>
	</clipPath>
	<path style="clip-path:url(#SVGID_00000070810345364280896620000005910599690748111242_);fill-opacity:0;" d="M139.1,305.4
		c0,1.5-1.3,2.8-2.8,2.8s-2.8-1.3-2.8-2.8c0-1.5,1.3-2.8,2.8-2.8S139.1,303.8,139.1,305.4z"/>
</g>
<g>
	<defs>
		<rect id="SVGID_00000108303398892187220700000013026680692697344418_" x="67.6" y="97" width="648.1" height="331.8"/>
	</defs>
	<clipPath id="SVGID_00000106861404442623203650000004257206906384318343_">
		<use xlink:href="#SVGID_00000108303398892187220700000013026680692697344418_"  style="overflow:visible;"/>
	</clipPath>
	<path style="clip-path:url(#SVGID_00000106861404442623203650000004257206906384318343_);fill-opacity:0;" d="M148.9,113.7
		c0,1.5-1.3,2.8-2.8,2.8s-2.8-1.3-2.8-2.8c0-1.5,1.3-2.8,2.8-2.8S148.9,112.2,148.9,113.7z"/>
</g>
<g>
	<defs>
		<rect id="SVGID_00000061462553538721110380000002854037505175444113_" x="67.6" y="97" width="648.1" height="331.8"/>
	</defs>
	<clipPath id="SVGID_00000111156468077627161000000011974735540930100378_">
		<use xlink:href="#SVGID_00000061462553538721110380000002854037505175444113_"  style="overflow:visible;"/>
	</clipPath>
	<path style="clip-path:url(#SVGID_00000111156468077627161000000011974735540930100378_);fill-opacity:0;" d="M158.8,113.7
		c0,1.5-1.3,2.8-2.8,2.8c-1.5,0-2.8-1.3-2.8-2.8c0-1.5,1.3-2.8,2.8-2.8C157.5,110.9,158.8,112.2,158.8,113.7z"/>
</g>
<g>
	<defs>
		<rect id="SVGID_00000101091416167776416510000016656490438094499506_" x="67.6" y="97" width="648.1" height="331.8"/>
	</defs>
	<clipPath id="SVGID_00000171683015434713923170000001741175311608464265_">
		<use xlink:href="#SVGID_00000101091416167776416510000016656490438094499506_"  style="overflow:visible;"/>
	</clipPath>
	<path style="clip-path:url(#SVGID_00000171683015434713923170000001741175311608464265_);fill-opacity:0;" d="M168.6,152.2
		c0,1.5-1.3,2.8-2.8,2.8c-1.5,0-2.8-1.3-2.8-2.8c0-1.5,1.3-2.8,2.8-2.8C167.3,149.4,168.6,150.6,168.6,152.2z"/>
</g>
<g>
	<defs>
		<rect id="SVGID_00000023270150803642241560000016693455759670359711_" x="67.6" y="97" width="648.1" height="331.8"/>
	</defs>
	<clipPath id="SVGID_00000178164713499247070990000003983789185669144244_">
		<use xlink:href="#SVGID_00000023270150803642241560000016693455759670359711_"  style="overflow:visible;"/>
	</clipPath>
	<path style="clip-path:url(#SVGID_00000178164713499247070990000003983789185669144244_);fill-opacity:0;" d="M178.4,152.6
		c0,1.5-1.3,2.8-2.8,2.8c-1.5,0-2.8-1.3-2.8-2.8c0-1.5,1.3-2.8,2.8-2.8C177.1,149.8,178.4,151,178.4,152.6z"/>
</g>
<g>
	<defs>
		<rect id="SVGID_00000183239308594258044600000001430821444592124342_" x="67.6" y="97" width="648.1" height="331.8"/>
	</defs>
	<clipPath id="SVGID_00000080916586475418049650000017701419073137214876_">
		<use xlink:href="#SVGID_00000183239308594258044600000001430821444592124342_"  style="overflow:visible;"/>
	</clipPath>
	<path style="clip-path:url(#SVGID_00000080916586475418049650000017701419073137214876_);fill-opacity:0;" d="M198,158
		c0,1.5-1.3,2.8-2.8,2.8c-1.5,0-2.8-1.3-2.8-2.8s1.3-2.8,2.8-2.8C196.8,155.2,198,156.5,198,158z"/>
</g>
<g>
	<defs>
		<rect id="SVGID_00000138535039764332416870000001935033803022645381_" x="67.6" y="97" width="648.1" height="331.8"/>
	</defs>
	<clipPath id="SVGID_00000039828489280676382340000014510974208573234618_">
		<use xlink:href="#SVGID_00000138535039764332416870000001935033803022645381_"  style="overflow:visible;"/>
	</clipPath>
	<path style="clip-path:url(#SVGID_00000039828489280676382340000014510974208573234618_);fill-opacity:0;" d="M207.9,159.5
		c0,1.5-1.3,2.8-2.8,2.8c-1.5,0-2.8-1.3-2.8-2.8c0-1.5,1.3-2.8,2.8-2.8C206.6,156.7,207.9,158,207.9,159.5z"/>
</g>
<g>
	<defs>
		<rect id="SVGID_00000104666892280858080990000013628001671570502071_" x="67.6" y="97" width="648.1" height="331.8"/>
	</defs>
	<clipPath id="SVGID_00000116223314567565744070000001299662929691959695_">
		<use xlink:href="#SVGID_00000104666892280858080990000013628001671570502071_"  style="overflow:visible;"/>
	</clipPath>
	<path style="clip-path:url(#SVGID_00000116223314567565744070000001299662929691959695_);fill-opacity:0;" d="M217.7,162.1
		c0,1.5-1.3,2.8-2.8,2.8c-1.5,0-2.8-1.3-2.8-2.8s1.3-2.8,2.8-2.8C216.4,159.3,217.7,160.6,217.7,162.1z"/>
</g>
<g>
	<defs>
		<rect id="SVGID_00000117642998373164857830000011377380984982635141_" x="67.6" y="97" width="648.1" height="331.8"/>
	</defs>
	<clipPath id="SVGID_00000178164880861306410660000000962142960560246407_">
		<use xlink:href="#SVGID_00000117642998373164857830000011377380984982635141_"  style="overflow:visible;"/>
	</clipPath>
	<path style="clip-path:url(#SVGID_00000178164880861306410660000000962142960560246407_);fill-opacity:0;" d="M227.5,167.3
		c0,1.5-1.3,2.8-2.8,2.8c-1.5,0-2.8-1.3-2.8-2.8s1.3-2.8,2.8-2.8C226.2,164.5,227.5,165.8,227.5,167.3z"/>
</g>
<g>
	<defs>
		<rect id="SVGID_00000162352853512651625850000004539063632535179919_" x="67.6" y="97" width="648.1" height="331.8"/>
	</defs>
	<clipPath id="SVGID_00000017493396805174062000000018044344905616712340_">
		<use xlink:href="#SVGID_00000162352853512651625850000004539063632535179919_"  style="overflow:visible;"/>
	</clipPath>
	<path style="clip-path:url(#SVGID_00000017493396805174062000000018044344905616712340_);fill-opacity:0;" d="M237.3,172
		c0,1.5-1.3,2.8-2.8,2.8s-2.8-1.3-2.8-2.8c0-1.5,1.3-2.8,2.8-2.8S237.3,170.4,237.3,172z"/>
</g>
<g>
	<defs>
		<rect id="SVGID_00000072960370029847625570000005239537684746191785_" x="67.6" y="97" width="648.1" height="331.8"/>
	</defs>
	<clipPath id="SVGID_00000018215026623240331300000006704639028787799990_">
		<use xlink:href="#SVGID_00000072960370029847625570000005239537684746191785_"  style="overflow:visible;"/>
	</clipPath>
	<path style="clip-path:url(#SVGID_00000018215026623240331300000006704639028787799990_);fill-opacity:0;" d="M247.1,172.7
		c0,1.5-1.3,2.8-2.8,2.8s-2.8-1.3-2.8-2.8c0-1.5,1.3-2.8,2.8-2.8S247.1,171.2,247.1,172.7z"/>
</g>
<g>
	<defs>
		<rect id="SVGID_00000056428332930287656130000017292477607492146601_" x="67.6" y="97" width="648.1" height="331.8"/>
	</defs>
	<clipPath id="SVGID_00000063606083045890303700000012524275002586197172_">
		<use xlink:href="#SVGID_00000056428332930287656130000017292477607492146601_"  style="overflow:visible;"/>
	</clipPath>
	<path style="clip-path:url(#SVGID_00000063606083045890303700000012524275002586197172_);fill-opacity:0;" d="M257,171.1
		c0,1.5-1.3,2.8-2.8,2.8c-1.5,0-2.8-1.3-2.8-2.8s1.3-2.8,2.8-2.8C255.7,168.3,257,169.5,257,171.1z"/>
</g>
<g>
	<defs>
		<rect id="SVGID_00000075145618889008455010000004038023781079851711_" x="67.6" y="97" width="648.1" height="331.8"/>
	</defs>
	<clipPath id="SVGID_00000158726912704813215430000014164999125964315277_">
		<use xlink:href="#SVGID_00000075145618889008455010000004038023781079851711_"  style="overflow:visible;"/>
	</clipPath>
	<path style="clip-path:url(#SVGID_00000158726912704813215430000014164999125964315277_);fill-opacity:0;" d="M286.4,189.6
		c0,1.5-1.3,2.8-2.8,2.8c-1.5,0-2.8-1.3-2.8-2.8s1.3-2.8,2.8-2.8C285.2,186.8,286.4,188.1,286.4,189.6z"/>
</g>
<g>
	<defs>
		<rect id="SVGID_00000028288300051235108930000003587766680582705553_" x="67.6" y="97" width="648.1" height="331.8"/>
	</defs>
	<clipPath id="SVGID_00000178165927298336606100000010763663545573408435_">
		<use xlink:href="#SVGID_00000028288300051235108930000003587766680582705553_"  style="overflow:visible;"/>
	</clipPath>
	<path style="clip-path:url(#SVGID_00000178165927298336606100000010763663545573408435_);fill-opacity:0;" d="M296.2,190.4
		c0,1.5-1.3,2.8-2.8,2.8s-2.8-1.3-2.8-2.8c0-1.5,1.3-2.8,2.8-2.8S296.2,188.9,296.2,190.4z"/>
</g>
<g>
	<defs>
		<rect id="SVGID_00000004531790360157623330000016325653070871922622_" x="67.6" y="97" width="648.1" height="331.8"/>
	</defs>
	<clipPath id="SVGID_00000173155479155379112170000004172767584006828672_">
		<use xlink:href="#SVGID_00000004531790360157623330000016325653070871922622_"  style="overflow:visible;"/>
	</clipPath>
	<path style="clip-path:url(#SVGID_00000173155479155379112170000004172767584006828672_);fill-opacity:0;" d="M306,202.8
		c0,1.5-1.3,2.8-2.8,2.8c-1.5,0-2.8-1.3-2.8-2.8c0-1.5,1.3-2.8,2.8-2.8C304.8,200,306,201.3,306,202.8z"/>
</g>
<g>
	<defs>
		<rect id="SVGID_00000168834951555454516960000012671790888305898902_" x="67.6" y="97" width="648.1" height="331.8"/>
	</defs>
	<clipPath id="SVGID_00000131366878287878068470000013449599329031003051_">
		<use xlink:href="#SVGID_00000168834951555454516960000012671790888305898902_"  style="overflow:visible;"/>
	</clipPath>
	<path style="clip-path:url(#SVGID_00000131366878287878068470000013449599329031003051_);fill-opacity:0;" d="M315.9,203.1
		c0,1.5-1.3,2.8-2.8,2.8s-2.8-1.3-2.8-2.8c0-1.5,1.3-2.8,2.8-2.8S315.9,201.5,315.9,203.1z"/>
</g>
<g>
	<defs>
		<rect id="SVGID_00000094619494366316278890000016122205059588832934_" x="67.6" y="97" width="648.1" height="331.8"/>
	</defs>
	<clipPath id="SVGID_00000119802623532567791930000018097660504056682897_">
		<use xlink:href="#SVGID_00000094619494366316278890000016122205059588832934_"  style="overflow:visible;"/>
	</clipPath>
	<path style="clip-path:url(#SVGID_00000119802623532567791930000018097660504056682897_);fill-opacity:0;" d="M335.5,207.9
		c0,1.5-1.3,2.8-2.8,2.8s-2.8-1.3-2.8-2.8c0-1.5,1.3-2.8,2.8-2.8S335.5,206.3,335.5,207.9z"/>
</g>
<g>
	<defs>
		<rect id="SVGID_00000153663675628583802940000012966452431421080461_" x="67.6" y="97" width="648.1" height="331.8"/>
	</defs>
	<clipPath id="SVGID_00000084496699040626172560000010245219483325950341_">
		<use xlink:href="#SVGID_00000153663675628583802940000012966452431421080461_"  style="overflow:visible;"/>
	</clipPath>
	<path style="clip-path:url(#SVGID_00000084496699040626172560000010245219483325950341_);fill-opacity:0;" d="M345.3,209
		c0,1.5-1.3,2.8-2.8,2.8c-1.5,0-2.8-1.3-2.8-2.8c0-1.5,1.3-2.8,2.8-2.8C344.1,206.2,345.3,207.5,345.3,209z"/>
</g>
<g>
	<defs>
		<rect id="SVGID_00000052073121070052792040000014152502186559042702_" x="67.6" y="97" width="648.1" height="331.8"/>
	</defs>
	<clipPath id="SVGID_00000153669383151909141790000010443127142050879366_">
		<use xlink:href="#SVGID_00000052073121070052792040000014152502186559042702_"  style="overflow:visible;"/>
	</clipPath>
	<path style="clip-path:url(#SVGID_00000153669383151909141790000010443127142050879366_);fill-opacity:0;" d="M355.1,210
		c0,1.5-1.3,2.8-2.8,2.8c-1.5,0-2.8-1.3-2.8-2.8c0-1.5,1.3-2.8,2.8-2.8C353.9,207.2,355.1,208.5,355.1,210z"/>
</g>
<g>
	<defs>
		<rect id="SVGID_00000039117439944295673340000017006698991025880730_" x="67.6" y="97" width="648.1" height="331.8"/>
	</defs>
	<clipPath id="SVGID_00000140737048243194827430000015411551981036503204_">
		<use xlink:href="#SVGID_00000039117439944295673340000017006698991025880730_"  style="overflow:visible;"/>
	</clipPath>
	<path style="clip-path:url(#SVGID_00000140737048243194827430000015411551981036503204_);fill-opacity:0;" d="M365,210.5
		c0,1.5-1.3,2.8-2.8,2.8c-1.5,0-2.8-1.3-2.8-2.8s1.3-2.8,2.8-2.8C363.7,207.7,365,209,365,210.5z"/>
</g>
<g>
	<defs>
		<rect id="SVGID_00000109725345950860604740000003459636418572819079_" x="67.6" y="97" width="648.1" height="331.8"/>
	</defs>
	<clipPath id="SVGID_00000059283493182744859160000010668970905836266371_">
		<use xlink:href="#SVGID_00000109725345950860604740000003459636418572819079_"  style="overflow:visible;"/>
	</clipPath>
	<path style="clip-path:url(#SVGID_00000059283493182744859160000010668970905836266371_);fill-opacity:0;" d="M374.8,210.9
		c0,1.5-1.3,2.8-2.8,2.8c-1.5,0-2.8-1.3-2.8-2.8s1.3-2.8,2.8-2.8C373.5,208.1,374.8,209.4,374.8,210.9z"/>
</g>
<g>
	<defs>
		<rect id="SVGID_00000110458509187464241740000011374922144029060799_" x="67.6" y="97" width="648.1" height="331.8"/>
	</defs>
	<clipPath id="SVGID_00000042732729460169833870000002506628764574109101_">
		<use xlink:href="#SVGID_00000110458509187464241740000011374922144029060799_"  style="overflow:visible;"/>
	</clipPath>
	<path style="clip-path:url(#SVGID_00000042732729460169833870000002506628764574109101_);fill-opacity:0;" d="M384.6,212.7
		c0,1.5-1.3,2.8-2.8,2.8c-1.5,0-2.8-1.3-2.8-2.8c0-1.5,1.3-2.8,2.8-2.8C383.3,209.9,384.6,211.1,384.6,212.7z"/>
</g>
<g>
	<defs>
		<rect id="SVGID_00000065794744493760772090000013512024059986542523_" x="67.6" y="97" width="648.1" height="331.8"/>
	</defs>
	<clipPath id="SVGID_00000094601421501260529620000010954737719160961959_">
		<use xlink:href="#SVGID_00000065794744493760772090000013512024059986542523_"  style="overflow:visible;"/>
	</clipPath>
	<path style="clip-path:url(#SVGID_00000094601421501260529620000010954737719160961959_);fill-opacity:0;" d="M394.4,213.3
		c0,1.5-1.3,2.8-2.8,2.8c-1.5,0-2.8-1.3-2.8-2.8c0-1.5,1.3-2.8,2.8-2.8C393.2,210.5,394.4,211.7,394.4,213.3z"/>
</g>
<g>
	<defs>
		<rect id="SVGID_00000140702222112363386940000017599963717037987713_" x="67.6" y="97" width="648.1" height="331.8"/>
	</defs>
	<clipPath id="SVGID_00000121243432141977240440000010519646823186392964_">
		<use xlink:href="#SVGID_00000140702222112363386940000017599963717037987713_"  style="overflow:visible;"/>
	</clipPath>
	<path style="clip-path:url(#SVGID_00000121243432141977240440000010519646823186392964_);fill-opacity:0;" d="M404.2,214.8
		c0,1.5-1.3,2.8-2.8,2.8c-1.5,0-2.8-1.3-2.8-2.8c0-1.5,1.3-2.8,2.8-2.8C403,212,404.2,213.2,404.2,214.8z"/>
</g>
<g>
	<defs>
		<rect id="SVGID_00000069382284417514882790000006644601966465315502_" x="67.6" y="97" width="648.1" height="331.8"/>
	</defs>
	<clipPath id="SVGID_00000061437845345482301970000012147715488994538671_">
		<use xlink:href="#SVGID_00000069382284417514882790000006644601966465315502_"  style="overflow:visible;"/>
	</clipPath>
	<path style="clip-path:url(#SVGID_00000061437845345482301970000012147715488994538671_);fill-opacity:0;" d="M414.1,217.3
		c0,1.5-1.3,2.8-2.8,2.8c-1.5,0-2.8-1.3-2.8-2.8c0-1.5,1.3-2.8,2.8-2.8C412.8,214.5,414.1,215.8,414.1,217.3z"/>
</g>
<g>
	<defs>
		<rect id="SVGID_00000059997607806710710790000007336643052052934814_" x="67.6" y="97" width="648.1" height="331.8"/>
	</defs>
	<clipPath id="SVGID_00000147918982456775105240000015886877956871431564_">
		<use xlink:href="#SVGID_00000059997607806710710790000007336643052052934814_"  style="overflow:visible;"/>
	</clipPath>
	<path style="clip-path:url(#SVGID_00000147918982456775105240000015886877956871431564_);fill-opacity:0;" d="M423.9,214.9
		c0,1.5-1.3,2.8-2.8,2.8c-1.5,0-2.8-1.3-2.8-2.8c0-1.5,1.3-2.8,2.8-2.8C422.6,212.1,423.9,213.3,423.9,214.9z"/>
</g>
<g>
	<defs>
		<rect id="SVGID_00000034782510355829794280000006732366669153811345_" x="67.6" y="97" width="648.1" height="331.8"/>
	</defs>
	<clipPath id="SVGID_00000068676455517997779110000011934317518518533032_">
		<use xlink:href="#SVGID_00000034782510355829794280000006732366669153811345_"  style="overflow:visible;"/>
	</clipPath>
	<path style="clip-path:url(#SVGID_00000068676455517997779110000011934317518518533032_);fill-opacity:0;" d="M433.7,214.9
		c0,1.5-1.3,2.8-2.8,2.8c-1.5,0-2.8-1.3-2.8-2.8c0-1.5,1.3-2.8,2.8-2.8C432.4,212.1,433.7,213.3,433.7,214.9z"/>
</g>
<g>
	<defs>
		<rect id="SVGID_00000142862413970835929260000013186097304793444537_" x="67.6" y="97" width="648.1" height="331.8"/>
	</defs>
	<clipPath id="SVGID_00000096040064920842658090000003730051825272445090_">
		<use xlink:href="#SVGID_00000142862413970835929260000013186097304793444537_"  style="overflow:visible;"/>
	</clipPath>
	<path style="clip-path:url(#SVGID_00000096040064920842658090000003730051825272445090_);fill-opacity:0;" d="M443.5,216.3
		c0,1.5-1.3,2.8-2.8,2.8s-2.8-1.3-2.8-2.8c0-1.5,1.3-2.8,2.8-2.8S443.5,214.8,443.5,216.3z"/>
</g>
<g>
	<defs>
		<rect id="SVGID_00000180332880719246719460000010560086213079264899_" x="67.6" y="97" width="648.1" height="331.8"/>
	</defs>
	<clipPath id="SVGID_00000032620485367294306440000005474251197378418055_">
		<use xlink:href="#SVGID_00000180332880719246719460000010560086213079264899_"  style="overflow:visible;"/>
	</clipPath>
	<path style="clip-path:url(#SVGID_00000032620485367294306440000005474251197378418055_);fill-opacity:0;" d="M453.3,216.6
		c0,1.5-1.3,2.8-2.8,2.8c-1.5,0-2.8-1.3-2.8-2.8c0-1.5,1.3-2.8,2.8-2.8C452.1,213.8,453.3,215.1,453.3,216.6z"/>
</g>
<g>
	<defs>
		<rect id="SVGID_00000031919828044225744660000002132128640485701534_" x="67.6" y="97" width="648.1" height="331.8"/>
	</defs>
	<clipPath id="SVGID_00000045620415427597680790000012941161878247773099_">
		<use xlink:href="#SVGID_00000031919828044225744660000002132128640485701534_"  style="overflow:visible;"/>
	</clipPath>
	<path style="clip-path:url(#SVGID_00000045620415427597680790000012941161878247773099_);fill-opacity:0;" d="M463.2,217
		c0,1.5-1.3,2.8-2.8,2.8c-1.5,0-2.8-1.3-2.8-2.8c0-1.5,1.3-2.8,2.8-2.8C461.9,214.2,463.2,215.5,463.2,217z"/>
</g>
<g>
	<defs>
		<rect id="SVGID_00000144318983056856656340000013049806609020584085_" x="67.6" y="97" width="648.1" height="331.8"/>
	</defs>
	<clipPath id="SVGID_00000095302603894732885360000011946854843350265238_">
		<use xlink:href="#SVGID_00000144318983056856656340000013049806609020584085_"  style="overflow:visible;"/>
	</clipPath>
	<path style="clip-path:url(#SVGID_00000095302603894732885360000011946854843350265238_);fill-opacity:0;" d="M473,216.5
		c0,1.5-1.3,2.8-2.8,2.8c-1.5,0-2.8-1.3-2.8-2.8c0-1.5,1.3-2.8,2.8-2.8C471.7,213.7,473,215,473,216.5z"/>
</g>
<g>
	<defs>
		<rect id="SVGID_00000048477443376702288010000018051897215268749734_" x="67.6" y="97" width="648.1" height="331.8"/>
	</defs>
	<clipPath id="SVGID_00000029758841442829538580000010542298128452245435_">
		<use xlink:href="#SVGID_00000048477443376702288010000018051897215268749734_"  style="overflow:visible;"/>
	</clipPath>
	<path style="clip-path:url(#SVGID_00000029758841442829538580000010542298128452245435_);fill-opacity:0;" d="M482.8,216.7
		c0,1.5-1.3,2.8-2.8,2.8c-1.5,0-2.8-1.3-2.8-2.8c0-1.5,1.3-2.8,2.8-2.8C481.5,213.9,482.8,215.1,482.8,216.7z"/>
</g>
<g>
	<defs>
		<rect id="SVGID_00000023993067607459262980000009958141436100936372_" x="67.6" y="97" width="648.1" height="331.8"/>
	</defs>
	<clipPath id="SVGID_00000005256280857460188940000018362669654489684135_">
		<use xlink:href="#SVGID_00000023993067607459262980000009958141436100936372_"  style="overflow:visible;"/>
	</clipPath>
	<path style="clip-path:url(#SVGID_00000005256280857460188940000018362669654489684135_);fill-opacity:0;" d="M492.6,219.1
		c0,1.5-1.3,2.8-2.8,2.8c-1.5,0-2.8-1.3-2.8-2.8c0-1.5,1.3-2.8,2.8-2.8C491.4,216.3,492.6,217.6,492.6,219.1z"/>
</g>
<g class="st43">
	<defs>
		<rect id="SVGID_00000180357275490264270940000011529525358511142288_" x="64.3" y="47.1" width="694.4" height="355.5"/>
	</defs>
	<clipPath id="SVGID_00000127017402893544336430000006295307426518356628_" class="st44">
		<use xlink:href="#SVGID_00000180357275490264270940000011529525358511142288_"  style="overflow:visible;"/>
	</clipPath>
	<path style="display:inline;clip-path:url(#SVGID_00000127017402893544336430000006295307426518356628_);fill-opacity:0;" d="
		M530.2,178.2c0,1.7-1.3,3-3,3s-3-1.3-3-3c0-1.7,1.3-3,3-3S530.2,176.6,530.2,178.2z"/>
</g>
<g>
	<defs>
		<rect id="SVGID_00000181046721297309895130000010682418637061352110_" x="67.6" y="97" width="648.1" height="331.8"/>
	</defs>
	<clipPath id="SVGID_00000065050597491022461670000000383044046226485640_">
		<use xlink:href="#SVGID_00000181046721297309895130000010682418637061352110_"  style="overflow:visible;"/>
	</clipPath>
	<path style="clip-path:url(#SVGID_00000065050597491022461670000000383044046226485640_);fill-opacity:0;" d="M512.3,219.6
		c0,1.5-1.3,2.8-2.8,2.8c-1.5,0-2.8-1.3-2.8-2.8c0-1.5,1.3-2.8,2.8-2.8C511,216.8,512.3,218.1,512.3,219.6z"/>
</g>
<g>
	<defs>
		<rect id="SVGID_00000176021325139301159500000008046311741032960423_" x="67.6" y="97" width="648.1" height="331.8"/>
	</defs>
	<clipPath id="SVGID_00000060009734893218056110000010588157240145388963_">
		<use xlink:href="#SVGID_00000176021325139301159500000008046311741032960423_"  style="overflow:visible;"/>
	</clipPath>
	<path style="clip-path:url(#SVGID_00000060009734893218056110000010588157240145388963_);fill-opacity:0;" d="M522.1,219.7
		c0,1.5-1.3,2.8-2.8,2.8c-1.5,0-2.8-1.3-2.8-2.8c0-1.5,1.3-2.8,2.8-2.8C520.8,216.9,522.1,218.1,522.1,219.7z"/>
</g>
<g>
	<defs>
		<rect id="SVGID_00000181786202472983611180000003410222981614815364_" x="67.6" y="97" width="648.1" height="331.8"/>
	</defs>
	<clipPath id="SVGID_00000030446673057927380910000010085772555262347153_">
		<use xlink:href="#SVGID_00000181786202472983611180000003410222981614815364_"  style="overflow:visible;"/>
	</clipPath>
	<path style="clip-path:url(#SVGID_00000030446673057927380910000010085772555262347153_);fill-opacity:0;" d="M531.9,219.7
		c0,1.5-1.3,2.8-2.8,2.8c-1.5,0-2.8-1.3-2.8-2.8c0-1.5,1.3-2.8,2.8-2.8C530.6,216.9,531.9,218.2,531.9,219.7z"/>
</g>
<g>
	<defs>
		<rect id="SVGID_00000062901815082653086790000001440479549057233026_" x="67.6" y="97" width="648.1" height="331.8"/>
	</defs>
	<clipPath id="SVGID_00000124864310481139167560000001427950003506025872_">
		<use xlink:href="#SVGID_00000062901815082653086790000001440479549057233026_"  style="overflow:visible;"/>
	</clipPath>
	<path style="clip-path:url(#SVGID_00000124864310481139167560000001427950003506025872_);fill-opacity:0;" d="M541.7,219.3
		c0,1.5-1.3,2.8-2.8,2.8s-2.8-1.3-2.8-2.8c0-1.5,1.3-2.8,2.8-2.8S541.7,217.8,541.7,219.3z"/>
</g>
<g>
	<defs>
		<rect id="SVGID_00000112633806157905497490000002942438551807954623_" x="67.6" y="97" width="648.1" height="331.8"/>
	</defs>
	<clipPath id="SVGID_00000007415809588683454510000001046221283100058035_">
		<use xlink:href="#SVGID_00000112633806157905497490000002942438551807954623_"  style="overflow:visible;"/>
	</clipPath>
	<path style="clip-path:url(#SVGID_00000007415809588683454510000001046221283100058035_);fill-opacity:0;" d="M551.5,219.3
		c0,1.5-1.3,2.8-2.8,2.8s-2.8-1.3-2.8-2.8c0-1.5,1.3-2.8,2.8-2.8S551.5,217.7,551.5,219.3z"/>
</g>
<g>
	<defs>
		<rect id="SVGID_00000181056411778427115100000016433126334839895965_" x="67.6" y="97" width="648.1" height="331.8"/>
	</defs>
	<clipPath id="SVGID_00000072984050761287937740000007619941189936754080_">
		<use xlink:href="#SVGID_00000181056411778427115100000016433126334839895965_"  style="overflow:visible;"/>
	</clipPath>
	<path style="clip-path:url(#SVGID_00000072984050761287937740000007619941189936754080_);fill-opacity:0;" d="M561.3,219.8
		c0,1.5-1.3,2.8-2.8,2.8c-1.5,0-2.8-1.3-2.8-2.8s1.3-2.8,2.8-2.8C560.1,217,561.3,218.2,561.3,219.8z"/>
</g>
<g>
	<defs>
		<rect id="SVGID_00000140736488858183236110000013351337223128302004_" x="67.6" y="97" width="648.1" height="331.8"/>
	</defs>
	<clipPath id="SVGID_00000155130850421496008410000003452778208238672806_">
		<use xlink:href="#SVGID_00000140736488858183236110000013351337223128302004_"  style="overflow:visible;"/>
	</clipPath>
	<path style="clip-path:url(#SVGID_00000155130850421496008410000003452778208238672806_);fill-opacity:0;" d="M571.2,219.9
		c0,1.5-1.3,2.8-2.8,2.8c-1.5,0-2.8-1.3-2.8-2.8c0-1.5,1.3-2.8,2.8-2.8C569.9,217.1,571.2,218.3,571.2,219.9z"/>
</g>
<g>
	<defs>
		<rect id="SVGID_00000166660231200826220750000006376485485173568131_" x="67.6" y="97" width="648.1" height="331.8"/>
	</defs>
	<clipPath id="SVGID_00000142170962490963199490000005178602149671564171_">
		<use xlink:href="#SVGID_00000166660231200826220750000006376485485173568131_"  style="overflow:visible;"/>
	</clipPath>
	<path style="clip-path:url(#SVGID_00000142170962490963199490000005178602149671564171_);fill-opacity:0;" d="M581,219.9
		c0,1.5-1.3,2.8-2.8,2.8c-1.5,0-2.8-1.3-2.8-2.8c0-1.5,1.3-2.8,2.8-2.8C579.7,217.1,581,218.3,581,219.9z"/>
</g>
<g>
	<defs>
		<rect id="SVGID_00000132800760469270427930000008911460897684085665_" x="67.6" y="97" width="648.1" height="331.8"/>
	</defs>
	<clipPath id="SVGID_00000002381193973914471100000008217875088813940620_">
		<use xlink:href="#SVGID_00000132800760469270427930000008911460897684085665_"  style="overflow:visible;"/>
	</clipPath>
	<path style="clip-path:url(#SVGID_00000002381193973914471100000008217875088813940620_);fill-opacity:0;" d="M590.8,220
		c0,1.5-1.3,2.8-2.8,2.8c-1.5,0-2.8-1.3-2.8-2.8c0-1.5,1.3-2.8,2.8-2.8C589.6,217.2,590.8,218.4,590.8,220z"/>
</g>
<g>
	<defs>
		<rect id="SVGID_00000168077674907794017050000004347729582967682975_" x="67.6" y="97" width="648.1" height="331.8"/>
	</defs>
	<clipPath id="SVGID_00000155843151247514787430000002152434155647714446_">
		<use xlink:href="#SVGID_00000168077674907794017050000004347729582967682975_"  style="overflow:visible;"/>
	</clipPath>
	<path style="clip-path:url(#SVGID_00000155843151247514787430000002152434155647714446_);fill-opacity:0;" d="M600.6,220
		c0,1.5-1.3,2.8-2.8,2.8s-2.8-1.3-2.8-2.8c0-1.5,1.3-2.8,2.8-2.8S600.6,218.4,600.6,220z"/>
</g>
<g>
	<defs>
		<rect id="SVGID_00000166637429078285722420000018308868076833553591_" x="67.6" y="97" width="648.1" height="331.8"/>
	</defs>
	<clipPath id="SVGID_00000160905343584399429060000002491900621540913844_">
		<use xlink:href="#SVGID_00000166637429078285722420000018308868076833553591_"  style="overflow:visible;"/>
	</clipPath>
	<path style="clip-path:url(#SVGID_00000160905343584399429060000002491900621540913844_);fill-opacity:0;" d="M610.4,220
		c0,1.5-1.3,2.8-2.8,2.8s-2.8-1.3-2.8-2.8c0-1.5,1.3-2.8,2.8-2.8S610.4,218.5,610.4,220z"/>
</g>
<g>
	<defs>
		<rect id="SVGID_00000126319315483919034950000008661566757671666869_" x="67.6" y="97" width="648.1" height="331.8"/>
	</defs>
	<clipPath id="SVGID_00000152251055921981514750000008494386393447227041_">
		<use xlink:href="#SVGID_00000126319315483919034950000008661566757671666869_"  style="overflow:visible;"/>
	</clipPath>
	<path style="clip-path:url(#SVGID_00000152251055921981514750000008494386393447227041_);fill-opacity:0;" d="M620.3,220.2
		c0,1.5-1.3,2.8-2.8,2.8c-1.5,0-2.8-1.3-2.8-2.8c0-1.5,1.3-2.8,2.8-2.8C619,217.4,620.3,218.7,620.3,220.2z"/>
</g>
<g>
	<defs>
		<rect id="SVGID_00000124161717384106736660000001520777707631662756_" x="67.6" y="97" width="648.1" height="331.8"/>
	</defs>
	<clipPath id="SVGID_00000150095195455625745640000004962525458900741297_">
		<use xlink:href="#SVGID_00000124161717384106736660000001520777707631662756_"  style="overflow:visible;"/>
	</clipPath>
	<path style="clip-path:url(#SVGID_00000150095195455625745640000004962525458900741297_);fill:#2A8434;" d="M669.4,223.3
		c0,1.5-1.3,2.8-2.8,2.8s-2.8-1.3-2.8-2.8c0-1.5,1.3-2.8,2.8-2.8S669.4,221.8,669.4,223.3z"/>
</g>
<g class="st43">
	<defs>
		<rect id="SVGID_00000162311947776817864620000009725157584127561103_" x="64.3" y="47.1" width="694.4" height="355.5"/>
	</defs>
	<clipPath id="SVGID_00000145751784647161429090000005740456062308366733_" class="st44">
		<use xlink:href="#SVGID_00000162311947776817864620000009725157584127561103_"  style="overflow:visible;"/>
	</clipPath>
	
		<path style="display:inline;clip-path:url(#SVGID_00000145751784647161429090000005740456062308366733_);fill:#3D700D;fill-opacity:0;" d="
		M761.7,184.7c0,1.7-1.3,3-3,3s-3-1.3-3-3c0-1.7,1.3-3,3-3S761.7,183.1,761.7,184.7z"/>
</g>
<path d="M55.9,428.6c0-1,0.1-1.7,0.3-2.3c0.2-0.6,0.5-1,0.9-1.3c0.4-0.3,0.9-0.5,1.5-0.5c0.4,0,0.8,0.1,1.1,0.3
	c0.3,0.2,0.6,0.4,0.8,0.8c0.2,0.3,0.4,0.7,0.5,1.2c0.1,0.5,0.2,1.1,0.2,1.9c0,0.9-0.1,1.7-0.3,2.3c-0.2,0.6-0.5,1-0.9,1.3
	c-0.4,0.3-0.9,0.5-1.5,0.5c-0.8,0-1.4-0.3-1.8-0.8C56.2,431.2,55.9,430.1,55.9,428.6z M56.9,428.6c0,1.3,0.2,2.2,0.5,2.6
	c0.3,0.4,0.7,0.7,1.1,0.7c0.5,0,0.8-0.2,1.1-0.7c0.3-0.4,0.5-1.3,0.5-2.6c0-1.3-0.2-2.2-0.5-2.6c-0.3-0.4-0.7-0.7-1.2-0.7
	c-0.4,0-0.8,0.2-1.1,0.6C57.1,426.4,56.9,427.3,56.9,428.6z"/>
<path d="M36.3,364.1l1-0.1c0.1,0.5,0.3,0.9,0.5,1.1c0.3,0.3,0.6,0.4,1,0.4c0.5,0,0.9-0.2,1.2-0.5c0.3-0.4,0.5-0.8,0.5-1.4
	c0-0.6-0.2-1-0.5-1.3c-0.3-0.3-0.7-0.5-1.2-0.5c-0.3,0-0.6,0.1-0.9,0.2c-0.3,0.1-0.5,0.3-0.6,0.6l-0.9-0.1l0.8-4.1h4v0.9h-3.2
	l-0.4,2.2c0.5-0.3,1-0.5,1.5-0.5c0.7,0,1.3,0.2,1.8,0.7c0.5,0.5,0.7,1.1,0.7,1.9c0,0.7-0.2,1.3-0.6,1.9c-0.5,0.6-1.2,1-2.1,1
	c-0.7,0-1.3-0.2-1.8-0.6C36.7,365.3,36.4,364.8,36.3,364.1z M42.9,362.3c0-1,0.1-1.7,0.3-2.3c0.2-0.6,0.5-1,0.9-1.3
	c0.4-0.3,0.9-0.5,1.5-0.5c0.4,0,0.8,0.1,1.1,0.3c0.3,0.2,0.6,0.4,0.8,0.8c0.2,0.3,0.4,0.7,0.5,1.2c0.1,0.5,0.2,1.1,0.2,1.9
	c0,0.9-0.1,1.7-0.3,2.3c-0.2,0.6-0.5,1-0.9,1.3c-0.4,0.3-0.9,0.5-1.5,0.5c-0.8,0-1.4-0.3-1.8-0.8C43.1,364.8,42.9,363.8,42.9,362.3z
	 M43.9,362.3c0,1.3,0.2,2.2,0.5,2.6c0.3,0.4,0.7,0.7,1.1,0.7c0.5,0,0.8-0.2,1.1-0.7c0.3-0.4,0.5-1.3,0.5-2.6c0-1.3-0.2-2.2-0.5-2.6
	c-0.3-0.4-0.7-0.7-1.2-0.7c-0.4,0-0.8,0.2-1.1,0.6C44,360,43.9,360.9,43.9,362.3z M49.4,362.3c0-1,0.1-1.7,0.3-2.3
	c0.2-0.6,0.5-1,0.9-1.3c0.4-0.3,0.9-0.5,1.5-0.5c0.4,0,0.8,0.1,1.1,0.3c0.3,0.2,0.6,0.4,0.8,0.8c0.2,0.3,0.4,0.7,0.5,1.2
	c0.1,0.5,0.2,1.1,0.2,1.9c0,0.9-0.1,1.7-0.3,2.3c-0.2,0.6-0.5,1-0.9,1.3c-0.4,0.3-0.9,0.5-1.5,0.5c-0.8,0-1.4-0.3-1.8-0.8
	C49.7,364.8,49.4,363.8,49.4,362.3z M50.4,362.3c0,1.3,0.2,2.2,0.5,2.6c0.3,0.4,0.7,0.7,1.1,0.7c0.5,0,0.8-0.2,1.1-0.7
	c0.3-0.4,0.5-1.3,0.5-2.6c0-1.3-0.2-2.2-0.5-2.6c-0.3-0.4-0.7-0.7-1.2-0.7c-0.4,0-0.8,0.2-1.1,0.6C50.6,360,50.4,360.9,50.4,362.3z
	 M55.9,362.3c0-1,0.1-1.7,0.3-2.3c0.2-0.6,0.5-1,0.9-1.3c0.4-0.3,0.9-0.5,1.5-0.5c0.4,0,0.8,0.1,1.1,0.3c0.3,0.2,0.6,0.4,0.8,0.8
	c0.2,0.3,0.4,0.7,0.5,1.2c0.1,0.5,0.2,1.1,0.2,1.9c0,0.9-0.1,1.7-0.3,2.3c-0.2,0.6-0.5,1-0.9,1.3c-0.4,0.3-0.9,0.5-1.5,0.5
	c-0.8,0-1.4-0.3-1.8-0.8C56.2,364.8,55.9,363.8,55.9,362.3z M56.9,362.3c0,1.3,0.2,2.2,0.5,2.6c0.3,0.4,0.7,0.7,1.1,0.7
	c0.5,0,0.8-0.2,1.1-0.7c0.3-0.4,0.5-1.3,0.5-2.6c0-1.3-0.2-2.2-0.5-2.6c-0.3-0.4-0.7-0.7-1.2-0.7c-0.4,0-0.8,0.2-1.1,0.6
	C57.1,360,56.9,360.9,56.9,362.3z"/>
<path d="M33.5,299.8h-1v-6.3c-0.2,0.2-0.6,0.5-0.9,0.7c-0.4,0.2-0.7,0.4-1,0.5v-0.9c0.5-0.3,1-0.6,1.4-0.9c0.4-0.4,0.7-0.7,0.9-1.1
	h0.6V299.8z M36.3,295.9c0-1,0.1-1.7,0.3-2.3c0.2-0.6,0.5-1,0.9-1.3c0.4-0.3,0.9-0.5,1.5-0.5c0.4,0,0.8,0.1,1.1,0.3
	c0.3,0.2,0.6,0.4,0.8,0.8c0.2,0.3,0.4,0.7,0.5,1.2s0.2,1.1,0.2,1.9c0,0.9-0.1,1.7-0.3,2.3c-0.2,0.6-0.5,1-0.9,1.3
	c-0.4,0.3-0.9,0.5-1.5,0.5c-0.8,0-1.4-0.3-1.8-0.8C36.6,298.5,36.3,297.4,36.3,295.9z M37.3,295.9c0,1.3,0.2,2.2,0.5,2.6
	c0.3,0.4,0.7,0.7,1.1,0.7c0.5,0,0.8-0.2,1.1-0.7c0.3-0.4,0.5-1.3,0.5-2.6c0-1.3-0.2-2.2-0.5-2.6c-0.3-0.4-0.7-0.7-1.2-0.7
	c-0.4,0-0.8,0.2-1.1,0.6C37.5,293.7,37.3,294.6,37.3,295.9z M42.9,295.9c0-1,0.1-1.7,0.3-2.3c0.2-0.6,0.5-1,0.9-1.3
	c0.4-0.3,0.9-0.5,1.5-0.5c0.4,0,0.8,0.1,1.1,0.3c0.3,0.2,0.6,0.4,0.8,0.8c0.2,0.3,0.4,0.7,0.5,1.2s0.2,1.1,0.2,1.9
	c0,0.9-0.1,1.7-0.3,2.3c-0.2,0.6-0.5,1-0.9,1.3c-0.4,0.3-0.9,0.5-1.5,0.5c-0.8,0-1.4-0.3-1.8-0.8C43.1,298.5,42.9,297.4,42.9,295.9z
	 M43.9,295.9c0,1.3,0.2,2.2,0.5,2.6c0.3,0.4,0.7,0.7,1.1,0.7c0.5,0,0.8-0.2,1.1-0.7c0.3-0.4,0.5-1.3,0.5-2.6c0-1.3-0.2-2.2-0.5-2.6
	c-0.3-0.4-0.7-0.7-1.2-0.7c-0.4,0-0.8,0.2-1.1,0.6C44,293.7,43.9,294.6,43.9,295.9z M49.4,295.9c0-1,0.1-1.7,0.3-2.3
	c0.2-0.6,0.5-1,0.9-1.3c0.4-0.3,0.9-0.5,1.5-0.5c0.4,0,0.8,0.1,1.1,0.3c0.3,0.2,0.6,0.4,0.8,0.8c0.2,0.3,0.4,0.7,0.5,1.2
	s0.2,1.1,0.2,1.9c0,0.9-0.1,1.7-0.3,2.3c-0.2,0.6-0.5,1-0.9,1.3c-0.4,0.3-0.9,0.5-1.5,0.5c-0.8,0-1.4-0.3-1.8-0.8
	C49.7,298.5,49.4,297.4,49.4,295.9z M50.4,295.9c0,1.3,0.2,2.2,0.5,2.6c0.3,0.4,0.7,0.7,1.1,0.7c0.5,0,0.8-0.2,1.1-0.7
	c0.3-0.4,0.5-1.3,0.5-2.6c0-1.3-0.2-2.2-0.5-2.6c-0.3-0.4-0.7-0.7-1.2-0.7c-0.4,0-0.8,0.2-1.1,0.6C50.6,293.7,50.4,294.6,50.4,295.9
	z M55.9,295.9c0-1,0.1-1.7,0.3-2.3c0.2-0.6,0.5-1,0.9-1.3c0.4-0.3,0.9-0.5,1.5-0.5c0.4,0,0.8,0.1,1.1,0.3c0.3,0.2,0.6,0.4,0.8,0.8
	c0.2,0.3,0.4,0.7,0.5,1.2c0.1,0.5,0.2,1.1,0.2,1.9c0,0.9-0.1,1.7-0.3,2.3c-0.2,0.6-0.5,1-0.9,1.3c-0.4,0.3-0.9,0.5-1.5,0.5
	c-0.8,0-1.4-0.3-1.8-0.8C56.2,298.5,55.9,297.4,55.9,295.9z M56.9,295.9c0,1.3,0.2,2.2,0.5,2.6c0.3,0.4,0.7,0.7,1.1,0.7
	c0.5,0,0.8-0.2,1.1-0.7c0.3-0.4,0.5-1.3,0.5-2.6c0-1.3-0.2-2.2-0.5-2.6c-0.3-0.4-0.7-0.7-1.2-0.7c-0.4,0-0.8,0.2-1.1,0.6
	C57.1,293.7,56.9,294.6,56.9,295.9z"/>
<path d="M33.5,233.5h-1v-6.3c-0.2,0.2-0.6,0.5-0.9,0.7c-0.4,0.2-0.7,0.4-1,0.5v-0.9c0.5-0.3,1-0.6,1.4-0.9c0.4-0.4,0.7-0.7,0.9-1.1
	h0.6V233.5z M36.3,231.4l1-0.1c0.1,0.5,0.3,0.9,0.5,1.1c0.3,0.3,0.6,0.4,1,0.4c0.5,0,0.9-0.2,1.2-0.5c0.3-0.4,0.5-0.8,0.5-1.4
	c0-0.6-0.2-1-0.5-1.3c-0.3-0.3-0.7-0.5-1.2-0.5c-0.3,0-0.6,0.1-0.9,0.2c-0.3,0.1-0.5,0.3-0.6,0.6l-0.9-0.1l0.8-4.1h4v0.9h-3.2
	l-0.4,2.2c0.5-0.3,1-0.5,1.5-0.5c0.7,0,1.3,0.2,1.8,0.7c0.5,0.5,0.7,1.1,0.7,1.9c0,0.7-0.2,1.3-0.6,1.9c-0.5,0.6-1.2,1-2.1,1
	c-0.7,0-1.3-0.2-1.8-0.6C36.7,232.6,36.4,232.1,36.3,231.4z M42.9,229.5c0-1,0.1-1.7,0.3-2.3c0.2-0.6,0.5-1,0.9-1.3
	c0.4-0.3,0.9-0.5,1.5-0.5c0.4,0,0.8,0.1,1.1,0.3c0.3,0.2,0.6,0.4,0.8,0.8c0.2,0.3,0.4,0.7,0.5,1.2c0.1,0.5,0.2,1.1,0.2,1.9
	c0,0.9-0.1,1.7-0.3,2.3c-0.2,0.6-0.5,1-0.9,1.3c-0.4,0.3-0.9,0.5-1.5,0.5c-0.8,0-1.4-0.3-1.8-0.8C43.1,232.1,42.9,231,42.9,229.5z
	 M43.9,229.5c0,1.3,0.2,2.2,0.5,2.6c0.3,0.4,0.7,0.7,1.1,0.7c0.5,0,0.8-0.2,1.1-0.7c0.3-0.4,0.5-1.3,0.5-2.6c0-1.3-0.2-2.2-0.5-2.6
	c-0.3-0.4-0.7-0.7-1.2-0.7c-0.4,0-0.8,0.2-1.1,0.6C44,227.3,43.9,228.2,43.9,229.5z M49.4,229.5c0-1,0.1-1.7,0.3-2.3
	c0.2-0.6,0.5-1,0.9-1.3c0.4-0.3,0.9-0.5,1.5-0.5c0.4,0,0.8,0.1,1.1,0.3c0.3,0.2,0.6,0.4,0.8,0.8c0.2,0.3,0.4,0.7,0.5,1.2
	c0.1,0.5,0.2,1.1,0.2,1.9c0,0.9-0.1,1.7-0.3,2.3c-0.2,0.6-0.5,1-0.9,1.3c-0.4,0.3-0.9,0.5-1.5,0.5c-0.8,0-1.4-0.3-1.8-0.8
	C49.7,232.1,49.4,231,49.4,229.5z M50.4,229.5c0,1.3,0.2,2.2,0.5,2.6c0.3,0.4,0.7,0.7,1.1,0.7c0.5,0,0.8-0.2,1.1-0.7
	c0.3-0.4,0.5-1.3,0.5-2.6c0-1.3-0.2-2.2-0.5-2.6c-0.3-0.4-0.7-0.7-1.2-0.7c-0.4,0-0.8,0.2-1.1,0.6C50.6,227.3,50.4,228.2,50.4,229.5
	z M55.9,229.5c0-1,0.1-1.7,0.3-2.3c0.2-0.6,0.5-1,0.9-1.3c0.4-0.3,0.9-0.5,1.5-0.5c0.4,0,0.8,0.1,1.1,0.3c0.3,0.2,0.6,0.4,0.8,0.8
	c0.2,0.3,0.4,0.7,0.5,1.2c0.1,0.5,0.2,1.1,0.2,1.9c0,0.9-0.1,1.7-0.3,2.3c-0.2,0.6-0.5,1-0.9,1.3c-0.4,0.3-0.9,0.5-1.5,0.5
	c-0.8,0-1.4-0.3-1.8-0.8C56.2,232.1,55.9,231,55.9,229.5z M56.9,229.5c0,1.3,0.2,2.2,0.5,2.6c0.3,0.4,0.7,0.7,1.1,0.7
	c0.5,0,0.8-0.2,1.1-0.7c0.3-0.4,0.5-1.3,0.5-2.6c0-1.3-0.2-2.2-0.5-2.6c-0.3-0.4-0.7-0.7-1.2-0.7c-0.4,0-0.8,0.2-1.1,0.6
	C57.1,227.3,56.9,228.2,56.9,229.5z"/>
<path d="M35,166.2v0.9h-5.3c0-0.2,0-0.5,0.1-0.7c0.1-0.4,0.3-0.7,0.6-1.1c0.3-0.3,0.7-0.8,1.3-1.2c0.9-0.7,1.5-1.3,1.8-1.7
	c0.3-0.4,0.5-0.8,0.5-1.2c0-0.4-0.1-0.7-0.4-1c-0.3-0.3-0.6-0.4-1.1-0.4c-0.5,0-0.9,0.1-1.1,0.4c-0.3,0.3-0.4,0.7-0.4,1.2l-1-0.1
	c0.1-0.8,0.3-1.3,0.8-1.7c0.5-0.4,1.1-0.6,1.8-0.6c0.8,0,1.4,0.2,1.8,0.6s0.7,1,0.7,1.6c0,0.3-0.1,0.6-0.2,0.9
	c-0.1,0.3-0.3,0.6-0.7,1c-0.3,0.3-0.8,0.8-1.5,1.4c-0.6,0.5-1,0.8-1.2,1c-0.2,0.2-0.3,0.3-0.4,0.5H35z M36.3,163.2
	c0-1,0.1-1.7,0.3-2.3c0.2-0.6,0.5-1,0.9-1.3c0.4-0.3,0.9-0.5,1.5-0.5c0.4,0,0.8,0.1,1.1,0.3c0.3,0.2,0.6,0.4,0.8,0.8
	c0.2,0.3,0.4,0.7,0.5,1.2c0.1,0.5,0.2,1.1,0.2,1.9c0,0.9-0.1,1.7-0.3,2.3c-0.2,0.6-0.5,1-0.9,1.3c-0.4,0.3-0.9,0.5-1.5,0.5
	c-0.8,0-1.4-0.3-1.8-0.8C36.6,165.8,36.3,164.7,36.3,163.2z M37.3,163.2c0,1.3,0.2,2.2,0.5,2.6c0.3,0.4,0.7,0.7,1.1,0.7
	c0.5,0,0.8-0.2,1.1-0.7c0.3-0.4,0.5-1.3,0.5-2.6c0-1.3-0.2-2.2-0.5-2.6c-0.3-0.4-0.7-0.7-1.2-0.7c-0.4,0-0.8,0.2-1.1,0.6
	C37.5,160.9,37.3,161.8,37.3,163.2z M42.9,163.2c0-1,0.1-1.7,0.3-2.3c0.2-0.6,0.5-1,0.9-1.3c0.4-0.3,0.9-0.5,1.5-0.5
	c0.4,0,0.8,0.1,1.1,0.3c0.3,0.2,0.6,0.4,0.8,0.8c0.2,0.3,0.4,0.7,0.5,1.2c0.1,0.5,0.2,1.1,0.2,1.9c0,0.9-0.1,1.7-0.3,2.3
	c-0.2,0.6-0.5,1-0.9,1.3c-0.4,0.3-0.9,0.5-1.5,0.5c-0.8,0-1.4-0.3-1.8-0.8C43.1,165.8,42.9,164.7,42.9,163.2z M43.9,163.2
	c0,1.3,0.2,2.2,0.5,2.6c0.3,0.4,0.7,0.7,1.1,0.7c0.5,0,0.8-0.2,1.1-0.7c0.3-0.4,0.5-1.3,0.5-2.6c0-1.3-0.2-2.2-0.5-2.6
	c-0.3-0.4-0.7-0.7-1.2-0.7c-0.4,0-0.8,0.2-1.1,0.6C44,160.9,43.9,161.8,43.9,163.2z M49.4,163.2c0-1,0.1-1.7,0.3-2.3
	c0.2-0.6,0.5-1,0.9-1.3c0.4-0.3,0.9-0.5,1.5-0.5c0.4,0,0.8,0.1,1.1,0.3c0.3,0.2,0.6,0.4,0.8,0.8c0.2,0.3,0.4,0.7,0.5,1.2
	c0.1,0.5,0.2,1.1,0.2,1.9c0,0.9-0.1,1.7-0.3,2.3c-0.2,0.6-0.5,1-0.9,1.3c-0.4,0.3-0.9,0.5-1.5,0.5c-0.8,0-1.4-0.3-1.8-0.8
	C49.7,165.8,49.4,164.7,49.4,163.2z M50.4,163.2c0,1.3,0.2,2.2,0.5,2.6c0.3,0.4,0.7,0.7,1.1,0.7c0.5,0,0.8-0.2,1.1-0.7
	c0.3-0.4,0.5-1.3,0.5-2.6c0-1.3-0.2-2.2-0.5-2.6c-0.3-0.4-0.7-0.7-1.2-0.7c-0.4,0-0.8,0.2-1.1,0.6C50.6,160.9,50.4,161.8,50.4,163.2
	z M55.9,163.2c0-1,0.1-1.7,0.3-2.3c0.2-0.6,0.5-1,0.9-1.3c0.4-0.3,0.9-0.5,1.5-0.5c0.4,0,0.8,0.1,1.1,0.3c0.3,0.2,0.6,0.4,0.8,0.8
	c0.2,0.3,0.4,0.7,0.5,1.2c0.1,0.5,0.2,1.1,0.2,1.9c0,0.9-0.1,1.7-0.3,2.3c-0.2,0.6-0.5,1-0.9,1.3c-0.4,0.3-0.9,0.5-1.5,0.5
	c-0.8,0-1.4-0.3-1.8-0.8C56.2,165.8,55.9,164.7,55.9,163.2z M56.9,163.2c0,1.3,0.2,2.2,0.5,2.6c0.3,0.4,0.7,0.7,1.1,0.7
	c0.5,0,0.8-0.2,1.1-0.7c0.3-0.4,0.5-1.3,0.5-2.6c0-1.3-0.2-2.2-0.5-2.6c-0.3-0.4-0.7-0.7-1.2-0.7c-0.4,0-0.8,0.2-1.1,0.6
	C57.1,160.9,56.9,161.8,56.9,163.2z"/>
<path d="M35,99.8v0.9h-5.3c0-0.2,0-0.5,0.1-0.7c0.1-0.4,0.3-0.7,0.6-1.1c0.3-0.3,0.7-0.8,1.3-1.2c0.9-0.7,1.5-1.3,1.8-1.7
	c0.3-0.4,0.5-0.8,0.5-1.2c0-0.4-0.1-0.7-0.4-1c-0.3-0.3-0.6-0.4-1.1-0.4c-0.5,0-0.9,0.1-1.1,0.4c-0.3,0.3-0.4,0.7-0.4,1.2l-1-0.1
	c0.1-0.8,0.3-1.3,0.8-1.7c0.5-0.4,1.1-0.6,1.8-0.6c0.8,0,1.4,0.2,1.8,0.6s0.7,1,0.7,1.6c0,0.3-0.1,0.6-0.2,0.9
	c-0.1,0.3-0.3,0.6-0.7,1c-0.3,0.3-0.8,0.8-1.5,1.4c-0.6,0.5-1,0.8-1.2,1c-0.2,0.2-0.3,0.3-0.4,0.5H35z M36.3,98.7l1-0.1
	c0.1,0.5,0.3,0.9,0.5,1.1c0.3,0.3,0.6,0.4,1,0.4c0.5,0,0.9-0.2,1.2-0.5c0.3-0.4,0.5-0.8,0.5-1.4c0-0.6-0.2-1-0.5-1.3
	c-0.3-0.3-0.7-0.5-1.2-0.5c-0.3,0-0.6,0.1-0.9,0.2c-0.3,0.1-0.5,0.3-0.6,0.6L36.5,97l0.8-4.1h4v0.9h-3.2l-0.4,2.2
	c0.5-0.3,1-0.5,1.5-0.5c0.7,0,1.3,0.2,1.8,0.7c0.5,0.5,0.7,1.1,0.7,1.9c0,0.7-0.2,1.3-0.6,1.9c-0.5,0.6-1.2,1-2.1,1
	c-0.7,0-1.3-0.2-1.8-0.6C36.7,99.9,36.4,99.3,36.3,98.7z M42.9,96.8c0-1,0.1-1.7,0.3-2.3c0.2-0.6,0.5-1,0.9-1.3
	c0.4-0.3,0.9-0.5,1.5-0.5c0.4,0,0.8,0.1,1.1,0.3c0.3,0.2,0.6,0.4,0.8,0.8c0.2,0.3,0.4,0.7,0.5,1.2s0.2,1.1,0.2,1.9
	c0,0.9-0.1,1.7-0.3,2.3c-0.2,0.6-0.5,1-0.9,1.3c-0.4,0.3-0.9,0.5-1.5,0.5c-0.8,0-1.4-0.3-1.8-0.8C43.1,99.4,42.9,98.3,42.9,96.8z
	 M43.9,96.8c0,1.3,0.2,2.2,0.5,2.6c0.3,0.4,0.7,0.7,1.1,0.7c0.5,0,0.8-0.2,1.1-0.7c0.3-0.4,0.5-1.3,0.5-2.6c0-1.3-0.2-2.2-0.5-2.6
	c-0.3-0.4-0.7-0.7-1.2-0.7c-0.4,0-0.8,0.2-1.1,0.6C44,94.6,43.9,95.5,43.9,96.8z M49.4,96.8c0-1,0.1-1.7,0.3-2.3
	c0.2-0.6,0.5-1,0.9-1.3c0.4-0.3,0.9-0.5,1.5-0.5c0.4,0,0.8,0.1,1.1,0.3c0.3,0.2,0.6,0.4,0.8,0.8c0.2,0.3,0.4,0.7,0.5,1.2
	s0.2,1.1,0.2,1.9c0,0.9-0.1,1.7-0.3,2.3c-0.2,0.6-0.5,1-0.9,1.3c-0.4,0.3-0.9,0.5-1.5,0.5c-0.8,0-1.4-0.3-1.8-0.8
	C49.7,99.4,49.4,98.3,49.4,96.8z M50.4,96.8c0,1.3,0.2,2.2,0.5,2.6c0.3,0.4,0.7,0.7,1.1,0.7c0.5,0,0.8-0.2,1.1-0.7
	c0.3-0.4,0.5-1.3,0.5-2.6c0-1.3-0.2-2.2-0.5-2.6c-0.3-0.4-0.7-0.7-1.2-0.7c-0.4,0-0.8,0.2-1.1,0.6C50.6,94.6,50.4,95.5,50.4,96.8z
	 M55.9,96.8c0-1,0.1-1.7,0.3-2.3c0.2-0.6,0.5-1,0.9-1.3c0.4-0.3,0.9-0.5,1.5-0.5c0.4,0,0.8,0.1,1.1,0.3c0.3,0.2,0.6,0.4,0.8,0.8
	c0.2,0.3,0.4,0.7,0.5,1.2c0.1,0.5,0.2,1.1,0.2,1.9c0,0.9-0.1,1.7-0.3,2.3c-0.2,0.6-0.5,1-0.9,1.3c-0.4,0.3-0.9,0.5-1.5,0.5
	c-0.8,0-1.4-0.3-1.8-0.8C56.2,99.4,55.9,98.3,55.9,96.8z M56.9,96.8c0,1.3,0.2,2.2,0.5,2.6c0.3,0.4,0.7,0.7,1.1,0.7
	c0.5,0,0.8-0.2,1.1-0.7c0.3-0.4,0.5-1.3,0.5-2.6c0-1.3-0.2-2.2-0.5-2.6c-0.3-0.4-0.7-0.7-1.2-0.7c-0.4,0-0.8,0.2-1.1,0.6
	C57.1,94.6,56.9,95.5,56.9,96.8z"/>
<path d="M117.6,444.7h-1v-6.3c-0.2,0.2-0.6,0.5-0.9,0.7c-0.4,0.2-0.7,0.4-1,0.5v-0.9c0.5-0.3,1-0.6,1.4-0.9c0.4-0.4,0.7-0.7,0.9-1.1
	h0.6V444.7z M120.6,442.8l0.9-0.1c0.1,0.4,0.2,0.8,0.5,1c0.2,0.2,0.5,0.3,0.9,0.3c0.3,0,0.6-0.1,0.8-0.2c0.2-0.1,0.4-0.3,0.6-0.6
	c0.1-0.2,0.3-0.5,0.4-0.9c0.1-0.4,0.1-0.8,0.1-1.2c0,0,0-0.1,0-0.2c-0.2,0.3-0.5,0.6-0.8,0.8c-0.3,0.2-0.7,0.3-1.1,0.3
	c-0.7,0-1.2-0.2-1.7-0.7c-0.5-0.5-0.7-1.1-0.7-1.9c0-0.8,0.2-1.5,0.7-2c0.5-0.5,1.1-0.7,1.8-0.7c0.5,0,1,0.1,1.4,0.4
	c0.4,0.3,0.8,0.7,1,1.2c0.2,0.5,0.3,1.3,0.3,2.2c0,1-0.1,1.8-0.3,2.4c-0.2,0.6-0.5,1.1-1,1.4c-0.4,0.3-0.9,0.5-1.5,0.5
	c-0.6,0-1.1-0.2-1.5-0.5C120.9,444,120.7,443.5,120.6,442.8z M124.6,439.3c0-0.6-0.2-1-0.5-1.3c-0.3-0.3-0.7-0.5-1.1-0.5
	c-0.4,0-0.8,0.2-1.2,0.5c-0.3,0.4-0.5,0.8-0.5,1.4c0,0.5,0.2,0.9,0.5,1.2c0.3,0.3,0.7,0.5,1.1,0.5c0.5,0,0.8-0.2,1.1-0.5
	C124.5,440.3,124.6,439.9,124.6,439.3z M132.1,438.6l-1,0.1c-0.1-0.4-0.2-0.7-0.4-0.8c-0.3-0.3-0.6-0.4-1-0.4
	c-0.3,0-0.6,0.1-0.8,0.3c-0.3,0.2-0.5,0.6-0.7,1c-0.2,0.4-0.3,1-0.3,1.8c0.2-0.4,0.5-0.6,0.9-0.8c0.3-0.2,0.7-0.3,1.1-0.3
	c0.7,0,1.2,0.2,1.7,0.7c0.5,0.5,0.7,1.1,0.7,1.9c0,0.5-0.1,1-0.3,1.4c-0.2,0.4-0.5,0.8-0.9,1c-0.4,0.2-0.8,0.3-1.3,0.3
	c-0.8,0-1.5-0.3-2-0.9c-0.5-0.6-0.8-1.6-0.8-3c0-1.6,0.3-2.7,0.9-3.4c0.5-0.6,1.2-0.9,2-0.9c0.6,0,1.1,0.2,1.5,0.5
	C131.8,437.5,132,438,132.1,438.6z M128.1,442.1c0,0.3,0.1,0.7,0.2,1c0.1,0.3,0.3,0.5,0.6,0.7c0.3,0.2,0.5,0.2,0.8,0.2
	c0.4,0,0.8-0.2,1.1-0.5c0.3-0.3,0.5-0.8,0.5-1.4c0-0.6-0.2-1-0.5-1.3c-0.3-0.3-0.7-0.5-1.1-0.5c-0.4,0-0.8,0.2-1.1,0.5
	C128.2,441.2,128.1,441.6,128.1,442.1z M133.5,440.7c0-1,0.1-1.7,0.3-2.3c0.2-0.6,0.5-1,0.9-1.3c0.4-0.3,0.9-0.5,1.5-0.5
	c0.4,0,0.8,0.1,1.1,0.3c0.3,0.2,0.6,0.4,0.8,0.8c0.2,0.3,0.4,0.7,0.5,1.2c0.1,0.5,0.2,1.1,0.2,1.9c0,0.9-0.1,1.7-0.3,2.3
	c-0.2,0.6-0.5,1-0.9,1.3c-0.4,0.3-0.9,0.5-1.5,0.5c-0.8,0-1.4-0.3-1.8-0.8C133.8,443.3,133.5,442.3,133.5,440.7z M134.5,440.7
	c0,1.3,0.2,2.2,0.5,2.6c0.3,0.4,0.7,0.7,1.1,0.7c0.5,0,0.8-0.2,1.1-0.7c0.3-0.4,0.5-1.3,0.5-2.6c0-1.3-0.2-2.2-0.5-2.6
	c-0.3-0.4-0.7-0.7-1.2-0.7c-0.4,0-0.8,0.2-1.1,0.6C134.7,438.5,134.5,439.4,134.5,440.7z"/>
<path d="M314,444.7h-1v-6.3c-0.2,0.2-0.6,0.5-0.9,0.7c-0.4,0.2-0.7,0.4-1,0.5v-0.9c0.5-0.3,1-0.6,1.4-0.9c0.4-0.4,0.7-0.7,0.9-1.1
	h0.6V444.7z M317,442.8l0.9-0.1c0.1,0.4,0.2,0.8,0.5,1c0.2,0.2,0.5,0.3,0.9,0.3c0.3,0,0.6-0.1,0.8-0.2c0.2-0.1,0.4-0.3,0.6-0.6
	c0.1-0.2,0.3-0.5,0.4-0.9c0.1-0.4,0.1-0.8,0.1-1.2c0,0,0-0.1,0-0.2c-0.2,0.3-0.5,0.6-0.8,0.8c-0.3,0.2-0.7,0.3-1.1,0.3
	c-0.7,0-1.2-0.2-1.7-0.7c-0.5-0.5-0.7-1.1-0.7-1.9c0-0.8,0.2-1.5,0.7-2c0.5-0.5,1.1-0.7,1.8-0.7c0.5,0,1,0.1,1.4,0.4
	c0.4,0.3,0.8,0.7,1,1.2c0.2,0.5,0.3,1.3,0.3,2.2c0,1-0.1,1.8-0.3,2.4c-0.2,0.6-0.5,1.1-1,1.4c-0.4,0.3-0.9,0.5-1.5,0.5
	c-0.6,0-1.1-0.2-1.5-0.5C317.3,444,317,443.5,317,442.8z M321,439.3c0-0.6-0.2-1-0.5-1.3c-0.3-0.3-0.7-0.5-1.1-0.5
	c-0.4,0-0.8,0.2-1.2,0.5c-0.3,0.4-0.5,0.8-0.5,1.4c0,0.5,0.2,0.9,0.5,1.2c0.3,0.3,0.7,0.5,1.1,0.5c0.5,0,0.8-0.2,1.1-0.5
	C320.8,440.3,321,439.9,321,439.3z M324.9,440.4c-0.4-0.2-0.7-0.4-0.9-0.6c-0.2-0.3-0.3-0.6-0.3-1c0-0.6,0.2-1.1,0.6-1.5
	c0.4-0.4,1-0.6,1.7-0.6c0.7,0,1.3,0.2,1.7,0.6c0.4,0.4,0.6,0.9,0.6,1.5c0,0.4-0.1,0.7-0.3,1c-0.2,0.3-0.5,0.5-0.9,0.6
	c0.5,0.2,0.9,0.4,1.1,0.8c0.3,0.4,0.4,0.8,0.4,1.3c0,0.7-0.2,1.3-0.7,1.7c-0.5,0.5-1.1,0.7-1.9,0.7c-0.8,0-1.4-0.2-1.9-0.7
	c-0.5-0.5-0.7-1-0.7-1.7c0-0.5,0.1-1,0.4-1.3C324,440.7,324.4,440.5,324.9,440.4z M324.7,438.7c0,0.4,0.1,0.7,0.4,0.9
	c0.3,0.2,0.6,0.4,1,0.4c0.4,0,0.7-0.1,0.9-0.4c0.2-0.2,0.4-0.5,0.4-0.9c0-0.4-0.1-0.7-0.4-0.9c-0.3-0.3-0.6-0.4-0.9-0.4
	c-0.4,0-0.7,0.1-0.9,0.4C324.8,438.1,324.7,438.3,324.7,438.7z M324.4,442.4c0,0.3,0.1,0.6,0.2,0.8c0.1,0.3,0.3,0.5,0.6,0.6
	c0.3,0.1,0.5,0.2,0.8,0.2c0.5,0,0.9-0.2,1.2-0.5c0.3-0.3,0.5-0.7,0.5-1.2c0-0.5-0.2-0.9-0.5-1.2c-0.3-0.3-0.7-0.5-1.2-0.5
	c-0.5,0-0.9,0.2-1.2,0.5C324.5,441.5,324.4,441.9,324.4,442.4z M329.9,440.7c0-1,0.1-1.7,0.3-2.3c0.2-0.6,0.5-1,0.9-1.3
	c0.4-0.3,0.9-0.5,1.5-0.5c0.4,0,0.8,0.1,1.1,0.3c0.3,0.2,0.6,0.4,0.8,0.8c0.2,0.3,0.4,0.7,0.5,1.2c0.1,0.5,0.2,1.1,0.2,1.9
	c0,0.9-0.1,1.7-0.3,2.3c-0.2,0.6-0.5,1-0.9,1.3c-0.4,0.3-0.9,0.5-1.5,0.5c-0.8,0-1.4-0.3-1.8-0.8
	C330.1,443.3,329.9,442.3,329.9,440.7z M330.9,440.7c0,1.3,0.2,2.2,0.5,2.6c0.3,0.4,0.7,0.7,1.1,0.7c0.5,0,0.8-0.2,1.1-0.7
	c0.3-0.4,0.5-1.3,0.5-2.6c0-1.3-0.2-2.2-0.5-2.6c-0.3-0.4-0.7-0.7-1.2-0.7c-0.4,0-0.8,0.2-1.1,0.6
	C331.1,438.5,330.9,439.4,330.9,440.7z"/>
<path d="M511.8,443.8v0.9h-5.3c0-0.2,0-0.5,0.1-0.7c0.1-0.4,0.3-0.7,0.6-1.1c0.3-0.3,0.7-0.8,1.3-1.2c0.9-0.7,1.5-1.3,1.8-1.7
	c0.3-0.4,0.5-0.8,0.5-1.2c0-0.4-0.1-0.7-0.4-1c-0.3-0.3-0.6-0.4-1.1-0.4c-0.5,0-0.9,0.1-1.1,0.4s-0.4,0.7-0.4,1.2l-1-0.1
	c0.1-0.8,0.3-1.3,0.8-1.7c0.5-0.4,1.1-0.6,1.8-0.6c0.8,0,1.4,0.2,1.8,0.6c0.4,0.4,0.7,1,0.7,1.6c0,0.3-0.1,0.6-0.2,0.9
	c-0.1,0.3-0.3,0.6-0.7,1c-0.3,0.3-0.8,0.8-1.5,1.4c-0.6,0.5-1,0.8-1.2,1c-0.2,0.2-0.3,0.4-0.4,0.5H511.8z M513.2,440.7
	c0-1,0.1-1.7,0.3-2.3c0.2-0.6,0.5-1,0.9-1.3c0.4-0.3,0.9-0.5,1.5-0.5c0.4,0,0.8,0.1,1.1,0.3c0.3,0.2,0.6,0.4,0.8,0.8
	c0.2,0.3,0.4,0.7,0.5,1.2c0.1,0.5,0.2,1.1,0.2,1.9c0,0.9-0.1,1.7-0.3,2.3c-0.2,0.6-0.5,1-0.9,1.3c-0.4,0.3-0.9,0.5-1.5,0.5
	c-0.8,0-1.4-0.3-1.8-0.8C513.5,443.3,513.2,442.3,513.2,440.7z M514.2,440.7c0,1.3,0.2,2.2,0.5,2.6c0.3,0.4,0.7,0.7,1.1,0.7
	c0.5,0,0.8-0.2,1.1-0.7c0.3-0.4,0.5-1.3,0.5-2.6c0-1.3-0.2-2.2-0.5-2.6c-0.3-0.4-0.7-0.7-1.2-0.7c-0.4,0-0.8,0.2-1.1,0.6
	C514.4,438.5,514.2,439.4,514.2,440.7z M519.7,440.7c0-1,0.1-1.7,0.3-2.3c0.2-0.6,0.5-1,0.9-1.3c0.4-0.3,0.9-0.5,1.5-0.5
	c0.4,0,0.8,0.1,1.1,0.3c0.3,0.2,0.6,0.4,0.8,0.8c0.2,0.3,0.4,0.7,0.5,1.2c0.1,0.5,0.2,1.1,0.2,1.9c0,0.9-0.1,1.7-0.3,2.3
	c-0.2,0.6-0.5,1-0.9,1.3c-0.4,0.3-0.9,0.5-1.5,0.5c-0.8,0-1.4-0.3-1.8-0.8C520,443.3,519.7,442.3,519.7,440.7z M520.7,440.7
	c0,1.3,0.2,2.2,0.5,2.6c0.3,0.4,0.7,0.7,1.1,0.7c0.5,0,0.8-0.2,1.1-0.7c0.3-0.4,0.5-1.3,0.5-2.6c0-1.3-0.2-2.2-0.5-2.6
	c-0.3-0.4-0.7-0.7-1.2-0.7c-0.4,0-0.8,0.2-1.1,0.6C520.9,438.5,520.7,439.4,520.7,440.7z M526.3,440.7c0-1,0.1-1.7,0.3-2.3
	c0.2-0.6,0.5-1,0.9-1.3c0.4-0.3,0.9-0.5,1.5-0.5c0.4,0,0.8,0.1,1.1,0.3c0.3,0.2,0.6,0.4,0.8,0.8c0.2,0.3,0.4,0.7,0.5,1.2
	c0.1,0.5,0.2,1.1,0.2,1.9c0,0.9-0.1,1.7-0.3,2.3c-0.2,0.6-0.5,1-0.9,1.3c-0.4,0.3-0.9,0.5-1.5,0.5c-0.8,0-1.4-0.3-1.8-0.8
	C526.5,443.3,526.3,442.3,526.3,440.7z M527.3,440.7c0,1.3,0.2,2.2,0.5,2.6c0.3,0.4,0.7,0.7,1.1,0.7c0.5,0,0.8-0.2,1.1-0.7
	c0.3-0.4,0.5-1.3,0.5-2.6c0-1.3-0.2-2.2-0.5-2.6c-0.3-0.4-0.7-0.7-1.2-0.7c-0.4,0-0.8,0.2-1.1,0.6
	C527.4,438.5,527.3,439.4,527.3,440.7z"/>
<path d="M708.2,443.8v0.9h-5.3c0-0.2,0-0.5,0.1-0.7c0.1-0.4,0.3-0.7,0.6-1.1c0.3-0.3,0.7-0.8,1.3-1.2c0.9-0.7,1.5-1.3,1.8-1.7
	c0.3-0.4,0.5-0.8,0.5-1.2c0-0.4-0.1-0.7-0.4-1c-0.3-0.3-0.6-0.4-1.1-0.4c-0.5,0-0.9,0.1-1.1,0.4s-0.4,0.7-0.4,1.2l-1-0.1
	c0.1-0.8,0.3-1.3,0.8-1.7c0.5-0.4,1.1-0.6,1.8-0.6c0.8,0,1.4,0.2,1.8,0.6c0.4,0.4,0.7,1,0.7,1.6c0,0.3-0.1,0.6-0.2,0.9
	c-0.1,0.3-0.3,0.6-0.7,1c-0.3,0.3-0.8,0.8-1.5,1.4c-0.6,0.5-1,0.8-1.2,1c-0.2,0.2-0.3,0.4-0.4,0.5H708.2z M709.6,440.7
	c0-1,0.1-1.7,0.3-2.3c0.2-0.6,0.5-1,0.9-1.3c0.4-0.3,0.9-0.5,1.5-0.5c0.4,0,0.8,0.1,1.1,0.3c0.3,0.2,0.6,0.4,0.8,0.8
	c0.2,0.3,0.4,0.7,0.5,1.2c0.1,0.5,0.2,1.1,0.2,1.9c0,0.9-0.1,1.7-0.3,2.3c-0.2,0.6-0.5,1-0.9,1.3c-0.4,0.3-0.9,0.5-1.5,0.5
	c-0.8,0-1.4-0.3-1.8-0.8C709.9,443.3,709.6,442.3,709.6,440.7z M710.6,440.7c0,1.3,0.2,2.2,0.5,2.6c0.3,0.4,0.7,0.7,1.1,0.7
	c0.5,0,0.8-0.2,1.1-0.7c0.3-0.4,0.5-1.3,0.5-2.6c0-1.3-0.2-2.2-0.5-2.6c-0.3-0.4-0.7-0.7-1.2-0.7c-0.4,0-0.8,0.2-1.1,0.6
	C710.8,438.5,710.6,439.4,710.6,440.7z M721.3,443.8v0.9H716c0-0.2,0-0.5,0.1-0.7c0.1-0.4,0.3-0.7,0.6-1.1c0.3-0.3,0.7-0.8,1.3-1.2
	c0.9-0.7,1.5-1.3,1.8-1.7c0.3-0.4,0.5-0.8,0.5-1.2c0-0.4-0.1-0.7-0.4-1c-0.3-0.3-0.6-0.4-1.1-0.4c-0.5,0-0.9,0.1-1.1,0.4
	s-0.4,0.7-0.4,1.2l-1-0.1c0.1-0.8,0.3-1.3,0.8-1.7c0.5-0.4,1.1-0.6,1.8-0.6c0.8,0,1.4,0.2,1.8,0.6c0.4,0.4,0.7,1,0.7,1.6
	c0,0.3-0.1,0.6-0.2,0.9c-0.1,0.3-0.3,0.6-0.7,1c-0.3,0.3-0.8,0.8-1.5,1.4c-0.6,0.5-1,0.8-1.2,1c-0.2,0.2-0.3,0.4-0.4,0.5H721.3z
	 M722.7,440.7c0-1,0.1-1.7,0.3-2.3c0.2-0.6,0.5-1,0.9-1.3c0.4-0.3,0.9-0.5,1.5-0.5c0.4,0,0.8,0.1,1.1,0.3c0.3,0.2,0.6,0.4,0.8,0.8
	c0.2,0.3,0.4,0.7,0.5,1.2c0.1,0.5,0.2,1.1,0.2,1.9c0,0.9-0.1,1.7-0.3,2.3c-0.2,0.6-0.5,1-0.9,1.3c-0.4,0.3-0.9,0.5-1.5,0.5
	c-0.8,0-1.4-0.3-1.8-0.8C722.9,443.3,722.7,442.3,722.7,440.7z M723.7,440.7c0,1.3,0.2,2.2,0.5,2.6c0.3,0.4,0.7,0.7,1.1,0.7
	c0.5,0,0.8-0.2,1.1-0.7c0.3-0.4,0.5-1.3,0.5-2.6c0-1.3-0.2-2.2-0.5-2.6c-0.3-0.4-0.7-0.7-1.2-0.7c-0.4,0-0.8,0.2-1.1,0.6
	C723.8,438.5,723.7,439.4,723.7,440.7z"/>
<text transform="matrix(1 0 0 1 30.5923 75.1899)" class="st60 st61">Seouls Forest Area Change Over Time, in hectare.</text>
<g>
	<g>
		<path d="M36.2,25.6l-1.1,3.1h-2.9l4.6-13.5h3.7l4.8,13.5h-3.1l-1.1-3.1H36.2z M40.5,23.2c-1-2.9-1.6-4.7-1.9-5.9h0
			c-0.3,1.3-1,3.5-1.8,5.9H40.5z"/>
		<path d="M47.1,28.7v-8h-1.5v-2.1h1.5v-0.9c0-2.1,1-3.5,3.2-3.5c0.5,0,1.1,0,1.3,0.1v2.2c-0.2,0-0.4,0-0.6,0
			c-0.8,0-1.1,0.3-1.1,1.4v0.7h1.8v2.1H50v8H47.1z"/>
		<path d="M52.2,18.6h1.6v-2.7h2.8v2.7h2v2.1h-2v5c0,0.8,0.2,1.1,1.1,1.1c0.2,0,0.4,0,0.6,0v1.9c-0.6,0.2-1.3,0.2-1.9,0.2
			c-2,0-2.6-1.1-2.6-2.8v-5.3h-1.6V18.6z"/>
		<path d="M62.6,24.3c0,1.3,0.6,2.5,2,2.5c1.2,0,1.5-0.5,1.8-1.1h2.8c-0.4,1.2-1.5,3.3-4.7,3.3c-3.3,0-4.8-2.5-4.8-5.2
			c0-3.2,1.6-5.5,4.9-5.5c3.5,0,4.7,2.5,4.7,5.1c0,0.3,0,0.6,0,0.9H62.6z M66.5,22.5c0-1.2-0.5-2.2-1.9-2.2c-1.3,0-1.9,0.9-2,2.2
			H66.5z"/>
		<path d="M71.2,21.3c0-1,0-1.9,0-2.8h2.8c0,0.2,0.1,1.2,0.1,1.8c0.4-1.2,1.5-2,3.3-2V21c-2-0.1-3.3,0.5-3.3,3.3v4.4h-2.8V21.3z"/>
		<path d="M92.1,26.1c0,1,0.1,2.4,0.1,2.6h-2.7c-0.1-0.2-0.1-0.7-0.1-1C89,28.3,88.3,29,86.5,29c-2.4,0-3.5-1.6-3.5-3.2
			c0-2.3,1.9-3.4,4.8-3.4c0.5,0,1.1,0,1.4,0v-0.6c0-0.7-0.3-1.4-1.6-1.4c-1.2,0-1.4,0.5-1.6,1.2h-2.7c0.2-1.8,1.3-3.3,4.4-3.2
			c2.7,0,4.2,1.1,4.2,3.5V26.1z M89.3,24.1c-0.2,0-0.8,0-1.1,0c-1.7,0-2.3,0.5-2.3,1.5c0,0.7,0.5,1.4,1.5,1.4c1.8,0,2-1.2,2-2.6
			V24.1z"/>
		<path d="M108.7,14.4v11.5c0,0.9,0,1.9,0,2.8H106c-0.1-0.3-0.1-0.8-0.1-1.1c-0.5,0.8-1.4,1.3-2.9,1.3c-2.6,0-4.2-2.1-4.2-5.2
			c0-3.1,1.7-5.4,4.6-5.4c1.5,0,2.2,0.5,2.5,1v-4.9H108.7z M101.7,23.7c0,2,0.8,3,2.1,3c1.9,0,2.2-1.6,2.2-3.1c0-1.7-0.2-3-2.1-3
			C102.4,20.6,101.7,21.8,101.7,23.7z"/>
		<path d="M111.2,21.3c0-1,0-1.9,0-2.8h2.8c0,0.2,0.1,1.2,0.1,1.8c0.4-1.2,1.5-2,3.3-2V21c-2-0.1-3.3,0.5-3.3,3.3v4.4h-2.8V21.3z"/>
		<path d="M127.3,26.1c0,1,0.1,2.4,0.1,2.6h-2.7c-0.1-0.2-0.1-0.7-0.1-1c-0.4,0.6-1.1,1.2-2.9,1.2c-2.4,0-3.5-1.6-3.5-3.2
			c0-2.3,1.9-3.4,4.8-3.4c0.5,0,1.1,0,1.4,0v-0.6c0-0.7-0.3-1.4-1.6-1.4c-1.2,0-1.4,0.5-1.6,1.2h-2.7c0.2-1.8,1.3-3.3,4.4-3.2
			c2.7,0,4.2,1.1,4.2,3.5V26.1z M124.6,24.1c-0.2,0-0.8,0-1.1,0c-1.7,0-2.3,0.5-2.3,1.5c0,0.7,0.5,1.4,1.5,1.4c1.8,0,2-1.2,2-2.6
			V24.1z"/>
		<path d="M129.8,21.2c0-0.9,0-1.7,0-2.6h2.7c0,0.2,0.1,0.8,0.1,1.2c0.5-0.8,1.3-1.4,2.8-1.4c1.5,0,2.3,0.8,2.6,1.5
			c0.6-0.8,1.5-1.5,3.1-1.5c1.8,0,3.2,1.1,3.2,3.7v6.7h-2.7v-6.3c0-0.9-0.3-1.8-1.5-1.8c-1.2,0-1.7,0.8-1.7,2.3v5.8h-2.8v-6.2
			c0-1.1-0.3-1.9-1.5-1.9c-1.1,0-1.7,0.7-1.7,2.4v5.7h-2.8V21.2z"/>
		<path d="M155.3,26.1c0,1,0.1,2.4,0.1,2.6h-2.7c-0.1-0.2-0.1-0.7-0.1-1c-0.4,0.6-1.1,1.2-2.9,1.2c-2.4,0-3.5-1.6-3.5-3.2
			c0-2.3,1.9-3.4,4.8-3.4c0.5,0,1.1,0,1.4,0v-0.6c0-0.7-0.3-1.4-1.6-1.4c-1.2,0-1.4,0.5-1.6,1.2h-2.7c0.2-1.8,1.3-3.3,4.4-3.2
			c2.7,0,4.2,1.1,4.2,3.5V26.1z M152.6,24.1c-0.2,0-0.8,0-1.1,0c-1.7,0-2.3,0.5-2.3,1.5c0,0.7,0.5,1.4,1.5,1.4c1.8,0,2-1.2,2-2.6
			V24.1z"/>
		<path d="M156.9,18.6h1.6v-2.7h2.8v2.7h2v2.1h-2v5c0,0.8,0.2,1.1,1.1,1.1c0.2,0,0.4,0,0.6,0v1.9c-0.6,0.2-1.3,0.2-1.9,0.2
			c-2,0-2.6-1.1-2.6-2.8v-5.3h-1.6V18.6z"/>
		<path d="M165,14.4h2.8v2.5H165V14.4z M165,18.6h2.8v10.1H165V18.6z"/>
		<path d="M179.1,25.5c-0.3,1.7-1.5,3.5-4.6,3.5c-3.2,0-4.8-2.2-4.8-5.2c0-3,1.8-5.4,4.9-5.4c3.4,0,4.4,2.5,4.4,3.6h-2.7
			c-0.2-0.8-0.6-1.4-1.7-1.4c-1.3,0-2,1.1-2,3.1c0,2.2,0.8,3.1,2,3.1c1,0,1.5-0.6,1.7-1.3H179.1z"/>
		<path d="M185.6,21.3c0-1,0-1.9,0-2.8h2.8c0,0.2,0.1,1.2,0.1,1.8c0.4-1.2,1.5-2,3.3-2V21c-2-0.1-3.3,0.5-3.3,3.3v4.4h-2.8V21.3z"/>
		<path d="M195.6,24.3c0,1.3,0.6,2.5,2,2.5c1.2,0,1.5-0.5,1.8-1.1h2.8c-0.4,1.2-1.5,3.3-4.7,3.3c-3.3,0-4.8-2.5-4.8-5.2
			c0-3.2,1.6-5.5,4.9-5.5c3.5,0,4.7,2.5,4.7,5.1c0,0.3,0,0.6,0,0.9H195.6z M199.5,22.5c0-1.2-0.5-2.2-1.9-2.2c-1.3,0-1.9,0.9-2,2.2
			H199.5z"/>
		<path d="M204.6,28.7v-8h-1.5v-2.1h1.5v-0.9c0-2.1,1-3.5,3.2-3.5c0.5,0,1.1,0,1.3,0.1v2.2c-0.2,0-0.4,0-0.6,0
			c-0.8,0-1.1,0.3-1.1,1.4v0.7h1.8v2.1h-1.8v8H204.6z"/>
		<path d="M220.1,23.6c0,3.1-1.8,5.3-5,5.3c-3.1,0-5-2.2-5-5.3c0-3.1,1.9-5.3,5.1-5.3C218.2,18.4,220.1,20.5,220.1,23.6z
			 M212.9,23.7c0,2,0.8,3.1,2.2,3.1c1.4,0,2.1-1.2,2.1-3.1c0-2.1-0.8-3.1-2.2-3.1C213.8,20.6,212.9,21.5,212.9,23.7z"/>
		<path d="M222,21.3c0-1,0-1.9,0-2.8h2.8c0,0.2,0.1,1.2,0.1,1.8c0.4-1.2,1.5-2,3.3-2V21c-2-0.1-3.3,0.5-3.3,3.3v4.4H222V21.3z"/>
		<path d="M232,24.3c0,1.3,0.6,2.5,2,2.5c1.2,0,1.5-0.5,1.8-1.1h2.8c-0.4,1.2-1.5,3.3-4.7,3.3c-3.3,0-4.8-2.5-4.8-5.2
			c0-3.2,1.6-5.5,4.9-5.5c3.5,0,4.7,2.5,4.7,5.1c0,0.3,0,0.6,0,0.9H232z M235.9,22.5c0-1.2-0.5-2.2-1.9-2.2c-1.3,0-1.9,0.9-2,2.2
			H235.9z"/>
		<path d="M242.7,25.7c0.2,0.8,0.9,1.3,1.9,1.3c1,0,1.4-0.4,1.4-1c0-0.7-0.4-0.9-1.9-1.3c-3.3-0.8-3.8-1.8-3.8-3.3
			c0-1.5,1.1-3.1,4.1-3.1c3.1,0,4.1,1.7,4.2,3.1H246c-0.1-0.4-0.3-1.1-1.7-1.1c-0.9,0-1.2,0.4-1.2,0.9c0,0.5,0.3,0.7,2,1.1
			c3.4,0.8,3.9,1.9,3.9,3.4c0,1.7-1.3,3.2-4.4,3.2c-3.1,0-4.3-1.5-4.6-3.3H242.7z"/>
		<path d="M249.8,18.6h1.6v-2.7h2.8v2.7h2v2.1h-2v5c0,0.8,0.2,1.1,1.1,1.1c0.2,0,0.4,0,0.6,0v1.9c-0.6,0.2-1.3,0.2-1.9,0.2
			c-2,0-2.6-1.1-2.6-2.8v-5.3h-1.6V18.6z"/>
		<path d="M266.3,26.1c0,1,0.1,2.4,0.1,2.6h-2.7c-0.1-0.2-0.1-0.7-0.1-1c-0.4,0.6-1.1,1.2-2.9,1.2c-2.4,0-3.5-1.6-3.5-3.2
			c0-2.3,1.9-3.4,4.8-3.4c0.5,0,1.1,0,1.4,0v-0.6c0-0.7-0.3-1.4-1.6-1.4c-1.2,0-1.4,0.5-1.6,1.2h-2.7c0.2-1.8,1.3-3.3,4.4-3.2
			c2.7,0,4.2,1.1,4.2,3.5V26.1z M263.5,24.1c-0.2,0-0.8,0-1.1,0c-1.7,0-2.3,0.5-2.3,1.5c0,0.7,0.5,1.4,1.5,1.4c1.8,0,2-1.2,2-2.6
			V24.1z"/>
		<path d="M267.8,18.6h1.6v-2.7h2.8v2.7h2v2.1h-2v5c0,0.8,0.2,1.1,1.1,1.1c0.2,0,0.4,0,0.6,0v1.9c-0.6,0.2-1.3,0.2-1.9,0.2
			c-2,0-2.6-1.1-2.6-2.8v-5.3h-1.6V18.6z"/>
		<path d="M275.9,14.4h2.8v2.5h-2.8V14.4z M275.9,18.6h2.8v10.1h-2.8V18.6z"/>
		<path d="M290.7,23.6c0,3.1-1.8,5.3-5,5.3c-3.1,0-5-2.2-5-5.3c0-3.1,1.9-5.3,5.1-5.3C288.8,18.4,290.7,20.5,290.7,23.6z
			 M283.5,23.7c0,2,0.8,3.1,2.2,3.1c1.4,0,2.1-1.2,2.1-3.1c0-2.1-0.8-3.1-2.2-3.1C284.4,20.6,283.5,21.5,283.5,23.7z"/>
		<path d="M292.6,21.1c0-0.9,0-1.8,0-2.6h2.7c0.1,0.3,0.1,1,0.1,1.3c0.3-0.6,1.2-1.5,2.9-1.5c2,0,3.4,1.4,3.4,3.9v6.5h-2.8v-6.1
			c0-1.1-0.4-2-1.6-2c-1.2,0-1.9,0.7-1.9,2.5v5.7h-2.8V21.1z"/>
		<path d="M311.1,25.7c0.2,0.8,0.9,1.3,1.9,1.3c1,0,1.4-0.4,1.4-1c0-0.7-0.4-0.9-1.9-1.3c-3.3-0.8-3.8-1.8-3.8-3.3
			c0-1.5,1.1-3.1,4.1-3.1c3.1,0,4.1,1.7,4.2,3.1h-2.7c-0.1-0.4-0.3-1.1-1.7-1.1c-0.9,0-1.2,0.4-1.2,0.9c0,0.5,0.3,0.7,2,1.1
			c3.4,0.8,3.9,1.9,3.9,3.4c0,1.7-1.3,3.2-4.4,3.2c-3.1,0-4.3-1.5-4.6-3.3H311.1z"/>
		<path d="M328,25.8c0,1,0,2,0,2.9h-2.8c0-0.3-0.1-0.8-0.1-1.2c-0.6,1-1.5,1.4-2.8,1.4c-2.1,0-3.4-1.3-3.4-3.8v-6.6h2.8v6
			c0,1.1,0.3,2,1.6,2c1.3,0,1.8-0.7,1.8-2.7v-5.4h2.8V25.8z"/>
		<path d="M339.4,25.5c-0.3,1.7-1.5,3.5-4.6,3.5c-3.2,0-4.8-2.2-4.8-5.2c0-3,1.8-5.4,4.9-5.4c3.4,0,4.4,2.5,4.4,3.6h-2.7
			c-0.2-0.8-0.6-1.4-1.7-1.4c-1.3,0-2,1.1-2,3.1c0,2.2,0.8,3.1,2,3.1c1,0,1.5-0.6,1.7-1.3H339.4z"/>
		<path d="M349.9,25.5c-0.3,1.7-1.5,3.5-4.6,3.5c-3.2,0-4.8-2.2-4.8-5.2c0-3,1.8-5.4,4.9-5.4c3.4,0,4.4,2.5,4.4,3.6h-2.7
			c-0.2-0.8-0.6-1.4-1.7-1.4c-1.3,0-2,1.1-2,3.1c0,2.2,0.8,3.1,2,3.1c1,0,1.5-0.6,1.7-1.3H349.9z"/>
		<path d="M353.9,24.3c0,1.3,0.6,2.5,2,2.5c1.2,0,1.5-0.5,1.8-1.1h2.8c-0.4,1.2-1.5,3.3-4.7,3.3c-3.3,0-4.8-2.5-4.8-5.2
			c0-3.2,1.6-5.5,4.9-5.5c3.5,0,4.7,2.5,4.7,5.1c0,0.3,0,0.6,0,0.9H353.9z M357.8,22.5c0-1.2-0.5-2.2-1.9-2.2c-1.3,0-1.9,0.9-2,2.2
			H357.8z"/>
		<path d="M364.6,25.7c0.2,0.8,0.9,1.3,1.9,1.3c1,0,1.4-0.4,1.4-1c0-0.7-0.4-0.9-1.9-1.3c-3.3-0.8-3.8-1.8-3.8-3.3
			c0-1.5,1.1-3.1,4.1-3.1c3.1,0,4.1,1.7,4.2,3.1h-2.7c-0.1-0.4-0.3-1.1-1.7-1.1c-0.9,0-1.2,0.4-1.2,0.9c0,0.5,0.3,0.7,2,1.1
			c3.4,0.8,3.9,1.9,3.9,3.4c0,1.7-1.3,3.2-4.4,3.2c-3.1,0-4.3-1.5-4.6-3.3H364.6z"/>
		<path d="M374.8,25.7c0.2,0.8,0.9,1.3,1.9,1.3c1,0,1.4-0.4,1.4-1c0-0.7-0.4-0.9-1.9-1.3c-3.3-0.8-3.8-1.8-3.8-3.3
			c0-1.5,1.1-3.1,4.1-3.1c3.1,0,4.1,1.7,4.2,3.1H378c-0.1-0.4-0.3-1.1-1.7-1.1c-0.9,0-1.2,0.4-1.2,0.9c0,0.5,0.3,0.7,2,1.1
			c3.4,0.8,3.9,1.9,3.9,3.4c0,1.7-1.3,3.2-4.4,3.2c-3.1,0-4.3-1.5-4.6-3.3H374.8z"/>
		<path d="M381.7,31c1.1-2.6,1.3-4.3,1.4-5.7h2.9c-0.2,1.9-0.8,4.1-2.1,5.7H381.7z"/>
		<path d="M395.2,24.8c0.3,1.4,1.3,2,2.8,2c1.6,0,2.2-0.6,2.2-1.6c0-1.1-0.7-1.6-3-2.1c-3.7-0.9-4.6-2.2-4.6-4c0-2.4,1.8-4,5-4
			c3.6,0,5,1.9,5.2,3.9h-2.9c-0.1-0.8-0.6-1.7-2.3-1.7c-1.2,0-1.9,0.5-1.9,1.4c0,0.9,0.6,1.3,2.8,1.8c3.9,0.9,4.8,2.4,4.8,4.3
			c0,2.5-1.9,4.2-5.4,4.2c-3.4,0-5.2-1.7-5.6-4.2H395.2z"/>
		<path d="M407.5,24.3c0,1.3,0.6,2.5,2,2.5c1.2,0,1.5-0.5,1.8-1.1h2.8c-0.4,1.2-1.5,3.3-4.7,3.3c-3.3,0-4.8-2.5-4.8-5.2
			c0-3.2,1.6-5.5,4.9-5.5c3.5,0,4.7,2.5,4.7,5.1c0,0.3,0,0.6,0,0.9H407.5z M411.5,22.5c0-1.2-0.5-2.2-1.9-2.2c-1.3,0-1.9,0.9-2,2.2
			H411.5z"/>
		<path d="M425.6,23.6c0,3.1-1.8,5.3-5,5.3c-3.1,0-5-2.2-5-5.3c0-3.1,1.9-5.3,5.1-5.3C423.7,18.4,425.6,20.5,425.6,23.6z
			 M418.4,23.7c0,2,0.8,3.1,2.2,3.1c1.4,0,2.1-1.2,2.1-3.1c0-2.1-0.8-3.1-2.2-3.1C419.3,20.6,418.4,21.5,418.4,23.7z"/>
		<path d="M436.5,25.8c0,1,0,2,0,2.9h-2.8c0-0.3-0.1-0.8-0.1-1.2c-0.6,1-1.5,1.4-2.8,1.4c-2.1,0-3.4-1.3-3.4-3.8v-6.6h2.8v6
			c0,1.1,0.3,2,1.6,2c1.3,0,1.8-0.7,1.8-2.7v-5.4h2.8V25.8z"/>
		<path d="M439,28.7V14.4h2.8v14.3H439z"/>
		<path d="M451.9,14.4v5.4c0.4-0.7,1.3-1.4,2.9-1.4c1.9,0,3.4,1.1,3.4,3.9v6.5h-2.8v-6.1c0-1.3-0.5-2-1.6-2c-1.6,0-1.9,1.2-1.9,2.7
			v5.4h-2.8V14.4H451.9z"/>
		<path d="M469.1,26.1c0,1,0.1,2.4,0.1,2.6h-2.7c-0.1-0.2-0.1-0.7-0.1-1c-0.4,0.6-1.1,1.2-2.9,1.2c-2.4,0-3.5-1.6-3.5-3.2
			c0-2.3,1.9-3.4,4.8-3.4c0.5,0,1.1,0,1.4,0v-0.6c0-0.7-0.3-1.4-1.6-1.4c-1.2,0-1.4,0.5-1.6,1.2h-2.7c0.2-1.8,1.3-3.3,4.3-3.2
			c2.7,0,4.2,1.1,4.2,3.5V26.1z M466.4,24.1c-0.2,0-0.8,0-1.1,0c-1.7,0-2.3,0.5-2.3,1.5c0,0.7,0.5,1.4,1.5,1.4c1.8,0,2-1.2,2-2.6
			V24.1z"/>
		<path d="M473.7,25.7c0.2,0.8,0.9,1.3,1.9,1.3c1,0,1.4-0.4,1.4-1c0-0.7-0.4-0.9-1.9-1.3c-3.3-0.8-3.8-1.8-3.8-3.3
			c0-1.5,1.1-3.1,4.1-3.1c3.1,0,4.1,1.7,4.2,3.1H477c-0.1-0.4-0.3-1.1-1.7-1.1c-0.9,0-1.2,0.4-1.2,0.9c0,0.5,0.3,0.7,2,1.1
			c3.4,0.8,3.9,1.9,3.9,3.4c0,1.7-1.3,3.2-4.4,3.2c-3.1,0-4.4-1.5-4.6-3.3H473.7z"/>
		<path d="M486.5,28.7V14.4h2.8v14.3H486.5z"/>
		<path d="M501.3,23.6c0,3.1-1.8,5.3-5,5.3c-3.1,0-5-2.2-5-5.3c0-3.1,1.9-5.3,5.1-5.3C499.4,18.4,501.3,20.5,501.3,23.6z
			 M494.1,23.7c0,2,0.8,3.1,2.2,3.1c1.4,0,2.1-1.2,2.1-3.1c0-2.1-0.8-3.1-2.2-3.1C495,20.6,494.1,21.5,494.1,23.7z"/>
		<path d="M505.3,25.7c0.2,0.8,0.9,1.3,1.9,1.3c1,0,1.4-0.4,1.4-1c0-0.7-0.4-0.9-1.9-1.3c-3.3-0.8-3.8-1.8-3.8-3.3
			c0-1.5,1.1-3.1,4.1-3.1c3.1,0,4.1,1.7,4.2,3.1h-2.7c-0.1-0.4-0.3-1.1-1.7-1.1c-0.9,0-1.2,0.4-1.2,0.9c0,0.5,0.3,0.7,2,1.1
			c3.4,0.8,3.9,1.9,3.9,3.4c0,1.7-1.3,3.2-4.4,3.2c-3.1,0-4.4-1.5-4.6-3.3H505.3z"/>
		<path d="M512.4,18.6h1.6v-2.7h2.8v2.7h2v2.1h-2v5c0,0.8,0.2,1.1,1.1,1.1c0.2,0,0.4,0,0.6,0v1.9c-0.6,0.2-1.3,0.2-1.9,0.2
			c-2,0-2.6-1.1-2.6-2.8v-5.3h-1.6V18.6z"/>
		<path d="M525.2,21.2c0-0.9,0-1.7,0-2.6h2.7c0,0.2,0.1,0.8,0.1,1.2c0.5-0.8,1.3-1.4,2.8-1.4c1.5,0,2.3,0.8,2.6,1.5
			c0.6-0.8,1.5-1.5,3.1-1.5c1.8,0,3.2,1.1,3.2,3.7v6.7H537v-6.3c0-0.9-0.3-1.8-1.5-1.8c-1.2,0-1.7,0.8-1.7,2.3v5.8h-2.8v-6.2
			c0-1.1-0.3-1.9-1.5-1.9c-1.1,0-1.7,0.7-1.7,2.4v5.7h-2.8V21.2z"/>
		<path d="M551.7,23.6c0,3.1-1.8,5.3-5,5.3c-3.1,0-5-2.2-5-5.3c0-3.1,1.9-5.3,5.1-5.3C549.8,18.4,551.7,20.5,551.7,23.6z
			 M544.5,23.7c0,2,0.8,3.1,2.2,3.1c1.4,0,2.1-1.2,2.1-3.1c0-2.1-0.8-3.1-2.2-3.1C545.4,20.6,544.5,21.5,544.5,23.7z"/>
		<path d="M553.6,21.3c0-1,0-1.9,0-2.8h2.8c0,0.2,0.1,1.2,0.1,1.8c0.4-1.2,1.5-2,3.3-2V21c-2-0.1-3.3,0.5-3.3,3.3v4.4h-2.8V21.3z"/>
		<path d="M563.6,24.3c0,1.3,0.6,2.5,2,2.5c1.2,0,1.5-0.5,1.8-1.1h2.8c-0.4,1.2-1.5,3.3-4.7,3.3c-3.3,0-4.8-2.5-4.8-5.2
			c0-3.2,1.6-5.5,4.9-5.5c3.5,0,4.7,2.5,4.7,5.1c0,0.3,0,0.6,0,0.9H563.6z M567.5,22.5c0-1.2-0.5-2.2-1.9-2.2c-1.3,0-1.9,0.9-2,2.2
			H567.5z"/>
		<path d="M576,18.6h1.6v-2.7h2.8v2.7h2v2.1h-2v5c0,0.8,0.2,1.1,1.1,1.1c0.2,0,0.4,0,0.6,0v1.9c-0.6,0.2-1.3,0.2-1.9,0.2
			c-2,0-2.6-1.1-2.6-2.8v-5.3H576V18.6z"/>
		<path d="M586.9,14.4v5.4c0.4-0.7,1.3-1.4,2.9-1.4c1.9,0,3.4,1.1,3.4,3.9v6.5h-2.8v-6.1c0-1.3-0.5-2-1.6-2c-1.6,0-1.9,1.2-1.9,2.7
			v5.4h-2.8V14.4H586.9z"/>
		<path d="M604.2,26.1c0,1,0.1,2.4,0.1,2.6h-2.7c-0.1-0.2-0.1-0.7-0.1-1c-0.4,0.6-1.1,1.2-2.9,1.2c-2.4,0-3.5-1.6-3.5-3.2
			c0-2.3,1.9-3.4,4.8-3.4c0.5,0,1.1,0,1.4,0v-0.6c0-0.7-0.3-1.4-1.6-1.4c-1.2,0-1.4,0.5-1.6,1.2h-2.7c0.2-1.8,1.3-3.3,4.3-3.2
			c2.7,0,4.2,1.1,4.2,3.5V26.1z M601.4,24.1c-0.2,0-0.8,0-1.1,0c-1.7,0-2.3,0.5-2.3,1.5c0,0.7,0.5,1.4,1.5,1.4c1.8,0,2-1.2,2-2.6
			V24.1z"/>
		<path d="M606.7,21.1c0-0.9,0-1.8,0-2.6h2.7c0.1,0.3,0.1,1,0.1,1.3c0.3-0.6,1.2-1.5,2.9-1.5c2,0,3.4,1.4,3.4,3.9v6.5H613v-6.1
			c0-1.1-0.4-2-1.6-2c-1.2,0-1.9,0.7-1.9,2.5v5.7h-2.8V21.1z"/>
		<path d="M625,28.7v-9.6c-0.6,0.3-1.7,0.5-2.3,0.6v-2.1c1.2-0.2,2.5-0.9,3.2-1.7h2v12.9H625z"/>
		<path d="M640.4,22.2c0,3.5-1.1,6.8-5,6.8c-3.8,0-5-3.1-5-6.7c0-3.5,1.3-6.7,5-6.7C639.1,15.6,640.4,18.5,640.4,22.2z M633.3,22.3
			c0,2.4,0.3,4.5,2.1,4.5c1.8,0,2-2,2-4.5c0-2.5-0.3-4.4-2-4.4C633.8,17.8,633.3,19.5,633.3,22.3z"/>
		<path d="M651.9,22.2c0,3.5-1.1,6.8-5,6.8c-3.8,0-5-3.1-5-6.7c0-3.5,1.3-6.7,5-6.7C650.6,15.6,651.9,18.5,651.9,22.2z M644.9,22.3
			c0,2.4,0.3,4.5,2.1,4.5c1.8,0,2-2,2-4.5c0-2.5-0.3-4.4-2-4.4C645.4,17.8,644.9,19.5,644.9,22.3z"/>
		<path d="M663.5,22.2c0,3.5-1.1,6.8-5,6.8c-3.8,0-5-3.1-5-6.7c0-3.5,1.3-6.7,5-6.7C662.2,15.6,663.5,18.5,663.5,22.2z M656.5,22.3
			c0,2.4,0.3,4.5,2.1,4.5c1.8,0,2-2,2-4.5c0-2.5-0.3-4.4-2-4.4C657,17.8,656.5,19.5,656.5,22.3z"/>
		<path d="M36.1,37.9v5.4c0.4-0.7,1.3-1.4,2.9-1.4c1.9,0,3.4,1.1,3.4,3.9v6.5h-2.8v-6.1c0-1.3-0.5-2-1.6-2c-1.6,0-1.9,1.2-1.9,2.7
			v5.4h-2.8V37.9H36.1z"/>
		<path d="M47.2,47.8c0,1.3,0.6,2.5,2,2.5c1.2,0,1.5-0.5,1.8-1.1h2.8c-0.4,1.2-1.5,3.3-4.7,3.3c-3.3,0-4.8-2.5-4.8-5.2
			c0-3.2,1.6-5.5,4.9-5.5c3.5,0,4.7,2.5,4.7,5.1c0,0.3,0,0.6,0,0.9H47.2z M51.1,46.1c0-1.2-0.5-2.2-1.9-2.2c-1.3,0-1.9,0.9-2,2.2
			H51.1z"/>
		<path d="M64.6,49c-0.3,1.7-1.5,3.5-4.6,3.5c-3.2,0-4.8-2.2-4.8-5.2c0-3,1.8-5.4,4.9-5.4c3.4,0,4.4,2.5,4.4,3.6h-2.7
			c-0.2-0.8-0.6-1.4-1.7-1.4c-1.3,0-2,1.1-2,3.1c0,2.2,0.8,3.1,2,3.1c1,0,1.5-0.6,1.7-1.3H64.6z"/>
		<path d="M65.4,42.1h1.6v-2.7h2.8v2.7h2v2.1h-2v5c0,0.8,0.2,1.1,1.1,1.1c0.2,0,0.4,0,0.6,0v1.9c-0.6,0.2-1.3,0.2-1.9,0.2
			c-2,0-2.6-1.1-2.6-2.8v-5.3h-1.6V42.1z"/>
		<path d="M81.9,49.6c0,1,0.1,2.4,0.1,2.6h-2.7c-0.1-0.2-0.1-0.7-0.1-1c-0.4,0.6-1.1,1.2-2.9,1.2c-2.4,0-3.5-1.6-3.5-3.2
			c0-2.3,1.9-3.4,4.8-3.4c0.5,0,1.1,0,1.4,0v-0.6c0-0.7-0.3-1.4-1.6-1.4c-1.2,0-1.4,0.5-1.6,1.2h-2.7c0.2-1.8,1.3-3.3,4.4-3.2
			c2.7,0,4.2,1.1,4.2,3.5V49.6z M79.2,47.6c-0.2,0-0.8,0-1.1,0c-1.7,0-2.3,0.5-2.3,1.5c0,0.7,0.5,1.4,1.5,1.4c1.8,0,2-1.2,2-2.6
			V47.6z"/>
		<path d="M84.4,44.9c0-1,0-1.9,0-2.8h2.8c0,0.2,0.1,1.2,0.1,1.8c0.4-1.2,1.5-2,3.3-2v2.7c-2-0.1-3.3,0.5-3.3,3.3v4.4h-2.8V44.9z"/>
		<path d="M94.4,47.8c0,1.3,0.6,2.5,2,2.5c1.2,0,1.5-0.5,1.8-1.1h2.8c-0.4,1.2-1.5,3.3-4.7,3.3c-3.3,0-4.8-2.5-4.8-5.2
			c0-3.2,1.6-5.5,4.9-5.5c3.5,0,4.7,2.5,4.7,5.1c0,0.3,0,0.6,0,0.9H94.4z M98.3,46.1c0-1.2-0.5-2.2-1.9-2.2c-1.3,0-1.9,0.9-2,2.2
			H98.3z"/>
		<path d="M105.1,49.2c0.2,0.8,0.9,1.3,1.9,1.3c1,0,1.4-0.4,1.4-1c0-0.7-0.4-0.9-1.9-1.3c-3.3-0.8-3.8-1.8-3.8-3.3
			c0-1.5,1.1-3.1,4.1-3.1c3.1,0,4.1,1.7,4.2,3.1h-2.7c-0.1-0.4-0.3-1.1-1.7-1.1c-0.9,0-1.2,0.4-1.2,0.9c0,0.5,0.3,0.7,2,1.1
			c3.4,0.8,3.9,1.9,3.9,3.4c0,1.7-1.3,3.2-4.4,3.2c-3.1,0-4.3-1.5-4.6-3.3H105.1z"/>
		<path d="M127.3,47.2c0,3.1-1.8,5.3-5,5.3c-3.1,0-5-2.2-5-5.3c0-3.1,1.9-5.3,5.1-5.3C125.4,41.9,127.3,44,127.3,47.2z M120.1,47.2
			c0,2,0.8,3.1,2.2,3.1c1.4,0,2.1-1.2,2.1-3.1c0-2.1-0.8-3.1-2.2-3.1C121,44.1,120.1,45,120.1,47.2z"/>
		<path d="M129.6,52.3v-8h-1.5v-2.1h1.5v-0.9c0-2.1,1-3.5,3.2-3.5c0.5,0,1.1,0,1.3,0.1v2.2c-0.2,0-0.4,0-0.6,0
			c-0.8,0-1.1,0.3-1.1,1.4v0.7h1.8v2.1h-1.8v8H129.6z"/>
		<path d="M140.8,52.3v-8h-1.5v-2.1h1.5v-0.9c0-2.1,1-3.5,3.2-3.5c0.5,0,1.1,0,1.3,0.1v2.2c-0.2,0-0.4,0-0.6,0
			c-0.8,0-1.1,0.3-1.1,1.4v0.7h1.8v2.1h-1.8v8H140.8z"/>
		<path d="M156.3,47.2c0,3.1-1.8,5.3-5,5.3c-3.1,0-5-2.2-5-5.3c0-3.1,1.9-5.3,5.1-5.3C154.4,41.9,156.3,44,156.3,47.2z M149.1,47.2
			c0,2,0.8,3.1,2.2,3.1c1.4,0,2.1-1.2,2.1-3.1c0-2.1-0.8-3.1-2.2-3.1C150,44.1,149.1,45,149.1,47.2z"/>
		<path d="M158.3,44.9c0-1,0-1.9,0-2.8h2.8c0,0.2,0.1,1.2,0.1,1.8c0.4-1.2,1.5-2,3.3-2v2.7c-2-0.1-3.3,0.5-3.3,3.3v4.4h-2.8V44.9z"
			/>
		<path d="M168.2,47.8c0,1.3,0.6,2.5,2,2.5c1.2,0,1.5-0.5,1.8-1.1h2.8c-0.4,1.2-1.5,3.3-4.7,3.3c-3.3,0-4.8-2.5-4.8-5.2
			c0-3.2,1.6-5.5,4.9-5.5c3.5,0,4.7,2.5,4.7,5.1c0,0.3,0,0.6,0,0.9H168.2z M172.1,46.1c0-1.2-0.5-2.2-1.9-2.2c-1.3,0-1.9,0.9-2,2.2
			H172.1z"/>
		<path d="M178.9,49.2c0.2,0.8,0.9,1.3,1.9,1.3c1,0,1.4-0.4,1.4-1c0-0.7-0.4-0.9-1.9-1.3c-3.3-0.8-3.8-1.8-3.8-3.3
			c0-1.5,1.1-3.1,4.1-3.1c3.1,0,4.1,1.7,4.2,3.1h-2.7c-0.1-0.4-0.3-1.1-1.7-1.1c-0.9,0-1.2,0.4-1.2,0.9c0,0.5,0.3,0.7,2,1.1
			c3.4,0.8,3.9,1.9,3.9,3.4c0,1.7-1.3,3.2-4.4,3.2c-3.1,0-4.3-1.5-4.6-3.3H178.9z"/>
		<path d="M186,42.1h1.6v-2.7h2.8v2.7h2v2.1h-2v5c0,0.8,0.2,1.1,1.1,1.1c0.2,0,0.4,0,0.6,0v1.9c-0.6,0.2-1.3,0.2-1.9,0.2
			c-2,0-2.6-1.1-2.6-2.8v-5.3H186V42.1z"/>
		<path d="M207.2,49.6c0,1,0.1,2.4,0.1,2.6h-2.7c-0.1-0.2-0.1-0.7-0.1-1c-0.4,0.6-1.1,1.2-2.9,1.2c-2.4,0-3.5-1.6-3.5-3.2
			c0-2.3,1.9-3.4,4.8-3.4c0.5,0,1.1,0,1.4,0v-0.6c0-0.7-0.3-1.4-1.6-1.4c-1.2,0-1.4,0.5-1.6,1.2h-2.7c0.2-1.8,1.3-3.3,4.4-3.2
			c2.7,0,4.2,1.1,4.2,3.5V49.6z M204.5,47.6c-0.2,0-0.8,0-1.1,0c-1.7,0-2.3,0.5-2.3,1.5c0,0.7,0.5,1.4,1.5,1.4c1.8,0,2-1.2,2-2.6
			V47.6z"/>
		<path d="M209.8,44.9c0-1,0-1.9,0-2.8h2.8c0,0.2,0.1,1.2,0.1,1.8c0.4-1.2,1.5-2,3.3-2v2.7c-2-0.1-3.3,0.5-3.3,3.3v4.4h-2.8V44.9z"
			/>
		<path d="M219.7,47.8c0,1.3,0.6,2.5,2,2.5c1.2,0,1.5-0.5,1.8-1.1h2.8c-0.4,1.2-1.5,3.3-4.7,3.3c-3.3,0-4.8-2.5-4.8-5.2
			c0-3.2,1.6-5.5,4.9-5.5c3.5,0,4.7,2.5,4.7,5.1c0,0.3,0,0.6,0,0.9H219.7z M223.7,46.1c0-1.2-0.5-2.2-1.9-2.2c-1.3,0-1.9,0.9-2,2.2
			H223.7z"/>
		<path d="M236.8,49.6c0,1,0.1,2.4,0.1,2.6h-2.7c-0.1-0.2-0.1-0.7-0.1-1c-0.4,0.6-1.1,1.2-2.9,1.2c-2.4,0-3.5-1.6-3.5-3.2
			c0-2.3,1.9-3.4,4.8-3.4c0.5,0,1.1,0,1.4,0v-0.6c0-0.7-0.3-1.4-1.6-1.4c-1.2,0-1.4,0.5-1.6,1.2h-2.7c0.2-1.8,1.3-3.3,4.4-3.2
			c2.7,0,4.2,1.1,4.2,3.5V49.6z M234.1,47.6c-0.2,0-0.8,0-1.1,0c-1.7,0-2.3,0.5-2.3,1.5c0,0.7,0.5,1.4,1.5,1.4c1.8,0,2-1.2,2-2.6
			V47.6z"/>
		<path d="M246.2,49.2c0.2,0.8,0.9,1.3,1.9,1.3c1,0,1.4-0.4,1.4-1c0-0.7-0.4-0.9-1.9-1.3c-3.3-0.8-3.8-1.8-3.8-3.3
			c0-1.5,1.1-3.1,4.1-3.1c3.1,0,4.1,1.7,4.2,3.1h-2.7c-0.1-0.4-0.3-1.1-1.7-1.1c-0.9,0-1.2,0.4-1.2,0.9c0,0.5,0.3,0.7,2,1.1
			c3.4,0.8,3.9,1.9,3.9,3.4c0,1.7-1.3,3.2-4.4,3.2c-3.1,0-4.3-1.5-4.6-3.3H246.2z"/>
		<path d="M254.2,37.9h2.8v2.5h-2.8V37.9z M254.2,42.1h2.8v10.1h-2.8V42.1z"/>
		<path d="M259.5,44.7c0-0.9,0-1.8,0-2.6h2.7c0.1,0.3,0.1,1,0.1,1.3c0.3-0.6,1.2-1.5,2.9-1.5c2,0,3.4,1.4,3.4,3.9v6.5h-2.8v-6.1
			c0-1.1-0.4-2-1.6-2c-1.2,0-1.9,0.7-1.9,2.5v5.7h-2.8V44.7z"/>
		<path d="M279.9,49c-0.3,1.7-1.5,3.5-4.6,3.5c-3.2,0-4.8-2.2-4.8-5.2c0-3,1.8-5.4,4.9-5.4c3.4,0,4.4,2.5,4.4,3.6h-2.7
			c-0.2-0.8-0.6-1.4-1.7-1.4c-1.3,0-2,1.1-2,3.1c0,2.2,0.8,3.1,2,3.1c1,0,1.5-0.6,1.7-1.3H279.9z"/>
		<path d="M283.9,47.8c0,1.3,0.6,2.5,2,2.5c1.2,0,1.5-0.5,1.8-1.1h2.8c-0.4,1.2-1.5,3.3-4.7,3.3c-3.3,0-4.8-2.5-4.8-5.2
			c0-3.2,1.6-5.5,4.9-5.5c3.5,0,4.7,2.5,4.7,5.1c0,0.3,0,0.6,0,0.9H283.9z M287.9,46.1c0-1.2-0.5-2.2-1.9-2.2c-1.3,0-1.9,0.9-2,2.2
			H287.9z"/>
		<path d="M299.2,52.3v-9.6c-0.6,0.3-1.7,0.5-2.3,0.6v-2.1c1.2-0.2,2.5-0.9,3.2-1.7h2v12.9H299.2z"/>
		<path d="M307.6,49.1c0.2,0.8,0.7,1.2,1.8,1.2c1.8,0,2-2.2,2.1-3.6c-0.5,0.7-1.6,1.1-2.7,1.1c-2.7,0-4.2-1.8-4.2-4.1
			c0-2.5,1.8-4.5,4.7-4.5c3.6,0,4.9,2.8,4.9,6c0,3.6-0.9,7.3-5,7.3c-3,0-4.2-1.8-4.5-3.4H307.6z M307.4,43.5c0,1.3,0.8,2.1,2,2.1
			c1.2,0,1.9-0.6,1.9-2.1c0-0.9-0.4-2.2-2-2.2C308.1,41.3,307.4,42.3,307.4,43.5z"/>
		<path d="M315.9,48.5c0-1.6,1.2-2.7,2.1-3.1c-1-0.6-1.6-1.4-1.6-2.7c0-2.2,1.6-3.6,4.5-3.6c2.7,0,4.4,1.4,4.4,3.6
			c0,1.5-0.8,2.2-1.6,2.6c0.9,0.3,2.1,1.4,2.1,3.1c0,2.7-2.1,4-5.1,4C318.1,52.5,315.9,51.1,315.9,48.5z M323,48.4
			c0-1.3-0.9-1.9-2.1-1.9c-1.4,0-2.1,0.8-2.1,1.9c0,1.1,0.9,1.9,2.2,1.9C322.1,50.3,323,49.7,323,48.4z M319.1,42.9
			c0,0.9,0.6,1.5,1.8,1.5c1.1,0,1.8-0.4,1.8-1.4c0-1-0.6-1.6-1.8-1.6C319.7,41.3,319.1,41.8,319.1,42.9z"/>
		<path d="M337.3,45.7c0,3.5-1.1,6.8-5,6.8c-3.8,0-5-3.1-5-6.7c0-3.5,1.3-6.7,5-6.7C336,39.1,337.3,42.1,337.3,45.7z M330.3,45.8
			c0,2.4,0.3,4.5,2.1,4.5c1.8,0,2-2,2-4.5c0-2.5-0.3-4.4-2-4.4C330.8,41.4,330.3,43,330.3,45.8z"/>
		<path d="M339.1,52.3v-3.4h3v3.4H339.1z"/>
	</g>
</g>
</svg>
