<?xml version="1.0" encoding="utf-8"?>
<!-- Generator: Adobe Illustrator 27.2.0, SVG Export Plug-In . SVG Version: 6.00 Build 0)  -->
<svg version="1.1" id="Layer_1" xmlns="http://www.w3.org/2000/svg" xmlns:xlink="http://www.w3.org/1999/xlink" x="0px" y="0px"
	 viewBox="0 0 750 459.1" style="enable-background:new 0 0 750 459.1;" xml:space="preserve">
<style type="text/css">
	.st0{fill:none;stroke:#CCCCCC;stroke-miterlimit:10;}
	.st1{fill:none;stroke:#333333;stroke-miterlimit:10;}
	.st2{clip-path:url(#SVGID_00000076568884409132779440000015785417181016458656_);fill:#4285F4;}
	.st3{clip-path:url(#SVGID_00000183932731698069786760000002300118107931440291_);fill:#2A5E0E;}
	.st4{fill:none;stroke:#068E37;stroke-width:3;stroke-linecap:round;stroke-linejoin:round;stroke-miterlimit:10;}
	.st5{clip-path:url(#SVGID_00000145756308450677355350000011076412980958809749_);fill-opacity:0;}
	.st6{clip-path:url(#SVGID_00000062876969434435860280000013096462267757026232_);fill-opacity:0;}
	.st7{clip-path:url(#SVGID_00000026875135052360763840000002443446368097421716_);fill-opacity:0;}
	.st8{clip-path:url(#SVGID_00000000911204656622115530000006657200179172744847_);fill-opacity:0;}
	.st9{clip-path:url(#SVGID_00000150068045112891913070000003027548738653149860_);fill-opacity:0;}
	.st10{clip-path:url(#SVGID_00000029730068676359831970000001705215140566468266_);fill-opacity:0;}
	.st11{clip-path:url(#SVGID_00000105425257428792561650000018308186446116704433_);fill-opacity:0;}
	.st12{clip-path:url(#SVGID_00000038409192689386068800000000693977170296350086_);fill-opacity:0;}
	.st13{clip-path:url(#SVGID_00000011716131906521000250000007970103811822732194_);fill-opacity:0;}
	.st14{clip-path:url(#SVGID_00000160151746051994353540000011605478105130933130_);fill-opacity:0;}
	.st15{clip-path:url(#SVGID_00000150065605897888706730000005027359597907856285_);fill-opacity:0;}
	.st16{clip-path:url(#SVGID_00000100355491349813864110000003026443694661000071_);fill-opacity:0;}
	.st17{clip-path:url(#SVGID_00000065063191724532917000000009568213080848302749_);fill-opacity:0;}
	.st18{clip-path:url(#SVGID_00000177452171904276593270000000616988637427166373_);fill-opacity:0;}
	.st19{clip-path:url(#SVGID_00000019659421543558423460000011095608286631217063_);fill-opacity:0;}
	.st20{clip-path:url(#SVGID_00000016756539678379297860000003715908939078469288_);fill-opacity:0;}
	.st21{clip-path:url(#SVGID_00000080206498683122884480000017878480011942218891_);fill-opacity:0;}
	.st22{clip-path:url(#SVGID_00000178174886876976900350000003860196377682822821_);fill-opacity:0;}
	.st23{clip-path:url(#SVGID_00000101078940336987111220000002379475130803998123_);fill-opacity:0;}
	.st24{clip-path:url(#SVGID_00000124849503637958362180000016263704895107506568_);fill-opacity:0;}
	.st25{clip-path:url(#SVGID_00000101822567189559872800000015513828923340536973_);fill-opacity:0;}
	.st26{clip-path:url(#SVGID_00000176019000203475746510000008774303172151736741_);fill-opacity:0;}
	.st27{clip-path:url(#SVGID_00000050633376090543742900000008928109124881837476_);fill-opacity:0;}
	.st28{clip-path:url(#SVGID_00000080904007276192256620000002565301900642761862_);fill-opacity:0;}
	.st29{clip-path:url(#SVGID_00000070120098140120311280000006713535117590878364_);fill-opacity:0;}
	.st30{clip-path:url(#SVGID_00000070832185638519916260000006214369364526663609_);fill-opacity:0;}
	.st31{clip-path:url(#SVGID_00000024705494415460286890000000535393524224378046_);fill-opacity:0;}
	.st32{clip-path:url(#SVGID_00000147917237621446714170000008673289921342244011_);fill-opacity:0;}
	.st33{clip-path:url(#SVGID_00000124133447702754801710000003867732753129215374_);fill-opacity:0;}
	.st34{clip-path:url(#SVGID_00000055694476308252137660000017283544566036054919_);fill-opacity:0;}
	.st35{clip-path:url(#SVGID_00000090255638949921697050000016715707762866696628_);fill-opacity:0;}
	.st36{clip-path:url(#SVGID_00000097464997568452827350000014448346350954819717_);fill-opacity:0;}
	.st37{clip-path:url(#SVGID_00000056413424991453862680000006061567201602731435_);fill-opacity:0;}
	.st38{clip-path:url(#SVGID_00000158008316592250996380000013072851494232409777_);fill-opacity:0;}
	.st39{clip-path:url(#SVGID_00000127725786901919480120000003707253846808357791_);fill-opacity:0;}
	.st40{clip-path:url(#SVGID_00000090976436753937048620000002448746259449198210_);fill-opacity:0;}
	.st41{clip-path:url(#SVGID_00000040543330515133820600000004726627810905787565_);fill-opacity:0;}
	.st42{clip-path:url(#SVGID_00000041996516905749792810000004627752850034427068_);fill-opacity:0;}
	.st43{display:none;}
	.st44{display:inline;}
	.st45{clip-path:url(#SVGID_00000033369679058702104740000015695722516195797651_);fill-opacity:0;}
	.st46{clip-path:url(#SVGID_00000049910415303396250050000011670831947249740962_);fill-opacity:0;}
	.st47{clip-path:url(#SVGID_00000172425065846362059630000003576481817817626759_);fill-opacity:0;}
	.st48{clip-path:url(#SVGID_00000061459388846613185730000005514494815858125480_);fill-opacity:0;}
	.st49{clip-path:url(#SVGID_00000129897850007971017850000007272248723443856015_);fill-opacity:0;}
	.st50{clip-path:url(#SVGID_00000069396919960833099120000018237270419819545256_);fill-opacity:0;}
	.st51{clip-path:url(#SVGID_00000093884034166291753100000017437117174384810139_);fill-opacity:0;}
	.st52{clip-path:url(#SVGID_00000072260727832243445940000001789097781404486554_);fill-opacity:0;}
	.st53{clip-path:url(#SVGID_00000052826743481180133620000008211135227773398453_);fill-opacity:0;}
	.st54{clip-path:url(#SVGID_00000091700195371487539980000012947475619507577987_);fill-opacity:0;}
	.st55{clip-path:url(#SVGID_00000146495068173961219520000009306139909882551206_);fill-opacity:0;}
	.st56{clip-path:url(#SVGID_00000131346850035783230050000007192440730158439559_);fill-opacity:0;}
	.st57{clip-path:url(#SVGID_00000139251729234952220150000008366521156141234570_);fill-opacity:0;}
	.st58{clip-path:url(#SVGID_00000100351945033595084320000010429149515467381689_);fill:#2A8434;}
	.st59{clip-path:url(#SVGID_00000093899326966321042030000011518102348405569437_);fill:#3D700D;fill-opacity:0;}
	.st60{font-family:'ArialMT';}
	.st61{font-size:15.8657px;}
</style>
<path class="st0" d="M126.6,97.3v331.3"/>
<path class="st0" d="M322.6,97.3v331.3"/>
<path class="st0" d="M519.5,97.3v331.3"/>
<path class="st0" d="M715.5,97.3v331.3"/>
<path class="st1" d="M67.8,428.6h647.7"/>
<path class="st0" d="M67.8,362.4h647.7"/>
<path class="st0" d="M67.8,296.1h647.7"/>
<path class="st0" d="M67.8,229.9h647.7"/>
<path class="st0" d="M67.8,163.6h647.7"/>
<path class="st0" d="M67.8,97.3h647.7"/>
<g>
	<g>
		<defs>
			<rect id="SVGID_1_" x="67.6" y="97" width="648.1" height="331.8"/>
		</defs>
		<clipPath id="SVGID_00000176749640999239998730000007343563642577729983_">
			<use xlink:href="#SVGID_1_"  style="overflow:visible;"/>
		</clipPath>
		<path style="clip-path:url(#SVGID_00000176749640999239998730000007343563642577729983_);fill:#4285F4;" d="M668.4,223.3
			c0,1-0.8,1.9-1.9,1.9c-1,0-1.9-0.8-1.9-1.9s0.8-1.9,1.9-1.9C667.6,221.4,668.4,222.3,668.4,223.3z"/>
	</g>
</g>
<g>
	<g>
		<defs>
			<rect id="SVGID_00000038384448605394050730000008303920130114015361_" x="67.6" y="97" width="648.1" height="331.8"/>
		</defs>
		<clipPath id="SVGID_00000171686650906872149340000005482680198134021511_">
			<use xlink:href="#SVGID_00000038384448605394050730000008303920130114015361_"  style="overflow:visible;"/>
		</clipPath>
		<path style="clip-path:url(#SVGID_00000171686650906872149340000005482680198134021511_);fill:#2A5E0E;" d="M716,223
			c2.3,3.1-1.1,6.5-4.2,4.2C709.5,224.1,712.9,220.7,716,223z"/>
	</g>
</g>
<g>
	<path class="st4" d="M67.6,299.1l9.8,3.9l9.8-0.2 M116.7,301.9l9.8,0.2l9.8,3.2l9.8-191.6h9.8l9.8,38.5l9.8,0.4 M195.2,158l9.8,1.5
		l9.8,2.6l9.8,5.2l9.8,4.7l9.8,0.7l9.8-1.7 M283.6,189.6l9.8,0.8l9.8,12.4l9.8,0.2 M332.7,207.9l9.8,1.2l9.8,1l9.8,0.5l9.8,0.4
		l9.8,1.8l9.8,0.6l9.8,1.5l9.8,2.5l9.8-2.4h9.8l9.8,1.5l9.8,0.3l9.8,0.4l9.8-0.5l9.8,0.1l9.8,2.4l9.8,0.3l9.8,0.2l9.8,0.1h9.8
		l9.8-0.4l9.8-0.1l9.8,0.5l9.8,0.1h9.8l9.8,0.1h9.8h9.8l9.8,0.2"/>
</g>
<g>
	<g>
		<defs>
			<rect id="SVGID_00000173160413624094073100000009143129367214172605_" x="67.6" y="97" width="648.1" height="331.8"/>
		</defs>
		<clipPath id="SVGID_00000031899820512458037020000018191699299816625588_">
			<use xlink:href="#SVGID_00000173160413624094073100000009143129367214172605_"  style="overflow:visible;"/>
		</clipPath>
		<path style="clip-path:url(#SVGID_00000031899820512458037020000018191699299816625588_);fill-opacity:0;" d="M70.4,299.1
			c0,1.5-1.3,2.8-2.8,2.8s-2.8-1.3-2.8-2.8s1.3-2.8,2.8-2.8C69.1,296.3,70.4,297.6,70.4,299.1z"/>
	</g>
</g>
<g>
	<g>
		<defs>
			<rect id="SVGID_00000114074882613568649960000011816650757918689411_" x="67.6" y="97" width="648.1" height="331.8"/>
		</defs>
		<clipPath id="SVGID_00000049922835668767856190000012410221556813058182_">
			<use xlink:href="#SVGID_00000114074882613568649960000011816650757918689411_"  style="overflow:visible;"/>
		</clipPath>
		<path style="clip-path:url(#SVGID_00000049922835668767856190000012410221556813058182_);fill-opacity:0;" d="M80.2,303
			c0,1.5-1.3,2.8-2.8,2.8s-2.8-1.3-2.8-2.8s1.3-2.8,2.8-2.8S80.2,301.5,80.2,303z"/>
	</g>
</g>
<g>
	<g>
		<defs>
			<rect id="SVGID_00000089539499672437455900000002194185821529311395_" x="67.6" y="97" width="648.1" height="331.8"/>
		</defs>
		<clipPath id="SVGID_00000003101768854643562100000008173572614850768574_">
			<use xlink:href="#SVGID_00000089539499672437455900000002194185821529311395_"  style="overflow:visible;"/>
		</clipPath>
		<path style="clip-path:url(#SVGID_00000003101768854643562100000008173572614850768574_);fill-opacity:0;" d="M90,302.8
			c0,1.5-1.3,2.8-2.8,2.8s-2.8-1.3-2.8-2.8s1.3-2.8,2.8-2.8S90,301.3,90,302.8z"/>
	</g>
</g>
<g>
	<g>
		<defs>
			<rect id="SVGID_00000165923936864183198550000011068688879520044718_" x="67.6" y="97" width="648.1" height="331.8"/>
		</defs>
		<clipPath id="SVGID_00000069388507007707717840000006020602911019541413_">
			<use xlink:href="#SVGID_00000165923936864183198550000011068688879520044718_"  style="overflow:visible;"/>
		</clipPath>
		<path style="clip-path:url(#SVGID_00000069388507007707717840000006020602911019541413_);fill-opacity:0;" d="M119.5,301.9
			c0,1.5-1.3,2.8-2.8,2.8s-2.8-1.3-2.8-2.8s1.3-2.8,2.8-2.8S119.5,300.4,119.5,301.9z"/>
	</g>
</g>
<g>
	<g>
		<defs>
			<rect id="SVGID_00000168823446840831769460000010840915595656012984_" x="67.6" y="97" width="648.1" height="331.8"/>
		</defs>
		<clipPath id="SVGID_00000024723192486797624090000002021860021078772627_">
			<use xlink:href="#SVGID_00000168823446840831769460000010840915595656012984_"  style="overflow:visible;"/>
		</clipPath>
		<path style="clip-path:url(#SVGID_00000024723192486797624090000002021860021078772627_);fill-opacity:0;" d="M129.3,302.1
			c0,1.5-1.3,2.8-2.8,2.8s-2.8-1.3-2.8-2.8s1.3-2.8,2.8-2.8C128,299.3,129.3,300.6,129.3,302.1z"/>
	</g>
</g>
<g>
	<g>
		<defs>
			<rect id="SVGID_00000025408898890447192330000001785597676105407874_" x="67.6" y="97" width="648.1" height="331.8"/>
		</defs>
		<clipPath id="SVGID_00000063632936874572657310000003663912777700414630_">
			<use xlink:href="#SVGID_00000025408898890447192330000001785597676105407874_"  style="overflow:visible;"/>
		</clipPath>
		<path style="clip-path:url(#SVGID_00000063632936874572657310000003663912777700414630_);fill-opacity:0;" d="M139.1,305.4
			c0,1.5-1.3,2.8-2.8,2.8s-2.8-1.3-2.8-2.8s1.3-2.8,2.8-2.8S139.1,303.8,139.1,305.4z"/>
	</g>
</g>
<g>
	<g>
		<defs>
			<rect id="SVGID_00000107573575137287281080000006756030322128984971_" x="67.6" y="97" width="648.1" height="331.8"/>
		</defs>
		<clipPath id="SVGID_00000183243925818610060280000006135356695035033492_">
			<use xlink:href="#SVGID_00000107573575137287281080000006756030322128984971_"  style="overflow:visible;"/>
		</clipPath>
		<path style="clip-path:url(#SVGID_00000183243925818610060280000006135356695035033492_);fill-opacity:0;" d="M148.9,113.7
			c0,1.5-1.3,2.8-2.8,2.8s-2.8-1.3-2.8-2.8s1.3-2.8,2.8-2.8S148.9,112.2,148.9,113.7z"/>
	</g>
</g>
<g>
	<g>
		<defs>
			<rect id="SVGID_00000163780344309653064430000016549188154847184040_" x="67.6" y="97" width="648.1" height="331.8"/>
		</defs>
		<clipPath id="SVGID_00000057852728198240303920000012286187750387503011_">
			<use xlink:href="#SVGID_00000163780344309653064430000016549188154847184040_"  style="overflow:visible;"/>
		</clipPath>
		<path style="clip-path:url(#SVGID_00000057852728198240303920000012286187750387503011_);fill-opacity:0;" d="M158.8,113.7
			c0,1.5-1.3,2.8-2.8,2.8s-2.8-1.3-2.8-2.8s1.3-2.8,2.8-2.8C157.5,110.9,158.8,112.2,158.8,113.7z"/>
	</g>
</g>
<g>
	<g>
		<defs>
			<rect id="SVGID_00000029011676878717044400000010517623747355136697_" x="67.6" y="97" width="648.1" height="331.8"/>
		</defs>
		<clipPath id="SVGID_00000165931421032234170140000005733325748485169082_">
			<use xlink:href="#SVGID_00000029011676878717044400000010517623747355136697_"  style="overflow:visible;"/>
		</clipPath>
		<path style="clip-path:url(#SVGID_00000165931421032234170140000005733325748485169082_);fill-opacity:0;" d="M168.6,152.2
			c0,1.5-1.3,2.8-2.8,2.8s-2.8-1.3-2.8-2.8s1.3-2.8,2.8-2.8S168.6,150.6,168.6,152.2z"/>
	</g>
</g>
<g>
	<g>
		<defs>
			<rect id="SVGID_00000090295103060972382900000004925877806494647210_" x="67.6" y="97" width="648.1" height="331.8"/>
		</defs>
		<clipPath id="SVGID_00000071525596120810567310000000846109962666119586_">
			<use xlink:href="#SVGID_00000090295103060972382900000004925877806494647210_"  style="overflow:visible;"/>
		</clipPath>
		<path style="clip-path:url(#SVGID_00000071525596120810567310000000846109962666119586_);fill-opacity:0;" d="M178.4,152.6
			c0,1.5-1.3,2.8-2.8,2.8s-2.8-1.3-2.8-2.8s1.3-2.8,2.8-2.8C177.1,149.8,178.4,151,178.4,152.6z"/>
	</g>
</g>
<g>
	<g>
		<defs>
			<rect id="SVGID_00000040567870196160098640000011736188303385303739_" x="67.6" y="97" width="648.1" height="331.8"/>
		</defs>
		<clipPath id="SVGID_00000107576388416147098580000001983402014613357192_">
			<use xlink:href="#SVGID_00000040567870196160098640000011736188303385303739_"  style="overflow:visible;"/>
		</clipPath>
		<path style="clip-path:url(#SVGID_00000107576388416147098580000001983402014613357192_);fill-opacity:0;" d="M198,158
			c0,1.5-1.3,2.8-2.8,2.8s-2.8-1.3-2.8-2.8s1.3-2.8,2.8-2.8C196.8,155.2,198,156.5,198,158z"/>
	</g>
</g>
<g>
	<g>
		<defs>
			<rect id="SVGID_00000137122457156984724190000008159960410033002672_" x="67.6" y="97" width="648.1" height="331.8"/>
		</defs>
		<clipPath id="SVGID_00000083808966940418157960000012840136882504087190_">
			<use xlink:href="#SVGID_00000137122457156984724190000008159960410033002672_"  style="overflow:visible;"/>
		</clipPath>
		<path style="clip-path:url(#SVGID_00000083808966940418157960000012840136882504087190_);fill-opacity:0;" d="M207.9,159.5
			c0,1.5-1.3,2.8-2.8,2.8s-2.8-1.3-2.8-2.8s1.3-2.8,2.8-2.8C206.6,156.7,207.9,158,207.9,159.5z"/>
	</g>
</g>
<g>
	<g>
		<defs>
			<rect id="SVGID_00000014623819874186925160000017054881233720747911_" x="67.6" y="97" width="648.1" height="331.8"/>
		</defs>
		<clipPath id="SVGID_00000096751311864714322790000010537609499984760706_">
			<use xlink:href="#SVGID_00000014623819874186925160000017054881233720747911_"  style="overflow:visible;"/>
		</clipPath>
		<path style="clip-path:url(#SVGID_00000096751311864714322790000010537609499984760706_);fill-opacity:0;" d="M217.7,162.1
			c0,1.5-1.3,2.8-2.8,2.8s-2.8-1.3-2.8-2.8s1.3-2.8,2.8-2.8S217.7,160.6,217.7,162.1z"/>
	</g>
</g>
<g>
	<g>
		<defs>
			<rect id="SVGID_00000047028380090057603110000015710493676410143376_" x="67.6" y="97" width="648.1" height="331.8"/>
		</defs>
		<clipPath id="SVGID_00000165927151280154156690000005786249639929479615_">
			<use xlink:href="#SVGID_00000047028380090057603110000015710493676410143376_"  style="overflow:visible;"/>
		</clipPath>
		<path style="clip-path:url(#SVGID_00000165927151280154156690000005786249639929479615_);fill-opacity:0;" d="M227.5,167.3
			c0,1.5-1.3,2.8-2.8,2.8s-2.8-1.3-2.8-2.8s1.3-2.8,2.8-2.8S227.5,165.8,227.5,167.3z"/>
	</g>
</g>
<g>
	<g>
		<defs>
			<rect id="SVGID_00000002360706136835508980000017604540947078046854_" x="67.6" y="97" width="648.1" height="331.8"/>
		</defs>
		<clipPath id="SVGID_00000003801244038742115180000001947268953200436402_">
			<use xlink:href="#SVGID_00000002360706136835508980000017604540947078046854_"  style="overflow:visible;"/>
		</clipPath>
		<path style="clip-path:url(#SVGID_00000003801244038742115180000001947268953200436402_);fill-opacity:0;" d="M237.3,172
			c0,1.5-1.3,2.8-2.8,2.8s-2.8-1.3-2.8-2.8s1.3-2.8,2.8-2.8S237.3,170.4,237.3,172z"/>
	</g>
</g>
<g>
	<g>
		<defs>
			<rect id="SVGID_00000156575722217619410150000008188322870813762745_" x="67.6" y="97" width="648.1" height="331.8"/>
		</defs>
		<clipPath id="SVGID_00000012463457084513170040000007758736970826820258_">
			<use xlink:href="#SVGID_00000156575722217619410150000008188322870813762745_"  style="overflow:visible;"/>
		</clipPath>
		<path style="clip-path:url(#SVGID_00000012463457084513170040000007758736970826820258_);fill-opacity:0;" d="M247.1,172.7
			c0,1.5-1.3,2.8-2.8,2.8s-2.8-1.3-2.8-2.8s1.3-2.8,2.8-2.8S247.1,171.2,247.1,172.7z"/>
	</g>
</g>
<g>
	<g>
		<defs>
			<rect id="SVGID_00000009572946529000812440000010468957384307016361_" x="67.6" y="97" width="648.1" height="331.8"/>
		</defs>
		<clipPath id="SVGID_00000100367199748697576560000017201433859282696069_">
			<use xlink:href="#SVGID_00000009572946529000812440000010468957384307016361_"  style="overflow:visible;"/>
		</clipPath>
		<path style="clip-path:url(#SVGID_00000100367199748697576560000017201433859282696069_);fill-opacity:0;" d="M257,171.1
			c0,1.5-1.3,2.8-2.8,2.8s-2.8-1.3-2.8-2.8s1.3-2.8,2.8-2.8S257,169.5,257,171.1z"/>
	</g>
</g>
<g>
	<g>
		<defs>
			<rect id="SVGID_00000053539932874957362000000006947724480229615755_" x="67.6" y="97" width="648.1" height="331.8"/>
		</defs>
		<clipPath id="SVGID_00000038410863294785928370000007178138107435251359_">
			<use xlink:href="#SVGID_00000053539932874957362000000006947724480229615755_"  style="overflow:visible;"/>
		</clipPath>
		<path style="clip-path:url(#SVGID_00000038410863294785928370000007178138107435251359_);fill-opacity:0;" d="M286.4,189.6
			c0,1.5-1.3,2.8-2.8,2.8s-2.8-1.3-2.8-2.8s1.3-2.8,2.8-2.8C285.2,186.8,286.4,188.1,286.4,189.6z"/>
	</g>
</g>
<g>
	<g>
		<defs>
			<rect id="SVGID_00000011033817125387798040000003898695840736025782_" x="67.6" y="97" width="648.1" height="331.8"/>
		</defs>
		<clipPath id="SVGID_00000091731379299184342960000008782329404786582935_">
			<use xlink:href="#SVGID_00000011033817125387798040000003898695840736025782_"  style="overflow:visible;"/>
		</clipPath>
		<path style="clip-path:url(#SVGID_00000091731379299184342960000008782329404786582935_);fill-opacity:0;" d="M296.2,190.4
			c0,1.5-1.3,2.8-2.8,2.8s-2.8-1.3-2.8-2.8s1.3-2.8,2.8-2.8S296.2,188.9,296.2,190.4z"/>
	</g>
</g>
<g>
	<g>
		<defs>
			<rect id="SVGID_00000130612885978805733520000002550501440406274722_" x="67.6" y="97" width="648.1" height="331.8"/>
		</defs>
		<clipPath id="SVGID_00000030467357469323542800000014467676840771144605_">
			<use xlink:href="#SVGID_00000130612885978805733520000002550501440406274722_"  style="overflow:visible;"/>
		</clipPath>
		<path style="clip-path:url(#SVGID_00000030467357469323542800000014467676840771144605_);fill-opacity:0;" d="M306,202.8
			c0,1.5-1.3,2.8-2.8,2.8s-2.8-1.3-2.8-2.8s1.3-2.8,2.8-2.8C304.8,200,306,201.3,306,202.8z"/>
	</g>
</g>
<g>
	<g>
		<defs>
			<rect id="SVGID_00000126320217876065661710000014967850668713963921_" x="67.6" y="97" width="648.1" height="331.8"/>
		</defs>
		<clipPath id="SVGID_00000082347215776111059440000008231778318445090237_">
			<use xlink:href="#SVGID_00000126320217876065661710000014967850668713963921_"  style="overflow:visible;"/>
		</clipPath>
		<path style="clip-path:url(#SVGID_00000082347215776111059440000008231778318445090237_);fill-opacity:0;" d="M315.9,203.1
			c0,1.5-1.3,2.8-2.8,2.8s-2.8-1.3-2.8-2.8s1.3-2.8,2.8-2.8S315.9,201.5,315.9,203.1z"/>
	</g>
</g>
<g>
	<g>
		<defs>
			<rect id="SVGID_00000078767319889363279300000006702481744523333041_" x="67.6" y="97" width="648.1" height="331.8"/>
		</defs>
		<clipPath id="SVGID_00000178900473132155182140000002299055653893195454_">
			<use xlink:href="#SVGID_00000078767319889363279300000006702481744523333041_"  style="overflow:visible;"/>
		</clipPath>
		<path style="clip-path:url(#SVGID_00000178900473132155182140000002299055653893195454_);fill-opacity:0;" d="M335.5,207.9
			c0,1.5-1.3,2.8-2.8,2.8s-2.8-1.3-2.8-2.8s1.3-2.8,2.8-2.8S335.5,206.3,335.5,207.9z"/>
	</g>
</g>
<g>
	<g>
		<defs>
			<rect id="SVGID_00000070120983397372809610000017428566279212873654_" x="67.6" y="97" width="648.1" height="331.8"/>
		</defs>
		<clipPath id="SVGID_00000109735405468291540590000008414995272650700204_">
			<use xlink:href="#SVGID_00000070120983397372809610000017428566279212873654_"  style="overflow:visible;"/>
		</clipPath>
		<path style="clip-path:url(#SVGID_00000109735405468291540590000008414995272650700204_);fill-opacity:0;" d="M345.3,209
			c0,1.5-1.3,2.8-2.8,2.8s-2.8-1.3-2.8-2.8s1.3-2.8,2.8-2.8C344.1,206.2,345.3,207.5,345.3,209z"/>
	</g>
</g>
<g>
	<g>
		<defs>
			<rect id="SVGID_00000059296403274867072530000001804039138672708513_" x="67.6" y="97" width="648.1" height="331.8"/>
		</defs>
		<clipPath id="SVGID_00000127754176858980051450000005899769064997735063_">
			<use xlink:href="#SVGID_00000059296403274867072530000001804039138672708513_"  style="overflow:visible;"/>
		</clipPath>
		<path style="clip-path:url(#SVGID_00000127754176858980051450000005899769064997735063_);fill-opacity:0;" d="M355.1,210
			c0,1.5-1.3,2.8-2.8,2.8s-2.8-1.3-2.8-2.8s1.3-2.8,2.8-2.8C353.9,207.2,355.1,208.5,355.1,210z"/>
	</g>
</g>
<g>
	<g>
		<defs>
			<rect id="SVGID_00000108279117920675256480000016329954824969933503_" x="67.6" y="97" width="648.1" height="331.8"/>
		</defs>
		<clipPath id="SVGID_00000152254618545133989390000002710923166490935477_">
			<use xlink:href="#SVGID_00000108279117920675256480000016329954824969933503_"  style="overflow:visible;"/>
		</clipPath>
		<path style="clip-path:url(#SVGID_00000152254618545133989390000002710923166490935477_);fill-opacity:0;" d="M365,210.5
			c0,1.5-1.3,2.8-2.8,2.8s-2.8-1.3-2.8-2.8s1.3-2.8,2.8-2.8S365,209,365,210.5z"/>
	</g>
</g>
<g>
	<g>
		<defs>
			<rect id="SVGID_00000060018534406029491790000000705234279520420737_" x="67.6" y="97" width="648.1" height="331.8"/>
		</defs>
		<clipPath id="SVGID_00000055667532151197066250000009126598906264568733_">
			<use xlink:href="#SVGID_00000060018534406029491790000000705234279520420737_"  style="overflow:visible;"/>
		</clipPath>
		<path style="clip-path:url(#SVGID_00000055667532151197066250000009126598906264568733_);fill-opacity:0;" d="M374.8,210.9
			c0,1.5-1.3,2.8-2.8,2.8s-2.8-1.3-2.8-2.8s1.3-2.8,2.8-2.8C373.5,208.1,374.8,209.4,374.8,210.9z"/>
	</g>
</g>
<g>
	<g>
		<defs>
			<rect id="SVGID_00000149340601603992030890000016674544837171563963_" x="67.6" y="97" width="648.1" height="331.8"/>
		</defs>
		<clipPath id="SVGID_00000030448181267455391840000002942206407345217677_">
			<use xlink:href="#SVGID_00000149340601603992030890000016674544837171563963_"  style="overflow:visible;"/>
		</clipPath>
		<path style="clip-path:url(#SVGID_00000030448181267455391840000002942206407345217677_);fill-opacity:0;" d="M384.6,212.7
			c0,1.5-1.3,2.8-2.8,2.8s-2.8-1.3-2.8-2.8s1.3-2.8,2.8-2.8C383.3,209.9,384.6,211.1,384.6,212.7z"/>
	</g>
</g>
<g>
	<g>
		<defs>
			<rect id="SVGID_00000095306021109271299750000006352705298842077351_" x="67.6" y="97" width="648.1" height="331.8"/>
		</defs>
		<clipPath id="SVGID_00000138564635086027896890000016077642889908946828_">
			<use xlink:href="#SVGID_00000095306021109271299750000006352705298842077351_"  style="overflow:visible;"/>
		</clipPath>
		<path style="clip-path:url(#SVGID_00000138564635086027896890000016077642889908946828_);fill-opacity:0;" d="M394.4,213.3
			c0,1.5-1.3,2.8-2.8,2.8s-2.8-1.3-2.8-2.8s1.3-2.8,2.8-2.8C393.2,210.5,394.4,211.7,394.4,213.3z"/>
	</g>
</g>
<g>
	<g>
		<defs>
			<rect id="SVGID_00000149381299780961795160000013898891122781291953_" x="67.6" y="97" width="648.1" height="331.8"/>
		</defs>
		<clipPath id="SVGID_00000136395969254782396150000014108126652686760067_">
			<use xlink:href="#SVGID_00000149381299780961795160000013898891122781291953_"  style="overflow:visible;"/>
		</clipPath>
		<path style="clip-path:url(#SVGID_00000136395969254782396150000014108126652686760067_);fill-opacity:0;" d="M404.2,214.8
			c0,1.5-1.3,2.8-2.8,2.8s-2.8-1.3-2.8-2.8s1.3-2.8,2.8-2.8C403,212,404.2,213.2,404.2,214.8z"/>
	</g>
</g>
<g>
	<g>
		<defs>
			<rect id="SVGID_00000068664808141733952660000004017082619514323128_" x="67.6" y="97" width="648.1" height="331.8"/>
		</defs>
		<clipPath id="SVGID_00000111193475360295760630000006891247462003431074_">
			<use xlink:href="#SVGID_00000068664808141733952660000004017082619514323128_"  style="overflow:visible;"/>
		</clipPath>
		<path style="clip-path:url(#SVGID_00000111193475360295760630000006891247462003431074_);fill-opacity:0;" d="M414.1,217.3
			c0,1.5-1.3,2.8-2.8,2.8s-2.8-1.3-2.8-2.8s1.3-2.8,2.8-2.8C412.8,214.5,414.1,215.8,414.1,217.3z"/>
	</g>
</g>
<g>
	<g>
		<defs>
			<rect id="SVGID_00000178173937772683637070000010714288008167843516_" x="67.6" y="97" width="648.1" height="331.8"/>
		</defs>
		<clipPath id="SVGID_00000033355168482128282280000015384891570371006085_">
			<use xlink:href="#SVGID_00000178173937772683637070000010714288008167843516_"  style="overflow:visible;"/>
		</clipPath>
		<path style="clip-path:url(#SVGID_00000033355168482128282280000015384891570371006085_);fill-opacity:0;" d="M423.9,214.9
			c0,1.5-1.3,2.8-2.8,2.8s-2.8-1.3-2.8-2.8s1.3-2.8,2.8-2.8C422.6,212.1,423.9,213.3,423.9,214.9z"/>
	</g>
</g>
<g>
	<g>
		<defs>
			<rect id="SVGID_00000109010060129652066690000001325529870002655660_" x="67.6" y="97" width="648.1" height="331.8"/>
		</defs>
		<clipPath id="SVGID_00000056416284873434064480000010750552588896769958_">
			<use xlink:href="#SVGID_00000109010060129652066690000001325529870002655660_"  style="overflow:visible;"/>
		</clipPath>
		<path style="clip-path:url(#SVGID_00000056416284873434064480000010750552588896769958_);fill-opacity:0;" d="M433.7,214.9
			c0,1.5-1.3,2.8-2.8,2.8s-2.8-1.3-2.8-2.8s1.3-2.8,2.8-2.8C432.4,212.1,433.7,213.3,433.7,214.9z"/>
	</g>
</g>
<g>
	<g>
		<defs>
			<rect id="SVGID_00000052100262497745153860000004006636211585298326_" x="67.6" y="97" width="648.1" height="331.8"/>
		</defs>
		<clipPath id="SVGID_00000181089640790924698320000012378010731458154663_">
			<use xlink:href="#SVGID_00000052100262497745153860000004006636211585298326_"  style="overflow:visible;"/>
		</clipPath>
		<path style="clip-path:url(#SVGID_00000181089640790924698320000012378010731458154663_);fill-opacity:0;" d="M443.5,216.3
			c0,1.5-1.3,2.8-2.8,2.8s-2.8-1.3-2.8-2.8s1.3-2.8,2.8-2.8S443.5,214.8,443.5,216.3z"/>
	</g>
</g>
<g>
	<g>
		<defs>
			<rect id="SVGID_00000129166306874387664820000013106695031028140683_" x="67.6" y="97" width="648.1" height="331.8"/>
		</defs>
		<clipPath id="SVGID_00000155114924247456472090000016571111602926951602_">
			<use xlink:href="#SVGID_00000129166306874387664820000013106695031028140683_"  style="overflow:visible;"/>
		</clipPath>
		<path style="clip-path:url(#SVGID_00000155114924247456472090000016571111602926951602_);fill-opacity:0;" d="M453.3,216.6
			c0,1.5-1.3,2.8-2.8,2.8s-2.8-1.3-2.8-2.8s1.3-2.8,2.8-2.8C452.1,213.8,453.3,215.1,453.3,216.6z"/>
	</g>
</g>
<g>
	<g>
		<defs>
			<rect id="SVGID_00000023262044215906960050000009542277562104906906_" x="67.6" y="97" width="648.1" height="331.8"/>
		</defs>
		<clipPath id="SVGID_00000165199642996588705810000000147613065645549451_">
			<use xlink:href="#SVGID_00000023262044215906960050000009542277562104906906_"  style="overflow:visible;"/>
		</clipPath>
		<path style="clip-path:url(#SVGID_00000165199642996588705810000000147613065645549451_);fill-opacity:0;" d="M463.2,217
			c0,1.5-1.3,2.8-2.8,2.8s-2.8-1.3-2.8-2.8s1.3-2.8,2.8-2.8C461.9,214.2,463.2,215.5,463.2,217z"/>
	</g>
</g>
<g>
	<g>
		<defs>
			<rect id="SVGID_00000104690228468607965750000015146976695039177640_" x="67.6" y="97" width="648.1" height="331.8"/>
		</defs>
		<clipPath id="SVGID_00000165943480001251622230000006547567572144608438_">
			<use xlink:href="#SVGID_00000104690228468607965750000015146976695039177640_"  style="overflow:visible;"/>
		</clipPath>
		<path style="clip-path:url(#SVGID_00000165943480001251622230000006547567572144608438_);fill-opacity:0;" d="M473,216.5
			c0,1.5-1.3,2.8-2.8,2.8s-2.8-1.3-2.8-2.8s1.3-2.8,2.8-2.8S473,215,473,216.5z"/>
	</g>
</g>
<g>
	<g>
		<defs>
			<rect id="SVGID_00000023249080632405580470000011179193512974806432_" x="67.6" y="97" width="648.1" height="331.8"/>
		</defs>
		<clipPath id="SVGID_00000062898298309210060440000008825624675486799244_">
			<use xlink:href="#SVGID_00000023249080632405580470000011179193512974806432_"  style="overflow:visible;"/>
		</clipPath>
		<path style="clip-path:url(#SVGID_00000062898298309210060440000008825624675486799244_);fill-opacity:0;" d="M482.8,216.7
			c0,1.5-1.3,2.8-2.8,2.8s-2.8-1.3-2.8-2.8s1.3-2.8,2.8-2.8S482.8,215.1,482.8,216.7z"/>
	</g>
</g>
<g>
	<g>
		<defs>
			<rect id="SVGID_00000023978258346874091330000016809870187454270623_" x="67.6" y="97" width="648.1" height="331.8"/>
		</defs>
		<clipPath id="SVGID_00000072260022589006880610000000293240044138259619_">
			<use xlink:href="#SVGID_00000023978258346874091330000016809870187454270623_"  style="overflow:visible;"/>
		</clipPath>
		<path style="clip-path:url(#SVGID_00000072260022589006880610000000293240044138259619_);fill-opacity:0;" d="M492.6,219.1
			c0,1.5-1.3,2.8-2.8,2.8s-2.8-1.3-2.8-2.8s1.3-2.8,2.8-2.8C491.4,216.3,492.6,217.6,492.6,219.1z"/>
	</g>
</g>
<g class="st43">
	<g class="st44">
		<defs>
			<rect id="SVGID_00000154384546292534236240000016737108960078154924_" x="64.3" y="47.1" width="694.4" height="355.5"/>
		</defs>
		<clipPath id="SVGID_00000161610117770771940190000018432430161883136414_">
			<use xlink:href="#SVGID_00000154384546292534236240000016737108960078154924_"  style="overflow:visible;"/>
		</clipPath>
		<path style="clip-path:url(#SVGID_00000161610117770771940190000018432430161883136414_);fill-opacity:0;" d="M530.2,178.2
			c0,1.7-1.3,3-3,3s-3-1.3-3-3s1.3-3,3-3S530.2,176.6,530.2,178.2z"/>
	</g>
</g>
<g>
	<g>
		<defs>
			<rect id="SVGID_00000034077102260694548240000012094749087688420779_" x="67.6" y="97" width="648.1" height="331.8"/>
		</defs>
		<clipPath id="SVGID_00000031910335051451435540000001998142418482006174_">
			<use xlink:href="#SVGID_00000034077102260694548240000012094749087688420779_"  style="overflow:visible;"/>
		</clipPath>
		<path style="clip-path:url(#SVGID_00000031910335051451435540000001998142418482006174_);fill-opacity:0;" d="M512.3,219.6
			c0,1.5-1.3,2.8-2.8,2.8s-2.8-1.3-2.8-2.8s1.3-2.8,2.8-2.8S512.3,218.1,512.3,219.6z"/>
	</g>
</g>
<g>
	<g>
		<defs>
			<rect id="SVGID_00000081630811685745904520000008360371237064478885_" x="67.6" y="97" width="648.1" height="331.8"/>
		</defs>
		<clipPath id="SVGID_00000141419326073137718590000011383842434773284244_">
			<use xlink:href="#SVGID_00000081630811685745904520000008360371237064478885_"  style="overflow:visible;"/>
		</clipPath>
		<path style="clip-path:url(#SVGID_00000141419326073137718590000011383842434773284244_);fill-opacity:0;" d="M522.1,219.7
			c0,1.5-1.3,2.8-2.8,2.8s-2.8-1.3-2.8-2.8s1.3-2.8,2.8-2.8S522.1,218.1,522.1,219.7z"/>
	</g>
</g>
<g>
	<g>
		<defs>
			<rect id="SVGID_00000165198297568419830420000000111553428437823373_" x="67.6" y="97" width="648.1" height="331.8"/>
		</defs>
		<clipPath id="SVGID_00000074419145162765066830000009371792356644138156_">
			<use xlink:href="#SVGID_00000165198297568419830420000000111553428437823373_"  style="overflow:visible;"/>
		</clipPath>
		<path style="clip-path:url(#SVGID_00000074419145162765066830000009371792356644138156_);fill-opacity:0;" d="M531.9,219.7
			c0,1.5-1.3,2.8-2.8,2.8s-2.8-1.3-2.8-2.8s1.3-2.8,2.8-2.8C530.6,216.9,531.9,218.2,531.9,219.7z"/>
	</g>
</g>
<g>
	<g>
		<defs>
			<rect id="SVGID_00000015319750316187781940000017198353767429217951_" x="67.6" y="97" width="648.1" height="331.8"/>
		</defs>
		<clipPath id="SVGID_00000085929908065788599120000000619928468207012539_">
			<use xlink:href="#SVGID_00000015319750316187781940000017198353767429217951_"  style="overflow:visible;"/>
		</clipPath>
		<path style="clip-path:url(#SVGID_00000085929908065788599120000000619928468207012539_);fill-opacity:0;" d="M541.7,219.3
			c0,1.5-1.3,2.8-2.8,2.8s-2.8-1.3-2.8-2.8s1.3-2.8,2.8-2.8S541.7,217.8,541.7,219.3z"/>
	</g>
</g>
<g>
	<g>
		<defs>
			<rect id="SVGID_00000027575468866181694910000007721853612134927787_" x="67.6" y="97" width="648.1" height="331.8"/>
		</defs>
		<clipPath id="SVGID_00000103951176890612836540000004874279047286185611_">
			<use xlink:href="#SVGID_00000027575468866181694910000007721853612134927787_"  style="overflow:visible;"/>
		</clipPath>
		<path style="clip-path:url(#SVGID_00000103951176890612836540000004874279047286185611_);fill-opacity:0;" d="M551.5,219.3
			c0,1.5-1.3,2.8-2.8,2.8s-2.8-1.3-2.8-2.8s1.3-2.8,2.8-2.8S551.5,217.7,551.5,219.3z"/>
	</g>
</g>
<g>
	<g>
		<defs>
			<rect id="SVGID_00000110462614083909348850000014479880249185845943_" x="67.6" y="97" width="648.1" height="331.8"/>
		</defs>
		<clipPath id="SVGID_00000158007342090687312290000016138820216928463529_">
			<use xlink:href="#SVGID_00000110462614083909348850000014479880249185845943_"  style="overflow:visible;"/>
		</clipPath>
		<path style="clip-path:url(#SVGID_00000158007342090687312290000016138820216928463529_);fill-opacity:0;" d="M561.3,219.8
			c0,1.5-1.3,2.8-2.8,2.8s-2.8-1.3-2.8-2.8s1.3-2.8,2.8-2.8C560.1,217,561.3,218.2,561.3,219.8z"/>
	</g>
</g>
<g>
	<g>
		<defs>
			<rect id="SVGID_00000150805609484293218960000011983865748537495219_" x="67.6" y="97" width="648.1" height="331.8"/>
		</defs>
		<clipPath id="SVGID_00000026145713591543064240000010206731824442642065_">
			<use xlink:href="#SVGID_00000150805609484293218960000011983865748537495219_"  style="overflow:visible;"/>
		</clipPath>
		<path style="clip-path:url(#SVGID_00000026145713591543064240000010206731824442642065_);fill-opacity:0;" d="M571.2,219.9
			c0,1.5-1.3,2.8-2.8,2.8s-2.8-1.3-2.8-2.8s1.3-2.8,2.8-2.8C569.9,217.1,571.2,218.3,571.2,219.9z"/>
	</g>
</g>
<g>
	<g>
		<defs>
			<rect id="SVGID_00000090256776689925574020000007237921608454643123_" x="67.6" y="97" width="648.1" height="331.8"/>
		</defs>
		<clipPath id="SVGID_00000036239451465937203660000007786663298877343122_">
			<use xlink:href="#SVGID_00000090256776689925574020000007237921608454643123_"  style="overflow:visible;"/>
		</clipPath>
		<path style="clip-path:url(#SVGID_00000036239451465937203660000007786663298877343122_);fill-opacity:0;" d="M581,219.9
			c0,1.5-1.3,2.8-2.8,2.8s-2.8-1.3-2.8-2.8s1.3-2.8,2.8-2.8C579.7,217.1,581,218.3,581,219.9z"/>
	</g>
</g>
<g>
	<g>
		<defs>
			<rect id="SVGID_00000002370499856785044610000001258094558556790182_" x="67.6" y="97" width="648.1" height="331.8"/>
		</defs>
		<clipPath id="SVGID_00000111180083813900047570000004153538724339332525_">
			<use xlink:href="#SVGID_00000002370499856785044610000001258094558556790182_"  style="overflow:visible;"/>
		</clipPath>
		<path style="clip-path:url(#SVGID_00000111180083813900047570000004153538724339332525_);fill-opacity:0;" d="M590.8,220
			c0,1.5-1.3,2.8-2.8,2.8s-2.8-1.3-2.8-2.8s1.3-2.8,2.8-2.8C589.6,217.2,590.8,218.4,590.8,220z"/>
	</g>
</g>
<g>
	<g>
		<defs>
			<rect id="SVGID_00000102503244141132080760000013219288814912349848_" x="67.6" y="97" width="648.1" height="331.8"/>
		</defs>
		<clipPath id="SVGID_00000008857689577737176730000005111805715234180993_">
			<use xlink:href="#SVGID_00000102503244141132080760000013219288814912349848_"  style="overflow:visible;"/>
		</clipPath>
		<path style="clip-path:url(#SVGID_00000008857689577737176730000005111805715234180993_);fill-opacity:0;" d="M600.6,220
			c0,1.5-1.3,2.8-2.8,2.8s-2.8-1.3-2.8-2.8s1.3-2.8,2.8-2.8S600.6,218.4,600.6,220z"/>
	</g>
</g>
<g>
	<g>
		<defs>
			<rect id="SVGID_00000043454581249958349890000000235686747636126600_" x="67.6" y="97" width="648.1" height="331.8"/>
		</defs>
		<clipPath id="SVGID_00000034777727744663469490000001910969122029605277_">
			<use xlink:href="#SVGID_00000043454581249958349890000000235686747636126600_"  style="overflow:visible;"/>
		</clipPath>
		<path style="clip-path:url(#SVGID_00000034777727744663469490000001910969122029605277_);fill-opacity:0;" d="M610.4,220
			c0,1.5-1.3,2.8-2.8,2.8s-2.8-1.3-2.8-2.8s1.3-2.8,2.8-2.8S610.4,218.5,610.4,220z"/>
	</g>
</g>
<g>
	<g>
		<defs>
			<rect id="SVGID_00000028293694369076473780000016434811655831568018_" x="67.6" y="97" width="648.1" height="331.8"/>
		</defs>
		<clipPath id="SVGID_00000166658889827105074130000009327462199517008280_">
			<use xlink:href="#SVGID_00000028293694369076473780000016434811655831568018_"  style="overflow:visible;"/>
		</clipPath>
		<path style="clip-path:url(#SVGID_00000166658889827105074130000009327462199517008280_);fill-opacity:0;" d="M620.3,220.2
			c0,1.5-1.3,2.8-2.8,2.8s-2.8-1.3-2.8-2.8s1.3-2.8,2.8-2.8S620.3,218.7,620.3,220.2z"/>
	</g>
</g>
<g>
	<g>
		<defs>
			<rect id="SVGID_00000018944469674615687300000004105307920602348453_" x="67.6" y="97" width="648.1" height="331.8"/>
		</defs>
		<clipPath id="SVGID_00000092455601862924608710000009243579734619643832_">
			<use xlink:href="#SVGID_00000018944469674615687300000004105307920602348453_"  style="overflow:visible;"/>
		</clipPath>
		<path style="clip-path:url(#SVGID_00000092455601862924608710000009243579734619643832_);fill:#2A8434;" d="M669.4,223.3
			c0,1.5-1.3,2.8-2.8,2.8s-2.8-1.3-2.8-2.8s1.3-2.8,2.8-2.8S669.4,221.8,669.4,223.3z"/>
	</g>
</g>
<g class="st43">
	<g class="st44">
		<defs>
			<rect id="SVGID_00000173141409162658215030000003741297030933568666_" x="64.3" y="47.1" width="694.4" height="355.5"/>
		</defs>
		<clipPath id="SVGID_00000008830537615844804320000017891520745422116263_">
			<use xlink:href="#SVGID_00000173141409162658215030000003741297030933568666_"  style="overflow:visible;"/>
		</clipPath>
		<path style="clip-path:url(#SVGID_00000008830537615844804320000017891520745422116263_);fill:#3D700D;fill-opacity:0;" d="
			M761.7,184.7c0,1.7-1.3,3-3,3s-3-1.3-3-3s1.3-3,3-3S761.7,183.1,761.7,184.7z"/>
	</g>
</g>
<path d="M55.9,428.6c0-1,0.1-1.7,0.3-2.3c0.2-0.6,0.5-1,0.9-1.3s0.9-0.5,1.5-0.5c0.4,0,0.8,0.1,1.1,0.3c0.3,0.2,0.6,0.4,0.8,0.8
	c0.2,0.3,0.4,0.7,0.5,1.2s0.2,1.1,0.2,1.9c0,0.9-0.1,1.7-0.3,2.3c-0.2,0.6-0.5,1-0.9,1.3s-0.9,0.5-1.5,0.5c-0.8,0-1.4-0.3-1.8-0.8
	C56.2,431.2,55.9,430.1,55.9,428.6z M56.9,428.6c0,1.3,0.2,2.2,0.5,2.6s0.7,0.7,1.1,0.7c0.5,0,0.8-0.2,1.1-0.7
	c0.3-0.4,0.5-1.3,0.5-2.6c0-1.3-0.2-2.2-0.5-2.6s-0.7-0.7-1.2-0.7c-0.4,0-0.8,0.2-1.1,0.6C57.1,426.4,56.9,427.3,56.9,428.6z"/>
<path d="M36.3,364.1l1-0.1c0.1,0.5,0.3,0.9,0.5,1.1c0.3,0.3,0.6,0.4,1,0.4c0.5,0,0.9-0.2,1.2-0.5c0.3-0.4,0.5-0.8,0.5-1.4
	s-0.2-1-0.5-1.3s-0.7-0.5-1.2-0.5c-0.3,0-0.6,0.1-0.9,0.2c-0.3,0.1-0.5,0.3-0.6,0.6l-0.9-0.1l0.8-4.1h4v0.9H38l-0.4,2.2
	c0.5-0.3,1-0.5,1.5-0.5c0.7,0,1.3,0.2,1.8,0.7s0.7,1.1,0.7,1.9c0,0.7-0.2,1.3-0.6,1.9c-0.5,0.6-1.2,1-2.1,1c-0.7,0-1.3-0.2-1.8-0.6
	C36.7,365.3,36.4,364.8,36.3,364.1z M42.9,362.3c0-1,0.1-1.7,0.3-2.3c0.2-0.6,0.5-1,0.9-1.3s0.9-0.5,1.5-0.5c0.4,0,0.8,0.1,1.1,0.3
	c0.3,0.2,0.6,0.4,0.8,0.8c0.2,0.3,0.4,0.7,0.5,1.2s0.2,1.1,0.2,1.9c0,0.9-0.1,1.7-0.3,2.3c-0.2,0.6-0.5,1-0.9,1.3s-0.9,0.5-1.5,0.5
	c-0.8,0-1.4-0.3-1.8-0.8C43.1,364.8,42.9,363.8,42.9,362.3z M43.9,362.3c0,1.3,0.2,2.2,0.5,2.6s0.7,0.7,1.1,0.7
	c0.5,0,0.8-0.2,1.1-0.7c0.3-0.4,0.5-1.3,0.5-2.6c0-1.3-0.2-2.2-0.5-2.6s-0.7-0.7-1.2-0.7c-0.4,0-0.8,0.2-1.1,0.6
	C44,360,43.9,360.9,43.9,362.3z M49.4,362.3c0-1,0.1-1.7,0.3-2.3c0.2-0.6,0.5-1,0.9-1.3s0.9-0.5,1.5-0.5c0.4,0,0.8,0.1,1.1,0.3
	c0.3,0.2,0.6,0.4,0.8,0.8c0.2,0.3,0.4,0.7,0.5,1.2s0.2,1.1,0.2,1.9c0,0.9-0.1,1.7-0.3,2.3c-0.2,0.6-0.5,1-0.9,1.3s-0.9,0.5-1.5,0.5
	c-0.8,0-1.4-0.3-1.8-0.8C49.7,364.8,49.4,363.8,49.4,362.3z M50.4,362.3c0,1.3,0.2,2.2,0.5,2.6s0.7,0.7,1.1,0.7
	c0.5,0,0.8-0.2,1.1-0.7c0.3-0.4,0.5-1.3,0.5-2.6c0-1.3-0.2-2.2-0.5-2.6s-0.7-0.7-1.2-0.7c-0.4,0-0.8,0.2-1.1,0.6
	C50.6,360,50.4,360.9,50.4,362.3z M55.9,362.3c0-1,0.1-1.7,0.3-2.3c0.2-0.6,0.5-1,0.9-1.3s0.9-0.5,1.5-0.5c0.4,0,0.8,0.1,1.1,0.3
	c0.3,0.2,0.6,0.4,0.8,0.8c0.2,0.3,0.4,0.7,0.5,1.2s0.2,1.1,0.2,1.9c0,0.9-0.1,1.7-0.3,2.3c-0.2,0.6-0.5,1-0.9,1.3s-0.9,0.5-1.5,0.5
	c-0.8,0-1.4-0.3-1.8-0.8C56.2,364.8,55.9,363.8,55.9,362.3z M56.9,362.3c0,1.3,0.2,2.2,0.5,2.6s0.7,0.7,1.1,0.7
	c0.5,0,0.8-0.2,1.1-0.7c0.3-0.4,0.5-1.3,0.5-2.6c0-1.3-0.2-2.2-0.5-2.6s-0.7-0.7-1.2-0.7c-0.4,0-0.8,0.2-1.1,0.6
	C57.1,360,56.9,360.9,56.9,362.3z"/>
<path d="M33.5,299.8h-1v-6.3c-0.2,0.2-0.6,0.5-0.9,0.7c-0.4,0.2-0.7,0.4-1,0.5v-0.9c0.5-0.3,1-0.6,1.4-0.9c0.4-0.4,0.7-0.7,0.9-1.1
	h0.6V299.8z M36.3,295.9c0-1,0.1-1.7,0.3-2.3c0.2-0.6,0.5-1,0.9-1.3s0.9-0.5,1.5-0.5c0.4,0,0.8,0.1,1.1,0.3c0.3,0.2,0.6,0.4,0.8,0.8
	c0.2,0.3,0.4,0.7,0.5,1.2s0.2,1.1,0.2,1.9c0,0.9-0.1,1.7-0.3,2.3c-0.2,0.6-0.5,1-0.9,1.3s-0.9,0.5-1.5,0.5c-0.8,0-1.4-0.3-1.8-0.8
	C36.6,298.5,36.3,297.4,36.3,295.9z M37.3,295.9c0,1.3,0.2,2.2,0.5,2.6s0.7,0.7,1.1,0.7c0.5,0,0.8-0.2,1.1-0.7
	c0.3-0.4,0.5-1.3,0.5-2.6c0-1.3-0.2-2.2-0.5-2.6s-0.7-0.7-1.2-0.7c-0.4,0-0.8,0.2-1.1,0.6C37.5,293.7,37.3,294.6,37.3,295.9z
	 M42.9,295.9c0-1,0.1-1.7,0.3-2.3c0.2-0.6,0.5-1,0.9-1.3s0.9-0.5,1.5-0.5c0.4,0,0.8,0.1,1.1,0.3c0.3,0.2,0.6,0.4,0.8,0.8
	c0.2,0.3,0.4,0.7,0.5,1.2s0.2,1.1,0.2,1.9c0,0.9-0.1,1.7-0.3,2.3c-0.2,0.6-0.5,1-0.9,1.3s-0.9,0.5-1.5,0.5c-0.8,0-1.4-0.3-1.8-0.8
	C43.1,298.5,42.9,297.4,42.9,295.9z M43.9,295.9c0,1.3,0.2,2.2,0.5,2.6s0.7,0.7,1.1,0.7c0.5,0,0.8-0.2,1.1-0.7
	c0.3-0.4,0.5-1.3,0.5-2.6c0-1.3-0.2-2.2-0.5-2.6s-0.7-0.7-1.2-0.7c-0.4,0-0.8,0.2-1.1,0.6C44,293.7,43.9,294.6,43.9,295.9z
	 M49.4,295.9c0-1,0.1-1.7,0.3-2.3c0.2-0.6,0.5-1,0.9-1.3s0.9-0.5,1.5-0.5c0.4,0,0.8,0.1,1.1,0.3c0.3,0.2,0.6,0.4,0.8,0.8
	c0.2,0.3,0.4,0.7,0.5,1.2s0.2,1.1,0.2,1.9c0,0.9-0.1,1.7-0.3,2.3c-0.2,0.6-0.5,1-0.9,1.3s-0.9,0.5-1.5,0.5c-0.8,0-1.4-0.3-1.8-0.8
	C49.7,298.5,49.4,297.4,49.4,295.9z M50.4,295.9c0,1.3,0.2,2.2,0.5,2.6s0.7,0.7,1.1,0.7c0.5,0,0.8-0.2,1.1-0.7
	c0.3-0.4,0.5-1.3,0.5-2.6c0-1.3-0.2-2.2-0.5-2.6s-0.7-0.7-1.2-0.7c-0.4,0-0.8,0.2-1.1,0.6C50.6,293.7,50.4,294.6,50.4,295.9z
	 M55.9,295.9c0-1,0.1-1.7,0.3-2.3c0.2-0.6,0.5-1,0.9-1.3s0.9-0.5,1.5-0.5c0.4,0,0.8,0.1,1.1,0.3c0.3,0.2,0.6,0.4,0.8,0.8
	c0.2,0.3,0.4,0.7,0.5,1.2s0.2,1.1,0.2,1.9c0,0.9-0.1,1.7-0.3,2.3c-0.2,0.6-0.5,1-0.9,1.3s-0.9,0.5-1.5,0.5c-0.8,0-1.4-0.3-1.8-0.8
	C56.2,298.5,55.9,297.4,55.9,295.9z M56.9,295.9c0,1.3,0.2,2.2,0.5,2.6s0.7,0.7,1.1,0.7c0.5,0,0.8-0.2,1.1-0.7
	c0.3-0.4,0.5-1.3,0.5-2.6c0-1.3-0.2-2.2-0.5-2.6s-0.7-0.7-1.2-0.7c-0.4,0-0.8,0.2-1.1,0.6C57.1,293.7,56.9,294.6,56.9,295.9z"/>
<path d="M33.5,233.5h-1v-6.3c-0.2,0.2-0.6,0.5-0.9,0.7c-0.4,0.2-0.7,0.4-1,0.5v-0.9c0.5-0.3,1-0.6,1.4-0.9c0.4-0.4,0.7-0.7,0.9-1.1
	h0.6V233.5z M36.3,231.4l1-0.1c0.1,0.5,0.3,0.9,0.5,1.1c0.3,0.3,0.6,0.4,1,0.4c0.5,0,0.9-0.2,1.2-0.5c0.3-0.4,0.5-0.8,0.5-1.4
	c0-0.6-0.2-1-0.5-1.3s-0.7-0.5-1.2-0.5c-0.3,0-0.6,0.1-0.9,0.2c-0.3,0.1-0.5,0.3-0.6,0.6l-0.9-0.1l0.8-4.1h4v0.9H38l-0.4,2.2
	c0.5-0.3,1-0.5,1.5-0.5c0.7,0,1.3,0.2,1.8,0.7s0.7,1.1,0.7,1.9c0,0.7-0.2,1.3-0.6,1.9c-0.5,0.6-1.2,1-2.1,1c-0.7,0-1.3-0.2-1.8-0.6
	C36.7,232.6,36.4,232.1,36.3,231.4z M42.9,229.5c0-1,0.1-1.7,0.3-2.3s0.5-1,0.9-1.3s0.9-0.5,1.5-0.5c0.4,0,0.8,0.1,1.1,0.3
	s0.6,0.4,0.8,0.8c0.2,0.3,0.4,0.7,0.5,1.2s0.2,1.1,0.2,1.9c0,0.9-0.1,1.7-0.3,2.3s-0.5,1-0.9,1.3s-0.9,0.5-1.5,0.5
	c-0.8,0-1.4-0.3-1.8-0.8C43.1,232.1,42.9,231,42.9,229.5z M43.9,229.5c0,1.3,0.2,2.2,0.5,2.6c0.3,0.4,0.7,0.7,1.1,0.7
	c0.5,0,0.8-0.2,1.1-0.7c0.3-0.4,0.5-1.3,0.5-2.6s-0.2-2.2-0.5-2.6c-0.3-0.4-0.7-0.7-1.2-0.7c-0.4,0-0.8,0.2-1.1,0.6
	C44,227.3,43.9,228.2,43.9,229.5z M49.4,229.5c0-1,0.1-1.7,0.3-2.3s0.5-1,0.9-1.3s0.9-0.5,1.5-0.5c0.4,0,0.8,0.1,1.1,0.3
	s0.6,0.4,0.8,0.8c0.2,0.3,0.4,0.7,0.5,1.2s0.2,1.1,0.2,1.9c0,0.9-0.1,1.7-0.3,2.3s-0.5,1-0.9,1.3s-0.9,0.5-1.5,0.5
	c-0.8,0-1.4-0.3-1.8-0.8C49.7,232.1,49.4,231,49.4,229.5z M50.4,229.5c0,1.3,0.2,2.2,0.5,2.6c0.3,0.4,0.7,0.7,1.1,0.7
	c0.5,0,0.8-0.2,1.1-0.7c0.3-0.4,0.5-1.3,0.5-2.6s-0.2-2.2-0.5-2.6c-0.3-0.4-0.7-0.7-1.2-0.7c-0.4,0-0.8,0.2-1.1,0.6
	C50.6,227.3,50.4,228.2,50.4,229.5z M55.9,229.5c0-1,0.1-1.7,0.3-2.3s0.5-1,0.9-1.3s0.9-0.5,1.5-0.5c0.4,0,0.8,0.1,1.1,0.3
	s0.6,0.4,0.8,0.8c0.2,0.3,0.4,0.7,0.5,1.2s0.2,1.1,0.2,1.9c0,0.9-0.1,1.7-0.3,2.3s-0.5,1-0.9,1.3s-0.9,0.5-1.5,0.5
	c-0.8,0-1.4-0.3-1.8-0.8C56.2,232.1,55.9,231,55.9,229.5z M56.9,229.5c0,1.3,0.2,2.2,0.5,2.6c0.3,0.4,0.7,0.7,1.1,0.7
	c0.5,0,0.8-0.2,1.1-0.7c0.3-0.4,0.5-1.3,0.5-2.6s-0.2-2.2-0.5-2.6c-0.3-0.4-0.7-0.7-1.2-0.7c-0.4,0-0.8,0.2-1.1,0.6
	C57.1,227.3,56.9,228.2,56.9,229.5z"/>
<path d="M35,166.2v0.9h-5.3c0-0.2,0-0.5,0.1-0.7c0.1-0.4,0.3-0.7,0.6-1.1c0.3-0.3,0.7-0.8,1.3-1.2c0.9-0.7,1.5-1.3,1.8-1.7
	s0.5-0.8,0.5-1.2s-0.1-0.7-0.4-1c-0.3-0.3-0.6-0.4-1.1-0.4s-0.9,0.1-1.1,0.4c-0.3,0.3-0.4,0.7-0.4,1.2l-1-0.1
	c0.1-0.8,0.3-1.3,0.8-1.7s1.1-0.6,1.8-0.6c0.8,0,1.4,0.2,1.8,0.6s0.7,1,0.7,1.6c0,0.3-0.1,0.6-0.2,0.9c-0.1,0.3-0.3,0.6-0.7,1
	c-0.3,0.3-0.8,0.8-1.5,1.4c-0.6,0.5-1,0.8-1.2,1s-0.3,0.3-0.4,0.5H35V166.2z M36.3,163.2c0-1,0.1-1.7,0.3-2.3s0.5-1,0.9-1.3
	s0.9-0.5,1.5-0.5c0.4,0,0.8,0.1,1.1,0.3s0.6,0.4,0.8,0.8c0.2,0.3,0.4,0.7,0.5,1.2s0.2,1.1,0.2,1.9c0,0.9-0.1,1.7-0.3,2.3
	s-0.5,1-0.9,1.3s-0.9,0.5-1.5,0.5c-0.8,0-1.4-0.3-1.8-0.8C36.6,165.8,36.3,164.7,36.3,163.2z M37.3,163.2c0,1.3,0.2,2.2,0.5,2.6
	c0.3,0.4,0.7,0.7,1.1,0.7c0.5,0,0.8-0.2,1.1-0.7c0.3-0.4,0.5-1.3,0.5-2.6s-0.2-2.2-0.5-2.6c-0.3-0.4-0.7-0.7-1.2-0.7
	c-0.4,0-0.8,0.2-1.1,0.6C37.5,160.9,37.3,161.8,37.3,163.2z M42.9,163.2c0-1,0.1-1.7,0.3-2.3s0.5-1,0.9-1.3s0.9-0.5,1.5-0.5
	c0.4,0,0.8,0.1,1.1,0.3s0.6,0.4,0.8,0.8c0.2,0.3,0.4,0.7,0.5,1.2s0.2,1.1,0.2,1.9c0,0.9-0.1,1.7-0.3,2.3s-0.5,1-0.9,1.3
	s-0.9,0.5-1.5,0.5c-0.8,0-1.4-0.3-1.8-0.8C43.1,165.8,42.9,164.7,42.9,163.2z M43.9,163.2c0,1.3,0.2,2.2,0.5,2.6
	c0.3,0.4,0.7,0.7,1.1,0.7c0.5,0,0.8-0.2,1.1-0.7c0.3-0.4,0.5-1.3,0.5-2.6s-0.2-2.2-0.5-2.6c-0.3-0.4-0.7-0.7-1.2-0.7
	c-0.4,0-0.8,0.2-1.1,0.6C44,160.9,43.9,161.8,43.9,163.2z M49.4,163.2c0-1,0.1-1.7,0.3-2.3s0.5-1,0.9-1.3s0.9-0.5,1.5-0.5
	c0.4,0,0.8,0.1,1.1,0.3s0.6,0.4,0.8,0.8c0.2,0.3,0.4,0.7,0.5,1.2s0.2,1.1,0.2,1.9c0,0.9-0.1,1.7-0.3,2.3s-0.5,1-0.9,1.3
	s-0.9,0.5-1.5,0.5c-0.8,0-1.4-0.3-1.8-0.8C49.7,165.8,49.4,164.7,49.4,163.2z M50.4,163.2c0,1.3,0.2,2.2,0.5,2.6
	c0.3,0.4,0.7,0.7,1.1,0.7c0.5,0,0.8-0.2,1.1-0.7c0.3-0.4,0.5-1.3,0.5-2.6s-0.2-2.2-0.5-2.6c-0.3-0.4-0.7-0.7-1.2-0.7
	c-0.4,0-0.8,0.2-1.1,0.6C50.6,160.9,50.4,161.8,50.4,163.2z M55.9,163.2c0-1,0.1-1.7,0.3-2.3s0.5-1,0.9-1.3s0.9-0.5,1.5-0.5
	c0.4,0,0.8,0.1,1.1,0.3s0.6,0.4,0.8,0.8c0.2,0.3,0.4,0.7,0.5,1.2s0.2,1.1,0.2,1.9c0,0.9-0.1,1.7-0.3,2.3s-0.5,1-0.9,1.3
	s-0.9,0.5-1.5,0.5c-0.8,0-1.4-0.3-1.8-0.8C56.2,165.8,55.9,164.7,55.9,163.2z M56.9,163.2c0,1.3,0.2,2.2,0.5,2.6
	c0.3,0.4,0.7,0.7,1.1,0.7c0.5,0,0.8-0.2,1.1-0.7c0.3-0.4,0.5-1.3,0.5-2.6s-0.2-2.2-0.5-2.6c-0.3-0.4-0.7-0.7-1.2-0.7
	c-0.4,0-0.8,0.2-1.1,0.6C57.1,160.9,56.9,161.8,56.9,163.2z"/>
<path d="M35,99.8v0.9h-5.3c0-0.2,0-0.5,0.1-0.7c0.1-0.4,0.3-0.7,0.6-1.1c0.3-0.3,0.7-0.8,1.3-1.2c0.9-0.7,1.5-1.3,1.8-1.7
	c0.3-0.4,0.5-0.8,0.5-1.2c0-0.4-0.1-0.7-0.4-1c-0.3-0.3-0.6-0.4-1.1-0.4s-0.9,0.1-1.1,0.4C31.1,94.1,31,94.5,31,95l-1-0.1
	c0.1-0.8,0.3-1.3,0.8-1.7c0.5-0.4,1.1-0.6,1.8-0.6c0.8,0,1.4,0.2,1.8,0.6s0.7,1,0.7,1.6c0,0.3-0.1,0.6-0.2,0.9
	c-0.1,0.3-0.3,0.6-0.7,1c-0.3,0.3-0.8,0.8-1.5,1.4c-0.6,0.5-1,0.8-1.2,1s-0.3,0.3-0.4,0.5H35V99.8z M36.3,98.7l1-0.1
	c0.1,0.5,0.3,0.9,0.5,1.1c0.3,0.3,0.6,0.4,1,0.4c0.5,0,0.9-0.2,1.2-0.5c0.3-0.4,0.5-0.8,0.5-1.4s-0.2-1-0.5-1.3s-0.7-0.5-1.2-0.5
	c-0.3,0-0.6,0.1-0.9,0.2c-0.3,0.1-0.5,0.3-0.6,0.6L36.5,97l0.8-4.1h4v0.9h-3.2L37.7,96c0.5-0.3,1-0.5,1.5-0.5c0.7,0,1.3,0.2,1.8,0.7
	s0.7,1.1,0.7,1.9c0,0.7-0.2,1.3-0.6,1.9c-0.5,0.6-1.2,1-2.1,1c-0.7,0-1.3-0.2-1.8-0.6C36.7,99.9,36.4,99.3,36.3,98.7z M42.9,96.8
	c0-1,0.1-1.7,0.3-2.3c0.2-0.6,0.5-1,0.9-1.3s0.9-0.5,1.5-0.5c0.4,0,0.8,0.1,1.1,0.3c0.3,0.2,0.6,0.4,0.8,0.8
	c0.2,0.3,0.4,0.7,0.5,1.2s0.2,1.1,0.2,1.9c0,0.9-0.1,1.7-0.3,2.3c-0.2,0.6-0.5,1-0.9,1.3s-0.9,0.5-1.5,0.5c-0.8,0-1.4-0.3-1.8-0.8
	C43.1,99.4,42.9,98.3,42.9,96.8z M43.9,96.8c0,1.3,0.2,2.2,0.5,2.6s0.7,0.7,1.1,0.7c0.5,0,0.8-0.2,1.1-0.7c0.3-0.4,0.5-1.3,0.5-2.6
	c0-1.3-0.2-2.2-0.5-2.6s-0.7-0.7-1.2-0.7c-0.4,0-0.8,0.2-1.1,0.6C44,94.6,43.9,95.5,43.9,96.8z M49.4,96.8c0-1,0.1-1.7,0.3-2.3
	c0.2-0.6,0.5-1,0.9-1.3s0.9-0.5,1.5-0.5c0.4,0,0.8,0.1,1.1,0.3c0.3,0.2,0.6,0.4,0.8,0.8c0.2,0.3,0.4,0.7,0.5,1.2s0.2,1.1,0.2,1.9
	c0,0.9-0.1,1.7-0.3,2.3c-0.2,0.6-0.5,1-0.9,1.3S52.6,101,52,101c-0.8,0-1.4-0.3-1.8-0.8C49.7,99.4,49.4,98.3,49.4,96.8z M50.4,96.8
	c0,1.3,0.2,2.2,0.5,2.6s0.7,0.7,1.1,0.7c0.5,0,0.8-0.2,1.1-0.7c0.3-0.4,0.5-1.3,0.5-2.6c0-1.3-0.2-2.2-0.5-2.6s-0.7-0.7-1.2-0.7
	c-0.4,0-0.8,0.2-1.1,0.6C50.6,94.6,50.4,95.5,50.4,96.8z M55.9,96.8c0-1,0.1-1.7,0.3-2.3c0.2-0.6,0.5-1,0.9-1.3s0.9-0.5,1.5-0.5
	c0.4,0,0.8,0.1,1.1,0.3c0.3,0.2,0.6,0.4,0.8,0.8c0.2,0.3,0.4,0.7,0.5,1.2s0.2,1.1,0.2,1.9c0,0.9-0.1,1.7-0.3,2.3
	c-0.2,0.6-0.5,1-0.9,1.3s-0.9,0.5-1.5,0.5c-0.8,0-1.4-0.3-1.8-0.8C56.2,99.4,55.9,98.3,55.9,96.8z M56.9,96.8c0,1.3,0.2,2.2,0.5,2.6
	s0.7,0.7,1.1,0.7c0.5,0,0.8-0.2,1.1-0.7c0.3-0.4,0.5-1.3,0.5-2.6c0-1.3-0.2-2.2-0.5-2.6s-0.7-0.7-1.2-0.7c-0.4,0-0.8,0.2-1.1,0.6
	C57.1,94.6,56.9,95.5,56.9,96.8z"/>
<path d="M117.6,444.7h-1v-6.3c-0.2,0.2-0.6,0.5-0.9,0.7c-0.4,0.2-0.7,0.4-1,0.5v-0.9c0.5-0.3,1-0.6,1.4-0.9c0.4-0.4,0.7-0.7,0.9-1.1
	h0.6V444.7z M120.6,442.8l0.9-0.1c0.1,0.4,0.2,0.8,0.5,1c0.2,0.2,0.5,0.3,0.9,0.3c0.3,0,0.6-0.1,0.8-0.2c0.2-0.1,0.4-0.3,0.6-0.6
	c0.1-0.2,0.3-0.5,0.4-0.9s0.1-0.8,0.1-1.2c0,0,0-0.1,0-0.2c-0.2,0.3-0.5,0.6-0.8,0.8c-0.3,0.2-0.7,0.3-1.1,0.3
	c-0.7,0-1.2-0.2-1.7-0.7s-0.7-1.1-0.7-1.9s0.2-1.5,0.7-2s1.1-0.7,1.8-0.7c0.5,0,1,0.1,1.4,0.4s0.8,0.7,1,1.2s0.3,1.3,0.3,2.2
	c0,1-0.1,1.8-0.3,2.4c-0.2,0.6-0.5,1.1-1,1.4c-0.4,0.3-0.9,0.5-1.5,0.5s-1.1-0.2-1.5-0.5C120.9,444,120.7,443.5,120.6,442.8z
	 M124.6,439.3c0-0.6-0.2-1-0.5-1.3s-0.7-0.5-1.1-0.5s-0.8,0.2-1.2,0.5c-0.3,0.4-0.5,0.8-0.5,1.4c0,0.5,0.2,0.9,0.5,1.2
	c0.3,0.3,0.7,0.5,1.1,0.5c0.5,0,0.8-0.2,1.1-0.5C124.5,440.3,124.6,439.9,124.6,439.3z M132.1,438.6l-1,0.1
	c-0.1-0.4-0.2-0.7-0.4-0.8c-0.3-0.3-0.6-0.4-1-0.4c-0.3,0-0.6,0.1-0.8,0.3c-0.3,0.2-0.5,0.6-0.7,1s-0.3,1-0.3,1.8
	c0.2-0.4,0.5-0.6,0.9-0.8c0.3-0.2,0.7-0.3,1.1-0.3c0.7,0,1.2,0.2,1.7,0.7s0.7,1.1,0.7,1.9c0,0.5-0.1,1-0.3,1.4s-0.5,0.8-0.9,1
	s-0.8,0.3-1.3,0.3c-0.8,0-1.5-0.3-2-0.9s-0.8-1.6-0.8-3c0-1.6,0.3-2.7,0.9-3.4c0.5-0.6,1.2-0.9,2-0.9c0.6,0,1.1,0.2,1.5,0.5
	C131.8,437.5,132,438,132.1,438.6z M128.1,442.1c0,0.3,0.1,0.7,0.2,1c0.1,0.3,0.3,0.5,0.6,0.7s0.5,0.2,0.8,0.2
	c0.4,0,0.8-0.2,1.1-0.5s0.5-0.8,0.5-1.4s-0.2-1-0.5-1.3s-0.7-0.5-1.1-0.5c-0.4,0-0.8,0.2-1.1,0.5
	C128.2,441.2,128.1,441.6,128.1,442.1z M133.5,440.7c0-1,0.1-1.7,0.3-2.3c0.2-0.6,0.5-1,0.9-1.3s0.9-0.5,1.5-0.5
	c0.4,0,0.8,0.1,1.1,0.3c0.3,0.2,0.6,0.4,0.8,0.8c0.2,0.3,0.4,0.7,0.5,1.2s0.2,1.1,0.2,1.9c0,0.9-0.1,1.7-0.3,2.3
	c-0.2,0.6-0.5,1-0.9,1.3s-0.9,0.5-1.5,0.5c-0.8,0-1.4-0.3-1.8-0.8C133.8,443.3,133.5,442.3,133.5,440.7z M134.5,440.7
	c0,1.3,0.2,2.2,0.5,2.6s0.7,0.7,1.1,0.7c0.5,0,0.8-0.2,1.1-0.7c0.3-0.4,0.5-1.3,0.5-2.6c0-1.3-0.2-2.2-0.5-2.6s-0.7-0.7-1.2-0.7
	c-0.4,0-0.8,0.2-1.1,0.6C134.7,438.5,134.5,439.4,134.5,440.7z"/>
<path d="M314,444.7h-1v-6.3c-0.2,0.2-0.6,0.5-0.9,0.7c-0.4,0.2-0.7,0.4-1,0.5v-0.9c0.5-0.3,1-0.6,1.4-0.9c0.4-0.4,0.7-0.7,0.9-1.1
	h0.6V444.7z M317,442.8l0.9-0.1c0.1,0.4,0.2,0.8,0.5,1c0.2,0.2,0.5,0.3,0.9,0.3c0.3,0,0.6-0.1,0.8-0.2c0.2-0.1,0.4-0.3,0.6-0.6
	c0.1-0.2,0.3-0.5,0.4-0.9s0.1-0.8,0.1-1.2c0,0,0-0.1,0-0.2c-0.2,0.3-0.5,0.6-0.8,0.8c-0.3,0.2-0.7,0.3-1.1,0.3
	c-0.7,0-1.2-0.2-1.7-0.7s-0.7-1.1-0.7-1.9s0.2-1.5,0.7-2s1.1-0.7,1.8-0.7c0.5,0,1,0.1,1.4,0.4s0.8,0.7,1,1.2s0.3,1.3,0.3,2.2
	c0,1-0.1,1.8-0.3,2.4c-0.2,0.6-0.5,1.1-1,1.4c-0.4,0.3-0.9,0.5-1.5,0.5s-1.1-0.2-1.5-0.5C317.3,444,317,443.5,317,442.8z M321,439.3
	c0-0.6-0.2-1-0.5-1.3s-0.7-0.5-1.1-0.5s-0.8,0.2-1.2,0.5c-0.3,0.4-0.5,0.8-0.5,1.4c0,0.5,0.2,0.9,0.5,1.2c0.3,0.3,0.7,0.5,1.1,0.5
	c0.5,0,0.8-0.2,1.1-0.5C320.8,440.3,321,439.9,321,439.3z M324.9,440.4c-0.4-0.2-0.7-0.4-0.9-0.6c-0.2-0.3-0.3-0.6-0.3-1
	c0-0.6,0.2-1.1,0.6-1.5s1-0.6,1.7-0.6s1.3,0.2,1.7,0.6c0.4,0.4,0.6,0.9,0.6,1.5c0,0.4-0.1,0.7-0.3,1c-0.2,0.3-0.5,0.5-0.9,0.6
	c0.5,0.2,0.9,0.4,1.1,0.8c0.3,0.4,0.4,0.8,0.4,1.3c0,0.7-0.2,1.3-0.7,1.7c-0.5,0.5-1.1,0.7-1.9,0.7s-1.4-0.2-1.9-0.7s-0.7-1-0.7-1.7
	c0-0.5,0.1-1,0.4-1.3C324,440.7,324.4,440.5,324.9,440.4z M324.7,438.7c0,0.4,0.1,0.7,0.4,0.9c0.3,0.2,0.6,0.4,1,0.4
	s0.7-0.1,0.9-0.4c0.2-0.2,0.4-0.5,0.4-0.9s-0.1-0.7-0.4-0.9c-0.3-0.3-0.6-0.4-0.9-0.4c-0.4,0-0.7,0.1-0.9,0.4
	C324.8,438.1,324.7,438.3,324.7,438.7z M324.4,442.4c0,0.3,0.1,0.6,0.2,0.8c0.1,0.3,0.3,0.5,0.6,0.6c0.3,0.1,0.5,0.2,0.8,0.2
	c0.5,0,0.9-0.2,1.2-0.5c0.3-0.3,0.5-0.7,0.5-1.2s-0.2-0.9-0.5-1.2c-0.3-0.3-0.7-0.5-1.2-0.5s-0.9,0.2-1.2,0.5
	C324.5,441.5,324.4,441.9,324.4,442.4z M329.9,440.7c0-1,0.1-1.7,0.3-2.3c0.2-0.6,0.5-1,0.9-1.3s0.9-0.5,1.5-0.5
	c0.4,0,0.8,0.1,1.1,0.3c0.3,0.2,0.6,0.4,0.8,0.8c0.2,0.3,0.4,0.7,0.5,1.2s0.2,1.1,0.2,1.9c0,0.9-0.1,1.7-0.3,2.3
	c-0.2,0.6-0.5,1-0.9,1.3s-0.9,0.5-1.5,0.5c-0.8,0-1.4-0.3-1.8-0.8C330.1,443.3,329.9,442.3,329.9,440.7z M330.9,440.7
	c0,1.3,0.2,2.2,0.5,2.6s0.7,0.7,1.1,0.7c0.5,0,0.8-0.2,1.1-0.7c0.3-0.4,0.5-1.3,0.5-2.6c0-1.3-0.2-2.2-0.5-2.6s-0.7-0.7-1.2-0.7
	c-0.4,0-0.8,0.2-1.1,0.6C331.1,438.5,330.9,439.4,330.9,440.7z"/>
<path d="M511.8,443.8v0.9h-5.3c0-0.2,0-0.5,0.1-0.7c0.1-0.4,0.3-0.7,0.6-1.1c0.3-0.3,0.7-0.8,1.3-1.2c0.9-0.7,1.5-1.3,1.8-1.7
	c0.3-0.4,0.5-0.8,0.5-1.2c0-0.4-0.1-0.7-0.4-1s-0.6-0.4-1.1-0.4s-0.9,0.1-1.1,0.4s-0.4,0.7-0.4,1.2l-1-0.1c0.1-0.8,0.3-1.3,0.8-1.7
	c0.5-0.4,1.1-0.6,1.8-0.6c0.8,0,1.4,0.2,1.8,0.6s0.7,1,0.7,1.6c0,0.3-0.1,0.6-0.2,0.9s-0.3,0.6-0.7,1c-0.3,0.3-0.8,0.8-1.5,1.4
	c-0.6,0.5-1,0.8-1.2,1s-0.3,0.4-0.4,0.5h3.9V443.8z M513.2,440.7c0-1,0.1-1.7,0.3-2.3c0.2-0.6,0.5-1,0.9-1.3s0.9-0.5,1.5-0.5
	c0.4,0,0.8,0.1,1.1,0.3c0.3,0.2,0.6,0.4,0.8,0.8c0.2,0.3,0.4,0.7,0.5,1.2s0.2,1.1,0.2,1.9c0,0.9-0.1,1.7-0.3,2.3
	c-0.2,0.6-0.5,1-0.9,1.3s-0.9,0.5-1.5,0.5c-0.8,0-1.4-0.3-1.8-0.8C513.5,443.3,513.2,442.3,513.2,440.7z M514.2,440.7
	c0,1.3,0.2,2.2,0.5,2.6s0.7,0.7,1.1,0.7c0.5,0,0.8-0.2,1.1-0.7c0.3-0.4,0.5-1.3,0.5-2.6c0-1.3-0.2-2.2-0.5-2.6s-0.7-0.7-1.2-0.7
	c-0.4,0-0.8,0.2-1.1,0.6C514.4,438.5,514.2,439.4,514.2,440.7z M519.7,440.7c0-1,0.1-1.7,0.3-2.3c0.2-0.6,0.5-1,0.9-1.3
	s0.9-0.5,1.5-0.5c0.4,0,0.8,0.1,1.1,0.3c0.3,0.2,0.6,0.4,0.8,0.8c0.2,0.3,0.4,0.7,0.5,1.2s0.2,1.1,0.2,1.9c0,0.9-0.1,1.7-0.3,2.3
	c-0.2,0.6-0.5,1-0.9,1.3s-0.9,0.5-1.5,0.5c-0.8,0-1.4-0.3-1.8-0.8C520,443.3,519.7,442.3,519.7,440.7z M520.7,440.7
	c0,1.3,0.2,2.2,0.5,2.6s0.7,0.7,1.1,0.7c0.5,0,0.8-0.2,1.1-0.7c0.3-0.4,0.5-1.3,0.5-2.6c0-1.3-0.2-2.2-0.5-2.6s-0.7-0.7-1.2-0.7
	c-0.4,0-0.8,0.2-1.1,0.6C520.9,438.5,520.7,439.4,520.7,440.7z M526.3,440.7c0-1,0.1-1.7,0.3-2.3c0.2-0.6,0.5-1,0.9-1.3
	s0.9-0.5,1.5-0.5c0.4,0,0.8,0.1,1.1,0.3c0.3,0.2,0.6,0.4,0.8,0.8c0.2,0.3,0.4,0.7,0.5,1.2s0.2,1.1,0.2,1.9c0,0.9-0.1,1.7-0.3,2.3
	c-0.2,0.6-0.5,1-0.9,1.3s-0.9,0.5-1.5,0.5c-0.8,0-1.4-0.3-1.8-0.8C526.5,443.3,526.3,442.3,526.3,440.7z M527.3,440.7
	c0,1.3,0.2,2.2,0.5,2.6s0.7,0.7,1.1,0.7c0.5,0,0.8-0.2,1.1-0.7c0.3-0.4,0.5-1.3,0.5-2.6c0-1.3-0.2-2.2-0.5-2.6s-0.7-0.7-1.2-0.7
	c-0.4,0-0.8,0.2-1.1,0.6C527.4,438.5,527.3,439.4,527.3,440.7z"/>
<path d="M708.2,443.8v0.9h-5.3c0-0.2,0-0.5,0.1-0.7c0.1-0.4,0.3-0.7,0.6-1.1c0.3-0.3,0.7-0.8,1.3-1.2c0.9-0.7,1.5-1.3,1.8-1.7
	c0.3-0.4,0.5-0.8,0.5-1.2c0-0.4-0.1-0.7-0.4-1c-0.3-0.3-0.6-0.4-1.1-0.4s-0.9,0.1-1.1,0.4s-0.4,0.7-0.4,1.2l-1-0.1
	c0.1-0.8,0.3-1.3,0.8-1.7c0.5-0.4,1.1-0.6,1.8-0.6c0.8,0,1.4,0.2,1.8,0.6c0.4,0.4,0.7,1,0.7,1.6c0,0.3-0.1,0.6-0.2,0.9
	c-0.1,0.3-0.3,0.6-0.7,1c-0.3,0.3-0.8,0.8-1.5,1.4c-0.6,0.5-1,0.8-1.2,1s-0.3,0.4-0.4,0.5h3.9V443.8z M709.6,440.7
	c0-1,0.1-1.7,0.3-2.3c0.2-0.6,0.5-1,0.9-1.3s0.9-0.5,1.5-0.5c0.4,0,0.8,0.1,1.1,0.3c0.3,0.2,0.6,0.4,0.8,0.8
	c0.2,0.3,0.4,0.7,0.5,1.2s0.2,1.1,0.2,1.9c0,0.9-0.1,1.7-0.3,2.3c-0.2,0.6-0.5,1-0.9,1.3s-0.9,0.5-1.5,0.5c-0.8,0-1.4-0.3-1.8-0.8
	C709.9,443.3,709.6,442.3,709.6,440.7z M710.6,440.7c0,1.3,0.2,2.2,0.5,2.6s0.7,0.7,1.1,0.7c0.5,0,0.8-0.2,1.1-0.7
	c0.3-0.4,0.5-1.3,0.5-2.6c0-1.3-0.2-2.2-0.5-2.6s-0.7-0.7-1.2-0.7c-0.4,0-0.8,0.2-1.1,0.6C710.8,438.5,710.6,439.4,710.6,440.7z
	 M721.3,443.8v0.9H716c0-0.2,0-0.5,0.1-0.7c0.1-0.4,0.3-0.7,0.6-1.1c0.3-0.3,0.7-0.8,1.3-1.2c0.9-0.7,1.5-1.3,1.8-1.7
	c0.3-0.4,0.5-0.8,0.5-1.2c0-0.4-0.1-0.7-0.4-1c-0.3-0.3-0.6-0.4-1.1-0.4s-0.9,0.1-1.1,0.4s-0.4,0.7-0.4,1.2l-1-0.1
	c0.1-0.8,0.3-1.3,0.8-1.7c0.5-0.4,1.1-0.6,1.8-0.6c0.8,0,1.4,0.2,1.8,0.6c0.4,0.4,0.7,1,0.7,1.6c0,0.3-0.1,0.6-0.2,0.9
	c-0.1,0.3-0.3,0.6-0.7,1c-0.3,0.3-0.8,0.8-1.5,1.4c-0.6,0.5-1,0.8-1.2,1s-0.3,0.4-0.4,0.5h3.9V443.8z M722.7,440.7
	c0-1,0.1-1.7,0.3-2.3c0.2-0.6,0.5-1,0.9-1.3s0.9-0.5,1.5-0.5c0.4,0,0.8,0.1,1.1,0.3c0.3,0.2,0.6,0.4,0.8,0.8
	c0.2,0.3,0.4,0.7,0.5,1.2s0.2,1.1,0.2,1.9c0,0.9-0.1,1.7-0.3,2.3c-0.2,0.6-0.5,1-0.9,1.3s-0.9,0.5-1.5,0.5c-0.8,0-1.4-0.3-1.8-0.8
	C722.9,443.3,722.7,442.3,722.7,440.7z M723.7,440.7c0,1.3,0.2,2.2,0.5,2.6s0.7,0.7,1.1,0.7c0.5,0,0.8-0.2,1.1-0.7
	c0.3-0.4,0.5-1.3,0.5-2.6c0-1.3-0.2-2.2-0.5-2.6s-0.7-0.7-1.2-0.7c-0.4,0-0.8,0.2-1.1,0.6C723.8,438.5,723.7,439.4,723.7,440.7z"/>
<text transform="matrix(1 0 0 1 30.5923 75.1899)" class="st60 st61">Seouls Forest Area Change Over Time, in hectare.</text>
<g>
	<g>
		<path d="M36.2,25.6l-1.1,3.1h-2.9l4.6-13.5h3.7l4.8,13.5h-3.1l-1.1-3.1H36.2z M40.5,23.2c-1-2.9-1.6-4.7-1.9-5.9l0,0
			c-0.3,1.3-1,3.5-1.8,5.9H40.5z"/>
		<path d="M47.1,28.7v-8h-1.5v-2.1h1.5v-0.9c0-2.1,1-3.5,3.2-3.5c0.5,0,1.1,0,1.3,0.1v2.2c-0.2,0-0.4,0-0.6,0
			c-0.8,0-1.1,0.3-1.1,1.4v0.7h1.8v2.1H50v8C50,28.7,47.1,28.7,47.1,28.7z"/>
		<path d="M52.2,18.6h1.6v-2.7h2.8v2.7h2v2.1h-2v5c0,0.8,0.2,1.1,1.1,1.1c0.2,0,0.4,0,0.6,0v1.9c-0.6,0.2-1.3,0.2-1.9,0.2
			c-2,0-2.6-1.1-2.6-2.8v-5.3h-1.6C52.2,20.8,52.2,18.6,52.2,18.6z"/>
		<path d="M62.6,24.3c0,1.3,0.6,2.5,2,2.5c1.2,0,1.5-0.5,1.8-1.1h2.8c-0.4,1.2-1.5,3.3-4.7,3.3c-3.3,0-4.8-2.5-4.8-5.2
			c0-3.2,1.6-5.5,4.9-5.5c3.5,0,4.7,2.5,4.7,5.1c0,0.3,0,0.6,0,0.9H62.6z M66.5,22.5c0-1.2-0.5-2.2-1.9-2.2c-1.3,0-1.9,0.9-2,2.2
			H66.5z"/>
		<path d="M71.2,21.3c0-1,0-1.9,0-2.8H74c0,0.2,0.1,1.2,0.1,1.8c0.4-1.2,1.5-2,3.3-2V21c-2-0.1-3.3,0.5-3.3,3.3v4.4h-2.8L71.2,21.3
			L71.2,21.3z"/>
		<path d="M92.1,26.1c0,1,0.1,2.4,0.1,2.6h-2.7c-0.1-0.2-0.1-0.7-0.1-1C89,28.3,88.3,29,86.5,29c-2.4,0-3.5-1.6-3.5-3.2
			c0-2.3,1.9-3.4,4.8-3.4c0.5,0,1.1,0,1.4,0v-0.6c0-0.7-0.3-1.4-1.6-1.4c-1.2,0-1.4,0.5-1.6,1.2h-2.7c0.2-1.8,1.3-3.3,4.4-3.2
			c2.7,0,4.2,1.1,4.2,3.5v4.2H92.1z M89.3,24.1c-0.2,0-0.8,0-1.1,0c-1.7,0-2.3,0.5-2.3,1.5c0,0.7,0.5,1.4,1.5,1.4c1.8,0,2-1.2,2-2.6
			L89.3,24.1L89.3,24.1z"/>
		<path d="M108.7,14.4v11.5c0,0.9,0,1.9,0,2.8H106c-0.1-0.3-0.1-0.8-0.1-1.1c-0.5,0.8-1.4,1.3-2.9,1.3c-2.6,0-4.2-2.1-4.2-5.2
			s1.7-5.4,4.6-5.4c1.5,0,2.2,0.5,2.5,1v-4.9C105.9,14.4,108.7,14.4,108.7,14.4z M101.7,23.7c0,2,0.8,3,2.1,3c1.9,0,2.2-1.6,2.2-3.1
			c0-1.7-0.2-3-2.1-3C102.4,20.6,101.7,21.8,101.7,23.7z"/>
		<path d="M111.2,21.3c0-1,0-1.9,0-2.8h2.8c0,0.2,0.1,1.2,0.1,1.8c0.4-1.2,1.5-2,3.3-2V21c-2-0.1-3.3,0.5-3.3,3.3v4.4h-2.8
			L111.2,21.3L111.2,21.3z"/>
		<path d="M127.3,26.1c0,1,0.1,2.4,0.1,2.6h-2.7c-0.1-0.2-0.1-0.7-0.1-1c-0.4,0.6-1.1,1.2-2.9,1.2c-2.4,0-3.5-1.6-3.5-3.2
			c0-2.3,1.9-3.4,4.8-3.4c0.5,0,1.1,0,1.4,0v-0.6c0-0.7-0.3-1.4-1.6-1.4c-1.2,0-1.4,0.5-1.6,1.2h-2.7c0.2-1.8,1.3-3.3,4.4-3.2
			c2.7,0,4.2,1.1,4.2,3.5v4.3H127.3z M124.6,24.1c-0.2,0-0.8,0-1.1,0c-1.7,0-2.3,0.5-2.3,1.5c0,0.7,0.5,1.4,1.5,1.4
			c1.8,0,2-1.2,2-2.6L124.6,24.1L124.6,24.1z"/>
		<path d="M129.8,21.2c0-0.9,0-1.7,0-2.6h2.7c0,0.2,0.1,0.8,0.1,1.2c0.5-0.8,1.3-1.4,2.8-1.4s2.3,0.8,2.6,1.5
			c0.6-0.8,1.5-1.5,3.1-1.5c1.8,0,3.2,1.1,3.2,3.7v6.7h-2.7v-6.3c0-0.9-0.3-1.8-1.5-1.8s-1.7,0.8-1.7,2.3v5.8h-2.8v-6.2
			c0-1.1-0.3-1.9-1.5-1.9c-1.1,0-1.7,0.7-1.7,2.4v5.7h-2.8v-7.6H129.8z"/>
		<path d="M155.3,26.1c0,1,0.1,2.4,0.1,2.6h-2.7c-0.1-0.2-0.1-0.7-0.1-1c-0.4,0.6-1.1,1.2-2.9,1.2c-2.4,0-3.5-1.6-3.5-3.2
			c0-2.3,1.9-3.4,4.8-3.4c0.5,0,1.1,0,1.4,0v-0.6c0-0.7-0.3-1.4-1.6-1.4c-1.2,0-1.4,0.5-1.6,1.2h-2.7c0.2-1.8,1.3-3.3,4.4-3.2
			c2.7,0,4.2,1.1,4.2,3.5v4.3H155.3z M152.6,24.1c-0.2,0-0.8,0-1.1,0c-1.7,0-2.3,0.5-2.3,1.5c0,0.7,0.5,1.4,1.5,1.4
			c1.8,0,2-1.2,2-2.6L152.6,24.1L152.6,24.1z"/>
		<path d="M156.9,18.6h1.6v-2.7h2.8v2.7h2v2.1h-2v5c0,0.8,0.2,1.1,1.1,1.1c0.2,0,0.4,0,0.6,0v1.9c-0.6,0.2-1.3,0.2-1.9,0.2
			c-2,0-2.6-1.1-2.6-2.8v-5.3h-1.6L156.9,18.6L156.9,18.6z"/>
		<path d="M165,14.4h2.8v2.5H165V14.4z M165,18.6h2.8v10.1H165V18.6z"/>
		<path d="M179.1,25.5c-0.3,1.7-1.5,3.5-4.6,3.5c-3.2,0-4.8-2.2-4.8-5.2s1.8-5.4,4.9-5.4c3.4,0,4.4,2.5,4.4,3.6h-2.7
			c-0.2-0.8-0.6-1.4-1.7-1.4c-1.3,0-2,1.1-2,3.1c0,2.2,0.8,3.1,2,3.1c1,0,1.5-0.6,1.7-1.3C176.3,25.5,179.1,25.5,179.1,25.5z"/>
		<path d="M185.6,21.3c0-1,0-1.9,0-2.8h2.8c0,0.2,0.1,1.2,0.1,1.8c0.4-1.2,1.5-2,3.3-2V21c-2-0.1-3.3,0.5-3.3,3.3v4.4h-2.8v-7.4
			H185.6z"/>
		<path d="M195.6,24.3c0,1.3,0.6,2.5,2,2.5c1.2,0,1.5-0.5,1.8-1.1h2.8c-0.4,1.2-1.5,3.3-4.7,3.3c-3.3,0-4.8-2.5-4.8-5.2
			c0-3.2,1.6-5.5,4.9-5.5c3.5,0,4.7,2.5,4.7,5.1c0,0.3,0,0.6,0,0.9H195.6z M199.5,22.5c0-1.2-0.5-2.2-1.9-2.2c-1.3,0-1.9,0.9-2,2.2
			H199.5z"/>
		<path d="M204.6,28.7v-8h-1.5v-2.1h1.5v-0.9c0-2.1,1-3.5,3.2-3.5c0.5,0,1.1,0,1.3,0.1v2.2c-0.2,0-0.4,0-0.6,0
			c-0.8,0-1.1,0.3-1.1,1.4v0.7h1.8v2.1h-1.8v8C207.4,28.7,204.6,28.7,204.6,28.7z"/>
		<path d="M220.1,23.6c0,3.1-1.8,5.3-5,5.3c-3.1,0-5-2.2-5-5.3s1.9-5.3,5.1-5.3C218.2,18.4,220.1,20.5,220.1,23.6z M212.9,23.7
			c0,2,0.8,3.1,2.2,3.1s2.1-1.2,2.1-3.1c0-2.1-0.8-3.1-2.2-3.1C213.8,20.6,212.9,21.5,212.9,23.7z"/>
		<path d="M222,21.3c0-1,0-1.9,0-2.8h2.8c0,0.2,0.1,1.2,0.1,1.8c0.4-1.2,1.5-2,3.3-2V21c-2-0.1-3.3,0.5-3.3,3.3v4.4H222V21.3z"/>
		<path d="M232,24.3c0,1.3,0.6,2.5,2,2.5c1.2,0,1.5-0.5,1.8-1.1h2.8c-0.4,1.2-1.5,3.3-4.7,3.3c-3.3,0-4.8-2.5-4.8-5.2
			c0-3.2,1.6-5.5,4.9-5.5c3.5,0,4.7,2.5,4.7,5.1c0,0.3,0,0.6,0,0.9H232z M235.9,22.5c0-1.2-0.5-2.2-1.9-2.2c-1.3,0-1.9,0.9-2,2.2
			H235.9z"/>
		<path d="M242.7,25.7c0.2,0.8,0.9,1.3,1.9,1.3s1.4-0.4,1.4-1c0-0.7-0.4-0.9-1.9-1.3c-3.3-0.8-3.8-1.8-3.8-3.3s1.1-3.1,4.1-3.1
			c3.1,0,4.1,1.7,4.2,3.1H246c-0.1-0.4-0.3-1.1-1.7-1.1c-0.9,0-1.2,0.4-1.2,0.9s0.3,0.7,2,1.1c3.4,0.8,3.9,1.9,3.9,3.4
			c0,1.7-1.3,3.2-4.4,3.2c-3.1,0-4.3-1.5-4.6-3.3L242.7,25.7L242.7,25.7z"/>
		<path d="M249.8,18.6h1.6v-2.7h2.8v2.7h2v2.1h-2v5c0,0.8,0.2,1.1,1.1,1.1c0.2,0,0.4,0,0.6,0v1.9c-0.6,0.2-1.3,0.2-1.9,0.2
			c-2,0-2.6-1.1-2.6-2.8v-5.3h-1.6L249.8,18.6L249.8,18.6z"/>
		<path d="M266.3,26.1c0,1,0.1,2.4,0.1,2.6h-2.7c-0.1-0.2-0.1-0.7-0.1-1c-0.4,0.6-1.1,1.2-2.9,1.2c-2.4,0-3.5-1.6-3.5-3.2
			c0-2.3,1.9-3.4,4.8-3.4c0.5,0,1.1,0,1.4,0v-0.6c0-0.7-0.3-1.4-1.6-1.4c-1.2,0-1.4,0.5-1.6,1.2h-2.7c0.2-1.8,1.3-3.3,4.4-3.2
			c2.7,0,4.2,1.1,4.2,3.5v4.3H266.3z M263.5,24.1c-0.2,0-0.8,0-1.1,0c-1.7,0-2.3,0.5-2.3,1.5c0,0.7,0.5,1.4,1.5,1.4
			c1.8,0,2-1.2,2-2.6v-0.3H263.5z"/>
		<path d="M267.8,18.6h1.6v-2.7h2.8v2.7h2v2.1h-2v5c0,0.8,0.2,1.1,1.1,1.1c0.2,0,0.4,0,0.6,0v1.9c-0.6,0.2-1.3,0.2-1.9,0.2
			c-2,0-2.6-1.1-2.6-2.8v-5.3h-1.6V18.6z"/>
		<path d="M275.9,14.4h2.8v2.5h-2.8V14.4z M275.9,18.6h2.8v10.1h-2.8V18.6z"/>
		<path d="M290.7,23.6c0,3.1-1.8,5.3-5,5.3c-3.1,0-5-2.2-5-5.3s1.9-5.3,5.1-5.3C288.8,18.4,290.7,20.5,290.7,23.6z M283.5,23.7
			c0,2,0.8,3.1,2.2,3.1c1.4,0,2.1-1.2,2.1-3.1c0-2.1-0.8-3.1-2.2-3.1C284.4,20.6,283.5,21.5,283.5,23.7z"/>
		<path d="M292.6,21.1c0-0.9,0-1.8,0-2.6h2.7c0.1,0.3,0.1,1,0.1,1.3c0.3-0.6,1.2-1.5,2.9-1.5c2,0,3.4,1.4,3.4,3.9v6.5h-2.8v-6.1
			c0-1.1-0.4-2-1.6-2s-1.9,0.7-1.9,2.5v5.7h-2.8L292.6,21.1L292.6,21.1z"/>
		<path d="M311.1,25.7c0.2,0.8,0.9,1.3,1.9,1.3s1.4-0.4,1.4-1c0-0.7-0.4-0.9-1.9-1.3c-3.3-0.8-3.8-1.8-3.8-3.3s1.1-3.1,4.1-3.1
			c3.1,0,4.1,1.7,4.2,3.1h-2.7c-0.1-0.4-0.3-1.1-1.7-1.1c-0.9,0-1.2,0.4-1.2,0.9s0.3,0.7,2,1.1c3.4,0.8,3.9,1.9,3.9,3.4
			c0,1.7-1.3,3.2-4.4,3.2s-4.3-1.5-4.6-3.3L311.1,25.7L311.1,25.7z"/>
		<path d="M328,25.8c0,1,0,2,0,2.9h-2.8c0-0.3-0.1-0.8-0.1-1.2c-0.6,1-1.5,1.4-2.8,1.4c-2.1,0-3.4-1.3-3.4-3.8v-6.6h2.8v6
			c0,1.1,0.3,2,1.6,2c1.3,0,1.8-0.7,1.8-2.7v-5.4h2.8v7.4H328z"/>
		<path d="M339.4,25.5c-0.3,1.7-1.5,3.5-4.6,3.5c-3.2,0-4.8-2.2-4.8-5.2s1.8-5.4,4.9-5.4c3.4,0,4.4,2.5,4.4,3.6h-2.7
			c-0.2-0.8-0.6-1.4-1.7-1.4c-1.3,0-2,1.1-2,3.1c0,2.2,0.8,3.1,2,3.1c1,0,1.5-0.6,1.7-1.3C336.6,25.5,339.4,25.5,339.4,25.5z"/>
		<path d="M349.9,25.5c-0.3,1.7-1.5,3.5-4.6,3.5c-3.2,0-4.8-2.2-4.8-5.2s1.8-5.4,4.9-5.4c3.4,0,4.4,2.5,4.4,3.6h-2.7
			c-0.2-0.8-0.6-1.4-1.7-1.4c-1.3,0-2,1.1-2,3.1c0,2.2,0.8,3.1,2,3.1c1,0,1.5-0.6,1.7-1.3C347.1,25.5,349.9,25.5,349.9,25.5z"/>
		<path d="M353.9,24.3c0,1.3,0.6,2.5,2,2.5c1.2,0,1.5-0.5,1.8-1.1h2.8c-0.4,1.2-1.5,3.3-4.7,3.3c-3.3,0-4.8-2.5-4.8-5.2
			c0-3.2,1.6-5.5,4.9-5.5c3.5,0,4.7,2.5,4.7,5.1c0,0.3,0,0.6,0,0.9H353.9z M357.8,22.5c0-1.2-0.5-2.2-1.9-2.2c-1.3,0-1.9,0.9-2,2.2
			H357.8z"/>
		<path d="M364.6,25.7c0.2,0.8,0.9,1.3,1.9,1.3s1.4-0.4,1.4-1c0-0.7-0.4-0.9-1.9-1.3c-3.3-0.8-3.8-1.8-3.8-3.3s1.1-3.1,4.1-3.1
			c3.1,0,4.1,1.7,4.2,3.1h-2.7c-0.1-0.4-0.3-1.1-1.7-1.1c-0.9,0-1.2,0.4-1.2,0.9s0.3,0.7,2,1.1c3.4,0.8,3.9,1.9,3.9,3.4
			c0,1.7-1.3,3.2-4.4,3.2s-4.3-1.5-4.6-3.3L364.6,25.7L364.6,25.7z"/>
		<path d="M374.8,25.7c0.2,0.8,0.9,1.3,1.9,1.3s1.4-0.4,1.4-1c0-0.7-0.4-0.9-1.9-1.3c-3.3-0.8-3.8-1.8-3.8-3.3s1.1-3.1,4.1-3.1
			c3.1,0,4.1,1.7,4.2,3.1H378c-0.1-0.4-0.3-1.1-1.7-1.1c-0.9,0-1.2,0.4-1.2,0.9s0.3,0.7,2,1.1c3.4,0.8,3.9,1.9,3.9,3.4
			c0,1.7-1.3,3.2-4.4,3.2s-4.3-1.5-4.6-3.3L374.8,25.7L374.8,25.7z"/>
		<path d="M381.7,31c1.1-2.6,1.3-4.3,1.4-5.7h2.9c-0.2,1.9-0.8,4.1-2.1,5.7H381.7z"/>
		<path d="M395.2,24.8c0.3,1.4,1.3,2,2.8,2c1.6,0,2.2-0.6,2.2-1.6c0-1.1-0.7-1.6-3-2.1c-3.7-0.9-4.6-2.2-4.6-4c0-2.4,1.8-4,5-4
			c3.6,0,5,1.9,5.2,3.9h-2.9c-0.1-0.8-0.6-1.7-2.3-1.7c-1.2,0-1.9,0.5-1.9,1.4s0.6,1.3,2.8,1.8c3.9,0.9,4.8,2.4,4.8,4.3
			c0,2.5-1.9,4.2-5.4,4.2c-3.4,0-5.2-1.7-5.6-4.2C392.3,24.8,395.2,24.8,395.2,24.8z"/>
		<path d="M407.5,24.3c0,1.3,0.6,2.5,2,2.5c1.2,0,1.5-0.5,1.8-1.1h2.8c-0.4,1.2-1.5,3.3-4.7,3.3c-3.3,0-4.8-2.5-4.8-5.2
			c0-3.2,1.6-5.5,4.9-5.5c3.5,0,4.7,2.5,4.7,5.1c0,0.3,0,0.6,0,0.9H407.5z M411.5,22.5c0-1.2-0.5-2.2-1.9-2.2c-1.3,0-1.9,0.9-2,2.2
			H411.5z"/>
		<path d="M425.6,23.6c0,3.1-1.8,5.3-5,5.3c-3.1,0-5-2.2-5-5.3s1.9-5.3,5.1-5.3C423.7,18.4,425.6,20.5,425.6,23.6z M418.4,23.7
			c0,2,0.8,3.1,2.2,3.1c1.4,0,2.1-1.2,2.1-3.1c0-2.1-0.8-3.1-2.2-3.1C419.3,20.6,418.4,21.5,418.4,23.7z"/>
		<path d="M436.5,25.8c0,1,0,2,0,2.9h-2.8c0-0.3-0.1-0.8-0.1-1.2c-0.6,1-1.5,1.4-2.8,1.4c-2.1,0-3.4-1.3-3.4-3.8v-6.6h2.8v6
			c0,1.1,0.3,2,1.6,2c1.3,0,1.8-0.7,1.8-2.7v-5.4h2.8v7.4H436.5z"/>
		<path d="M439,28.7V14.4h2.8v14.3H439z"/>
		<path d="M451.9,14.4v5.4c0.4-0.7,1.3-1.4,2.9-1.4c1.9,0,3.4,1.1,3.4,3.9v6.5h-2.8v-6.1c0-1.3-0.5-2-1.6-2c-1.6,0-1.9,1.2-1.9,2.7
			v5.4h-2.8V14.4H451.9z"/>
		<path d="M469.1,26.1c0,1,0.1,2.4,0.1,2.6h-2.7c-0.1-0.2-0.1-0.7-0.1-1c-0.4,0.6-1.1,1.2-2.9,1.2c-2.4,0-3.5-1.6-3.5-3.2
			c0-2.3,1.9-3.4,4.8-3.4c0.5,0,1.1,0,1.4,0v-0.6c0-0.7-0.3-1.4-1.6-1.4c-1.2,0-1.4,0.5-1.6,1.2h-2.7c0.2-1.8,1.3-3.3,4.3-3.2
			c2.7,0,4.2,1.1,4.2,3.5v4.3H469.1z M466.4,24.1c-0.2,0-0.8,0-1.1,0c-1.7,0-2.3,0.5-2.3,1.5c0,0.7,0.5,1.4,1.5,1.4
			c1.8,0,2-1.2,2-2.6v-0.3H466.4z"/>
		<path d="M473.7,25.7c0.2,0.8,0.9,1.3,1.9,1.3s1.4-0.4,1.4-1c0-0.7-0.4-0.9-1.9-1.3c-3.3-0.8-3.8-1.8-3.8-3.3s1.1-3.1,4.1-3.1
			c3.1,0,4.1,1.7,4.2,3.1H477c-0.1-0.4-0.3-1.1-1.7-1.1c-0.9,0-1.2,0.4-1.2,0.9s0.3,0.7,2,1.1c3.4,0.8,3.9,1.9,3.9,3.4
			c0,1.7-1.3,3.2-4.4,3.2s-4.4-1.5-4.6-3.3L473.7,25.7L473.7,25.7z"/>
		<path d="M486.5,28.7V14.4h2.8v14.3H486.5z"/>
		<path d="M501.3,23.6c0,3.1-1.8,5.3-5,5.3c-3.1,0-5-2.2-5-5.3s1.9-5.3,5.1-5.3C499.4,18.4,501.3,20.5,501.3,23.6z M494.1,23.7
			c0,2,0.8,3.1,2.2,3.1c1.4,0,2.1-1.2,2.1-3.1c0-2.1-0.8-3.1-2.2-3.1C495,20.6,494.1,21.5,494.1,23.7z"/>
		<path d="M505.3,25.7c0.2,0.8,0.9,1.3,1.9,1.3s1.4-0.4,1.4-1c0-0.7-0.4-0.9-1.9-1.3c-3.3-0.8-3.8-1.8-3.8-3.3s1.1-3.1,4.1-3.1
			c3.1,0,4.1,1.7,4.2,3.1h-2.7c-0.1-0.4-0.3-1.1-1.7-1.1c-0.9,0-1.2,0.4-1.2,0.9s0.3,0.7,2,1.1c3.4,0.8,3.9,1.9,3.9,3.4
			c0,1.7-1.3,3.2-4.4,3.2s-4.4-1.5-4.6-3.3L505.3,25.7L505.3,25.7z"/>
		<path d="M512.4,18.6h1.6v-2.7h2.8v2.7h2v2.1h-2v5c0,0.8,0.2,1.1,1.1,1.1c0.2,0,0.4,0,0.6,0v1.9c-0.6,0.2-1.3,0.2-1.9,0.2
			c-2,0-2.6-1.1-2.6-2.8v-5.3h-1.6L512.4,18.6L512.4,18.6z"/>
		<path d="M525.2,21.2c0-0.9,0-1.7,0-2.6h2.7c0,0.2,0.1,0.8,0.1,1.2c0.5-0.8,1.3-1.4,2.8-1.4s2.3,0.8,2.6,1.5
			c0.6-0.8,1.5-1.5,3.1-1.5c1.8,0,3.2,1.1,3.2,3.7v6.7H537v-6.3c0-0.9-0.3-1.8-1.5-1.8s-1.7,0.8-1.7,2.3v5.8H531v-6.2
			c0-1.1-0.3-1.9-1.5-1.9c-1.1,0-1.7,0.7-1.7,2.4v5.7H525v-7.6H525.2z"/>
		<path d="M551.7,23.6c0,3.1-1.8,5.3-5,5.3c-3.1,0-5-2.2-5-5.3s1.9-5.3,5.1-5.3C549.8,18.4,551.7,20.5,551.7,23.6z M544.5,23.7
			c0,2,0.8,3.1,2.2,3.1s2.1-1.2,2.1-3.1c0-2.1-0.8-3.1-2.2-3.1C545.4,20.6,544.5,21.5,544.5,23.7z"/>
		<path d="M553.6,21.3c0-1,0-1.9,0-2.8h2.8c0,0.2,0.1,1.2,0.1,1.8c0.4-1.2,1.5-2,3.3-2V21c-2-0.1-3.3,0.5-3.3,3.3v4.4h-2.8
			L553.6,21.3L553.6,21.3z"/>
		<path d="M563.6,24.3c0,1.3,0.6,2.5,2,2.5c1.2,0,1.5-0.5,1.8-1.1h2.8c-0.4,1.2-1.5,3.3-4.7,3.3c-3.3,0-4.8-2.5-4.8-5.2
			c0-3.2,1.6-5.5,4.9-5.5c3.5,0,4.7,2.5,4.7,5.1c0,0.3,0,0.6,0,0.9H563.6z M567.5,22.5c0-1.2-0.5-2.2-1.9-2.2c-1.3,0-1.9,0.9-2,2.2
			H567.5z"/>
		<path d="M576,18.6h1.6v-2.7h2.8v2.7h2v2.1h-2v5c0,0.8,0.2,1.1,1.1,1.1c0.2,0,0.4,0,0.6,0v1.9c-0.6,0.2-1.3,0.2-1.9,0.2
			c-2,0-2.6-1.1-2.6-2.8v-5.3H576V18.6z"/>
		<path d="M586.9,14.4v5.4c0.4-0.7,1.3-1.4,2.9-1.4c1.9,0,3.4,1.1,3.4,3.9v6.5h-2.8v-6.1c0-1.3-0.5-2-1.6-2c-1.6,0-1.9,1.2-1.9,2.7
			v5.4h-2.8V14.4H586.9z"/>
		<path d="M604.2,26.1c0,1,0.1,2.4,0.1,2.6h-2.7c-0.1-0.2-0.1-0.7-0.1-1c-0.4,0.6-1.1,1.2-2.9,1.2c-2.4,0-3.5-1.6-3.5-3.2
			c0-2.3,1.9-3.4,4.8-3.4c0.5,0,1.1,0,1.4,0v-0.6c0-0.7-0.3-1.4-1.6-1.4c-1.2,0-1.4,0.5-1.6,1.2h-2.7c0.2-1.8,1.3-3.3,4.3-3.2
			c2.7,0,4.2,1.1,4.2,3.5v4.3H604.2z M601.4,24.1c-0.2,0-0.8,0-1.1,0c-1.7,0-2.3,0.5-2.3,1.5c0,0.7,0.5,1.4,1.5,1.4
			c1.8,0,2-1.2,2-2.6v-0.3H601.4z"/>
		<path d="M606.7,21.1c0-0.9,0-1.8,0-2.6h2.7c0.1,0.3,0.1,1,0.1,1.3c0.3-0.6,1.2-1.5,2.9-1.5c2,0,3.4,1.4,3.4,3.9v6.5H613v-6.1
			c0-1.1-0.4-2-1.6-2c-1.2,0-1.9,0.7-1.9,2.5v5.7h-2.8V21.1z"/>
		<path d="M625,28.7v-9.6c-0.6,0.3-1.7,0.5-2.3,0.6v-2.1c1.2-0.2,2.5-0.9,3.2-1.7h2v12.9L625,28.7L625,28.7z"/>
		<path d="M640.4,22.2c0,3.5-1.1,6.8-5,6.8c-3.8,0-5-3.1-5-6.7c0-3.5,1.3-6.7,5-6.7C639.1,15.6,640.4,18.5,640.4,22.2z M633.3,22.3
			c0,2.4,0.3,4.5,2.1,4.5s2-2,2-4.5s-0.3-4.4-2-4.4C633.8,17.8,633.3,19.5,633.3,22.3z"/>
		<path d="M651.9,22.2c0,3.5-1.1,6.8-5,6.8c-3.8,0-5-3.1-5-6.7c0-3.5,1.3-6.7,5-6.7C650.6,15.6,651.9,18.5,651.9,22.2z M644.9,22.3
			c0,2.4,0.3,4.5,2.1,4.5s2-2,2-4.5s-0.3-4.4-2-4.4C645.4,17.8,644.9,19.5,644.9,22.3z"/>
		<path d="M663.5,22.2c0,3.5-1.1,6.8-5,6.8c-3.8,0-5-3.1-5-6.7c0-3.5,1.3-6.7,5-6.7C662.2,15.6,663.5,18.5,663.5,22.2z M656.5,22.3
			c0,2.4,0.3,4.5,2.1,4.5s2-2,2-4.5s-0.3-4.4-2-4.4C657,17.8,656.5,19.5,656.5,22.3z"/>
		<path d="M36.1,37.9v5.4c0.4-0.7,1.3-1.4,2.9-1.4c1.9,0,3.4,1.1,3.4,3.9v6.5h-2.8v-6.1c0-1.3-0.5-2-1.6-2c-1.6,0-1.9,1.2-1.9,2.7
			v5.4h-2.8V37.9H36.1z"/>
		<path d="M47.2,47.8c0,1.3,0.6,2.5,2,2.5c1.2,0,1.5-0.5,1.8-1.1h2.8c-0.4,1.2-1.5,3.3-4.7,3.3c-3.3,0-4.8-2.5-4.8-5.2
			c0-3.2,1.6-5.5,4.9-5.5c3.5,0,4.7,2.5,4.7,5.1c0,0.3,0,0.6,0,0.9H47.2z M51.1,46.1c0-1.2-0.5-2.2-1.9-2.2c-1.3,0-1.9,0.9-2,2.2
			H51.1z"/>
		<path d="M64.6,49c-0.3,1.7-1.5,3.5-4.6,3.5c-3.2,0-4.8-2.2-4.8-5.2s1.8-5.4,4.9-5.4c3.4,0,4.4,2.5,4.4,3.6h-2.7
			c-0.2-0.8-0.6-1.4-1.7-1.4c-1.3,0-2,1.1-2,3.1c0,2.2,0.8,3.1,2,3.1c1,0,1.5-0.6,1.7-1.3C61.8,49,64.6,49,64.6,49z"/>
		<path d="M65.4,42.1H67v-2.7h2.8v2.7h2v2.1h-2v5c0,0.8,0.2,1.1,1.1,1.1c0.2,0,0.4,0,0.6,0v1.9c-0.6,0.2-1.3,0.2-1.9,0.2
			c-2,0-2.6-1.1-2.6-2.8v-5.3h-1.6V42.1z"/>
		<path d="M81.9,49.6c0,1,0.1,2.4,0.1,2.6h-2.7c-0.1-0.2-0.1-0.7-0.1-1c-0.4,0.6-1.1,1.2-2.9,1.2c-2.4,0-3.5-1.6-3.5-3.2
			c0-2.3,1.9-3.4,4.8-3.4c0.5,0,1.1,0,1.4,0v-0.6c0-0.7-0.3-1.4-1.6-1.4c-1.2,0-1.4,0.5-1.6,1.2h-2.7c0.2-1.8,1.3-3.3,4.4-3.2
			c2.7,0,4.2,1.1,4.2,3.5v4.3H81.9z M79.2,47.6c-0.2,0-0.8,0-1.1,0c-1.7,0-2.3,0.5-2.3,1.5c0,0.7,0.5,1.4,1.5,1.4c1.8,0,2-1.2,2-2.6
			L79.2,47.6L79.2,47.6z"/>
		<path d="M84.4,44.9c0-1,0-1.9,0-2.8h2.8c0,0.2,0.1,1.2,0.1,1.8c0.4-1.2,1.5-2,3.3-2v2.7c-2-0.1-3.3,0.5-3.3,3.3v4.4h-2.8
			L84.4,44.9L84.4,44.9z"/>
		<path d="M94.4,47.8c0,1.3,0.6,2.5,2,2.5c1.2,0,1.5-0.5,1.8-1.1h2.8c-0.4,1.2-1.5,3.3-4.7,3.3c-3.3,0-4.8-2.5-4.8-5.2
			c0-3.2,1.6-5.5,4.9-5.5c3.5,0,4.7,2.5,4.7,5.1c0,0.3,0,0.6,0,0.9H94.4z M98.3,46.1c0-1.2-0.5-2.2-1.9-2.2c-1.3,0-1.9,0.9-2,2.2
			H98.3z"/>
		<path d="M105.1,49.2c0.2,0.8,0.9,1.3,1.9,1.3s1.4-0.4,1.4-1c0-0.7-0.4-0.9-1.9-1.3c-3.3-0.8-3.8-1.8-3.8-3.3s1.1-3.1,4.1-3.1
			c3.1,0,4.1,1.7,4.2,3.1h-2.7c-0.1-0.4-0.3-1.1-1.7-1.1c-0.9,0-1.2,0.4-1.2,0.9s0.3,0.7,2,1.1c3.4,0.8,3.9,1.9,3.9,3.4
			c0,1.7-1.3,3.2-4.4,3.2s-4.3-1.5-4.6-3.3L105.1,49.2L105.1,49.2z"/>
		<path d="M127.3,47.2c0,3.1-1.8,5.3-5,5.3c-3.1,0-5-2.2-5-5.3s1.9-5.3,5.1-5.3C125.4,41.9,127.3,44,127.3,47.2z M120.1,47.2
			c0,2,0.8,3.1,2.2,3.1c1.4,0,2.1-1.2,2.1-3.1c0-2.1-0.8-3.1-2.2-3.1C121,44.1,120.1,45,120.1,47.2z"/>
		<path d="M129.6,52.3v-8h-1.5v-2.1h1.5v-0.9c0-2.1,1-3.5,3.2-3.5c0.5,0,1.1,0,1.3,0.1v2.2c-0.2,0-0.4,0-0.6,0
			c-0.8,0-1.1,0.3-1.1,1.4v0.7h1.8v2.1h-1.8v8H129.6z"/>
		<path d="M140.8,52.3v-8h-1.5v-2.1h1.5v-0.9c0-2.1,1-3.5,3.2-3.5c0.5,0,1.1,0,1.3,0.1v2.2c-0.2,0-0.4,0-0.6,0
			c-0.8,0-1.1,0.3-1.1,1.4v0.7h1.8v2.1h-1.8v8H140.8z"/>
		<path d="M156.3,47.2c0,3.1-1.8,5.3-5,5.3c-3.1,0-5-2.2-5-5.3s1.9-5.3,5.1-5.3C154.4,41.9,156.3,44,156.3,47.2z M149.1,47.2
			c0,2,0.8,3.1,2.2,3.1s2.1-1.2,2.1-3.1c0-2.1-0.8-3.1-2.2-3.1C150,44.1,149.1,45,149.1,47.2z"/>
		<path d="M158.3,44.9c0-1,0-1.9,0-2.8h2.8c0,0.2,0.1,1.2,0.1,1.8c0.4-1.2,1.5-2,3.3-2v2.7c-2-0.1-3.3,0.5-3.3,3.3v4.4h-2.8v-7.4
			H158.3z"/>
		<path d="M168.2,47.8c0,1.3,0.6,2.5,2,2.5c1.2,0,1.5-0.5,1.8-1.1h2.8c-0.4,1.2-1.5,3.3-4.7,3.3c-3.3,0-4.8-2.5-4.8-5.2
			c0-3.2,1.6-5.5,4.9-5.5c3.5,0,4.7,2.5,4.7,5.1c0,0.3,0,0.6,0,0.9H168.2z M172.1,46.1c0-1.2-0.5-2.2-1.9-2.2c-1.3,0-1.9,0.9-2,2.2
			H172.1z"/>
		<path d="M178.9,49.2c0.2,0.8,0.9,1.3,1.9,1.3s1.4-0.4,1.4-1c0-0.7-0.4-0.9-1.9-1.3c-3.3-0.8-3.8-1.8-3.8-3.3s1.1-3.1,4.1-3.1
			c3.1,0,4.1,1.7,4.2,3.1h-2.7c-0.1-0.4-0.3-1.1-1.7-1.1c-0.9,0-1.2,0.4-1.2,0.9s0.3,0.7,2,1.1c3.4,0.8,3.9,1.9,3.9,3.4
			c0,1.7-1.3,3.2-4.4,3.2c-3.1,0-4.3-1.5-4.6-3.3L178.9,49.2L178.9,49.2z"/>
		<path d="M186,42.1h1.6v-2.7h2.8v2.7h2v2.1h-2v5c0,0.8,0.2,1.1,1.1,1.1c0.2,0,0.4,0,0.6,0v1.9c-0.6,0.2-1.3,0.2-1.9,0.2
			c-2,0-2.6-1.1-2.6-2.8v-5.3H186V42.1z"/>
		<path d="M207.2,49.6c0,1,0.1,2.4,0.1,2.6h-2.7c-0.1-0.2-0.1-0.7-0.1-1c-0.4,0.6-1.1,1.2-2.9,1.2c-2.4,0-3.5-1.6-3.5-3.2
			c0-2.3,1.9-3.4,4.8-3.4c0.5,0,1.1,0,1.4,0v-0.6c0-0.7-0.3-1.4-1.6-1.4c-1.2,0-1.4,0.5-1.6,1.2h-2.7c0.2-1.8,1.3-3.3,4.4-3.2
			c2.7,0,4.2,1.1,4.2,3.5v4.3H207.2z M204.5,47.6c-0.2,0-0.8,0-1.1,0c-1.7,0-2.3,0.5-2.3,1.5c0,0.7,0.5,1.4,1.5,1.4
			c1.8,0,2-1.2,2-2.6L204.5,47.6L204.5,47.6z"/>
		<path d="M209.8,44.9c0-1,0-1.9,0-2.8h2.8c0,0.2,0.1,1.2,0.1,1.8c0.4-1.2,1.5-2,3.3-2v2.7c-2-0.1-3.3,0.5-3.3,3.3v4.4h-2.8v-7.4
			H209.8z"/>
		<path d="M219.7,47.8c0,1.3,0.6,2.5,2,2.5c1.2,0,1.5-0.5,1.8-1.1h2.8c-0.4,1.2-1.5,3.3-4.7,3.3c-3.3,0-4.8-2.5-4.8-5.2
			c0-3.2,1.6-5.5,4.9-5.5c3.5,0,4.7,2.5,4.7,5.1c0,0.3,0,0.6,0,0.9H219.7z M223.7,46.1c0-1.2-0.5-2.2-1.9-2.2c-1.3,0-1.9,0.9-2,2.2
			H223.7z"/>
		<path d="M236.8,49.6c0,1,0.1,2.4,0.1,2.6h-2.7c-0.1-0.2-0.1-0.7-0.1-1c-0.4,0.6-1.1,1.2-2.9,1.2c-2.4,0-3.5-1.6-3.5-3.2
			c0-2.3,1.9-3.4,4.8-3.4c0.5,0,1.1,0,1.4,0v-0.6c0-0.7-0.3-1.4-1.6-1.4c-1.2,0-1.4,0.5-1.6,1.2H228c0.2-1.8,1.3-3.3,4.4-3.2
			c2.7,0,4.2,1.1,4.2,3.5v4.3H236.8z M234.1,47.6c-0.2,0-0.8,0-1.1,0c-1.7,0-2.3,0.5-2.3,1.5c0,0.7,0.5,1.4,1.5,1.4
			c1.8,0,2-1.2,2-2.6L234.1,47.6L234.1,47.6z"/>
		<path d="M246.2,49.2c0.2,0.8,0.9,1.3,1.9,1.3s1.4-0.4,1.4-1c0-0.7-0.4-0.9-1.9-1.3c-3.3-0.8-3.8-1.8-3.8-3.3s1.1-3.1,4.1-3.1
			c3.1,0,4.1,1.7,4.2,3.1h-2.7c-0.1-0.4-0.3-1.1-1.7-1.1c-0.9,0-1.2,0.4-1.2,0.9s0.3,0.7,2,1.1c3.4,0.8,3.9,1.9,3.9,3.4
			c0,1.7-1.3,3.2-4.4,3.2c-3.1,0-4.3-1.5-4.6-3.3L246.2,49.2L246.2,49.2z"/>
		<path d="M254.2,37.9h2.8v2.5h-2.8V37.9z M254.2,42.1h2.8v10.1h-2.8V42.1z"/>
		<path d="M259.5,44.7c0-0.9,0-1.8,0-2.6h2.7c0.1,0.3,0.1,1,0.1,1.3c0.3-0.6,1.2-1.5,2.9-1.5c2,0,3.4,1.4,3.4,3.9v6.5h-2.8v-6.1
			c0-1.1-0.4-2-1.6-2s-1.9,0.7-1.9,2.5v5.7h-2.8L259.5,44.7L259.5,44.7z"/>
		<path d="M279.9,49c-0.3,1.7-1.5,3.5-4.6,3.5c-3.2,0-4.8-2.2-4.8-5.2s1.8-5.4,4.9-5.4c3.4,0,4.4,2.5,4.4,3.6h-2.7
			c-0.2-0.8-0.6-1.4-1.7-1.4c-1.3,0-2,1.1-2,3.1c0,2.2,0.8,3.1,2,3.1c1,0,1.5-0.6,1.7-1.3C277.1,49,279.9,49,279.9,49z"/>
		<path d="M283.9,47.8c0,1.3,0.6,2.5,2,2.5c1.2,0,1.5-0.5,1.8-1.1h2.8c-0.4,1.2-1.5,3.3-4.7,3.3c-3.3,0-4.8-2.5-4.8-5.2
			c0-3.2,1.6-5.5,4.9-5.5c3.5,0,4.7,2.5,4.7,5.1c0,0.3,0,0.6,0,0.9H283.9z M287.9,46.1c0-1.2-0.5-2.2-1.9-2.2c-1.3,0-1.9,0.9-2,2.2
			H287.9z"/>
		<path d="M299.2,52.3v-9.6c-0.6,0.3-1.7,0.5-2.3,0.6v-2.1c1.2-0.2,2.5-0.9,3.2-1.7h2v12.9L299.2,52.3L299.2,52.3z"/>
		<path d="M307.6,49.1c0.2,0.8,0.7,1.2,1.8,1.2c1.8,0,2-2.2,2.1-3.6c-0.5,0.7-1.6,1.1-2.7,1.1c-2.7,0-4.2-1.8-4.2-4.1
			c0-2.5,1.8-4.5,4.7-4.5c3.6,0,4.9,2.8,4.9,6c0,3.6-0.9,7.3-5,7.3c-3,0-4.2-1.8-4.5-3.4H307.6z M307.4,43.5c0,1.3,0.8,2.1,2,2.1
			s1.9-0.6,1.9-2.1c0-0.9-0.4-2.2-2-2.2C308.1,41.3,307.4,42.3,307.4,43.5z"/>
		<path d="M315.9,48.5c0-1.6,1.2-2.7,2.1-3.1c-1-0.6-1.6-1.4-1.6-2.7c0-2.2,1.6-3.6,4.5-3.6c2.7,0,4.4,1.4,4.4,3.6
			c0,1.5-0.8,2.2-1.6,2.6c0.9,0.3,2.1,1.4,2.1,3.1c0,2.7-2.1,4-5.1,4C318.1,52.5,315.9,51.1,315.9,48.5z M323,48.4
			c0-1.3-0.9-1.9-2.1-1.9c-1.4,0-2.1,0.8-2.1,1.9c0,1.1,0.9,1.9,2.2,1.9C322.1,50.3,323,49.7,323,48.4z M319.1,42.9
			c0,0.9,0.6,1.5,1.8,1.5c1.1,0,1.8-0.4,1.8-1.4s-0.6-1.6-1.8-1.6C319.7,41.3,319.1,41.8,319.1,42.9z"/>
		<path d="M337.3,45.7c0,3.5-1.1,6.8-5,6.8c-3.8,0-5-3.1-5-6.7c0-3.5,1.3-6.7,5-6.7S337.3,42.1,337.3,45.7z M330.3,45.8
			c0,2.4,0.3,4.5,2.1,4.5c1.8,0,2-2,2-4.5s-0.3-4.4-2-4.4C330.8,41.4,330.3,43,330.3,45.8z"/>
		<path d="M339.1,52.3v-3.4h3v3.4H339.1z"/>
	</g>
</g>
</svg>
